<svg xmlns="http://www.w3.org/2000/svg" viewBox="0 0 357.1 101.41"><g id="Capa_2" data-name="Capa 2"><g id="OBJECTS"><path d="M320.51,0H36.59A36.59,36.59,0,0,0,0,36.59H0A36.59,36.59,0,0,0,36.59,73.17H261.27v28.24l28.24-28.24h31A36.59,36.59,0,0,0,357.1,36.59h0A36.59,36.59,0,0,0,320.51,0Z" style="fill:#ff5252"/><text transform="translate(71.74 47.42) scale(1.08 1)" style="font-size:29.550321578979492px;fill:#fff;font-family:Rubik-Bold, Rubik;font-weight:700">Eme<tspan x="63.5" y="0" style="letter-spacing:-0.0049911615503918285em">r</tspan><tspan x="76.77" y="0">gencias</tspan></text><path d="M171,29.84a.27.27,0,0,1-.23-.13.44.44,0,0,1-.1-.3,1,1,0,0,1,0-.23l4.1-13.89a.74.74,0,0,1,.17-.32.4.4,0,0,1,.3-.1h.55a.4.4,0,0,1,.3.1.87.87,0,0,1,.17.32l4.09,13.89a1,1,0,0,1,0,.23.44.44,0,0,1-.1.3.25.25,0,0,1-.22.13h-.32a.29.29,0,0,1-.25-.12.81.81,0,0,1-.11-.2l-1-3.42h-5.73l-1,3.42a.58.58,0,0,1-.11.2.29.29,0,0,1-.25.12Zm2.07-5H178l-2.48-8.43Z" style="fill:#fff"/><path d="M185.68,33.91a.32.32,0,0,1-.26-.13.6.6,0,0,1-.1-.34V19.19a.63.63,0,0,1,.1-.35.31.31,0,0,1,.26-.12H186a.31.31,0,0,1,.26.12.56.56,0,0,1,.1.35v1A3.85,3.85,0,0,1,187.37,19,2.74,2.74,0,0,1,189,18.5a2.81,2.81,0,0,1,1.6.44,3.31,3.31,0,0,1,1.05,1.17,5.78,5.78,0,0,1,.6,1.62,9.43,9.43,0,0,1,.21,1.84c0,.22,0,.45,0,.71s0,.49,0,.71a9.43,9.43,0,0,1-.21,1.84,5.9,5.9,0,0,1-.6,1.62,3.31,3.31,0,0,1-1.05,1.17,2.81,2.81,0,0,1-1.6.44,2.68,2.68,0,0,1-1.66-.5,3.78,3.78,0,0,1-1.06-1.19v5.07a.53.53,0,0,1-.1.34.32.32,0,0,1-.26.13Zm3.25-5.09a2,2,0,0,0,1.51-.56,3.27,3.27,0,0,0,.79-1.46,8.31,8.31,0,0,0,.27-1.92q0-.6,0-1.2a8.48,8.48,0,0,0-.27-1.93,3.28,3.28,0,0,0-.79-1.45,2.26,2.26,0,0,0-3,0,3.52,3.52,0,0,0-.83,1.45,6.48,6.48,0,0,0-.3,1.74c0,.21,0,.49,0,.83s0,.62,0,.84a5.52,5.52,0,0,0,.3,1.69,3.41,3.41,0,0,0,.86,1.39A2,2,0,0,0,188.93,28.82Z" style="fill:#fff"/><path d="M201.15,30.06a3,3,0,0,1-2-.65,3.86,3.86,0,0,1-1.2-1.75,7.71,7.71,0,0,1-.44-2.48c0-.22,0-.52,0-.9s0-.69,0-.9a7.62,7.62,0,0,1,.44-2.49,3.92,3.92,0,0,1,1.2-1.75,3,3,0,0,1,2-.64,3,3,0,0,1,1.95.64,4,4,0,0,1,1.19,1.75,7.36,7.36,0,0,1,.45,2.49c0,.21,0,.51,0,.9s0,.68,0,.9a7.44,7.44,0,0,1-.45,2.48,3.93,3.93,0,0,1-1.19,1.75A3,3,0,0,1,201.15,30.06Zm0-1.24a2.2,2.2,0,0,0,1.84-1,4.79,4.79,0,0,0,.76-2.78c0-.21,0-.48,0-.79s0-.58,0-.79A4.76,4.76,0,0,0,203,20.7a2.25,2.25,0,0,0-3.69,0,4.83,4.83,0,0,0-.76,2.79c0,.21,0,.48,0,.79s0,.58,0,.79a4.87,4.87,0,0,0,.76,2.78A2.22,2.22,0,0,0,201.15,28.82Z" style="fill:#fff"/><path d="M210.58,29.84a.3.3,0,0,1-.26-.13.57.57,0,0,1-.1-.34V15.12a.6.6,0,0,1,.1-.34.3.3,0,0,1,.26-.13h.28a.29.29,0,0,1,.25.13.53.53,0,0,1,.1.34V29.37a.51.51,0,0,1-.1.34.29.29,0,0,1-.25.13Z" style="fill:#fff"/><path d="M217.46,29.84a.29.29,0,0,1-.26-.13.51.51,0,0,1-.1-.34V15.12a.53.53,0,0,1,.1-.34.29.29,0,0,1,.26-.13h.27a.29.29,0,0,1,.26.13.53.53,0,0,1,.1.34V29.37a.51.51,0,0,1-.1.34.29.29,0,0,1-.26.13Z" style="fill:#fff"/><path d="M227.17,30.06a3,3,0,0,1-2-.65A3.93,3.93,0,0,1,224,27.66a7.44,7.44,0,0,1-.45-2.48c0-.22,0-.52,0-.9s0-.69,0-.9a7.36,7.36,0,0,1,.45-2.49,4,4,0,0,1,1.19-1.75,3.06,3.06,0,0,1,2-.64,3,3,0,0,1,1.94.64,3.92,3.92,0,0,1,1.2,1.75,7.36,7.36,0,0,1,.45,2.49c0,.21,0,.51,0,.9s0,.68,0,.9a7.44,7.44,0,0,1-.45,2.48,3.86,3.86,0,0,1-1.2,1.75A3,3,0,0,1,227.17,30.06Zm0-1.24a2.21,2.21,0,0,0,1.84-1,4.87,4.87,0,0,0,.76-2.78c0-.21,0-.48,0-.79s0-.58,0-.79A4.83,4.83,0,0,0,229,20.7a2.25,2.25,0,0,0-3.69,0,4.83,4.83,0,0,0-.76,2.79c0,.21,0,.48,0,.79s0,.58,0,.79a4.87,4.87,0,0,0,.76,2.78A2.2,2.2,0,0,0,227.17,28.82Z" style="fill:#fff"/><line x1="251.2" y1="25.7" x2="244.55" y2="20.62" style="fill:none;stroke:#fff;stroke-linecap:round;stroke-linejoin:round;stroke-width:4px"/><line x1="258.21" y1="22.41" x2="258.21" y2="14.65" style="fill:none;stroke:#fff;stroke-linecap:round;stroke-linejoin:round;stroke-width:4px"/><line x1="266.59" y1="25.49" x2="272.67" y2="20.84" style="fill:none;stroke:#fff;stroke-linecap:round;stroke-linejoin:round;stroke-width:4px"/></g></g></svg>