<svg xmlns="http://www.w3.org/2000/svg" viewBox="0 0 213.38 280.96"><title>Robot</title><g id="Capa_2" data-name="Capa 2"><g id="OBJECTS"><path d="M180.75,89.33c-2.12-.16-1.86,1.58-2.19,2.79-1.1,4-1.89,8.17-3.63,12-.79,1.74-2,3.32-1.37,5.42.2.71-.34,1.29-.85,1.81a23.73,23.73,0,0,1-4.85,4c-2.94,1.73-6.05,3.14-8.88,5.06s-2.94,2.05-.6,4.63c2.84,3.14,2.62,6.09-.67,8.78a12.41,12.41,0,0,1-4.62,2.38,29.85,29.85,0,0,1-13.49.34c-7.53-1.42-15-3-22.7-3.62-6.5-.55-12.18-3.68-16.8-8.38-2-2.08-1.57-3.81,1.06-4.71,1.4-.48,3.44-.92,3.15-2.55s-2.41-1.63-4-1.65a1.05,1.05,0,0,0-.48.18.47.47,0,0,0-.11.7h0c.22.3.56.26.87.3-.32,0-.65,0-.87.27h0c-.44.46-1.15,0-1.59.51h0a.82.82,0,0,1-.33.2,2.63,2.63,0,0,1-2.36,2.86c-3.91.37-7.67,2.56-11.47,3.48-1.55.37-3.12.62-4.67,1,1,4.45-2.73,11.19-3.43,14.7a2.08,2.08,0,0,1-1.63,1.74,1.6,1.6,0,0,1-.21.85.41.41,0,0,1,0,.39,1.79,1.79,0,0,0-.39,1.47,3.33,3.33,0,0,0,.26.75,8,8,0,0,0,.35.72,4.56,4.56,0,0,1,.36,3.3c-2,8.15-2.33,16.52-3.36,24.8-.5,4-1.16,7.89-3.41,11.39a20.37,20.37,0,0,0-2.5,5.16,11.7,11.7,0,0,1,0,2.71,2.29,2.29,0,0,1,2.4,2.39,26,26,0,0,1-3,12.52,4.16,4.16,0,0,0,.86.51c1.46-3.71,1.8-7.7,2.68-11.69a15.67,15.67,0,0,1,2.82,8.33c0,.78.19,1.44.91,1.72,2.37.89,4.12,2.87,6.67,3.52,2.1.55,4.09,1.57,6.16,2.24,6.22,2,9.27,6.3,10.09,12.66,1.83,14.29,2.71,28.67,4.07,43,.25,2.64,1.09,5.37-.48,7.92,0,.53.33.73.71.94h0a4.42,4.42,0,0,0,.52.54,3.26,3.26,0,0,0,.52.53h.52a1.66,1.66,0,0,0,.49-.56h0a1.78,1.78,0,0,0,.54-.52h0a3.64,3.64,0,0,0,.54-.5h0a6,6,0,0,1,.55-.47l0,0c.23-.35.73-.24.95-.58l0,0,0,0a2.43,2.43,0,0,0,.58-.48h0a16.43,16.43,0,0,0,3.66-3.69h0a1.09,1.09,0,0,0,.12-1.21c-2.81-2.07-3.4-5-3.63-8.29-.31-4.52-1-9-1.29-13.55-.26-3.91-1.72-8,.59-11.77a1.44,1.44,0,0,0-.27-1.71c-2.84-3.3-2.29-7.41-2.58-11.25-.26-3.37.71-4,4.19-4,7.35-.13,14.63,1.08,22,1,4.63,0,8.83.84,12.51,3.75a3,3,0,0,0,4.27-.2,15.92,15.92,0,0,0,4.41-6.43,147,147,0,0,0,7.23-24.88c1.4-7.2,1.89-14.57,3.94-21.65a3.28,3.28,0,0,0-1.14-3.51,14.51,14.51,0,0,1-3.25-4.69c-3.27-7.51.94-15.89,7.18-20.38a3.72,3.72,0,0,1,3.28-.4c1.51.41,2.48,1.56,3.59,2.54s2,2.74,3.92,2.78c.07-.19.13-.39.2-.58a1.42,1.42,0,0,1,.41-.47l0,0a2.63,2.63,0,0,1,.5-.5l0,0a3.31,3.31,0,0,1,.49-.5l0,0a3,3,0,0,1,.5-.5l0,0,.47-.54c.7-1.18-.13-2.56.51-3.75,0-.5.05-1,.07-1.5.61-1.56-.19-3.25.46-4.8,0-.32,0-.65.05-1a6.73,6.73,0,0,0,0-3.67l0,0c-.4-.33-.29-.67-.05-1h0a2.31,2.31,0,0,0,.53-.55h0l0,0h0a.35.35,0,0,0,.11-.14c0-.11,0-.22-.12-.34l0,0c-.16-.18-.31-.37-.46-.56l0,0a1.72,1.72,0,0,1-.48-.49l0,0a1.83,1.83,0,0,1-.48-.48l0,0a1.76,1.76,0,0,1-.49-.49l0,0a2.11,2.11,0,0,1-.23-.19c-3.64-.05-7.26-.39-10.9-.42a2.44,2.44,0,0,1-2.35-3l-.17-.07c-.43-.32-.35-.67,0-1v0c.3-.27.79-.19,1-.55h0l0,0h0c.33-.24.82-.15,1.06-.55l0,0a5.26,5.26,0,0,0,.58-.45.39.39,0,0,1,.36-.1c.39-.19.88-.13,1.18-.52h0l0,0h0c.33-.22.8-.16,1.06-.51h0l0,0s0,0,0,0c.32-.25.79-.18,1.06-.52h0c.31-.26.78-.18,1.06-.5h0c.43-.47,1.16,0,1.57-.53h0a7.53,7.53,0,0,0,5.24-4.79.55.55,0,0,1,0-.45c.51-.64,0-1.52.48-2.15a.62.62,0,0,1,.07-.48c.39-.45,0-1.14.47-1.58v0c.59-.6,0-1.51.54-2.11h0c.46-.49.12-1.2.49-1.71a.39.39,0,0,1,.06-.39c.44-.47.06-1.18.49-1.65a.57.57,0,0,1,.07-.46c.39-.46,0-1.15.47-1.58h0c.58-.62,0-1.53.52-2.16a.63.63,0,0,1,.06-.47c.39-.49.06-1.18.45-1.67a.48.48,0,0,1,0-.42c.52-.65,0-1.54.48-2.2a.5.5,0,0,1,0-.43A4.5,4.5,0,0,0,180.75,89.33Z" fill="#fff"/><path d="M212.06,229.36a.41.41,0,0,1-.06-.4c-.38-.5,0-1.22-.5-1.69v0c-.29-.3-.2-.76-.48-1.07a.33.33,0,0,1-.08-.34,1.84,1.84,0,0,0-.44-.72l0,0c-.36-.23-.23-.76-.59-1l0,0a5.43,5.43,0,0,0-.49-.57v0c-.33-.24-.22-.74-.57-1h0l0,0,0,0a1.4,1.4,0,0,0-.53-.55l0,0,0,0h0a1.52,1.52,0,0,0-.52-.52h0l0,0h0a1.88,1.88,0,0,0-.51-.54h0l0,0h0a3.32,3.32,0,0,0-.52-.54h0a3.72,3.72,0,0,0-.53-.52h0a3.26,3.26,0,0,0-.52-.53h0a4.59,4.59,0,0,0-.54-.54v0a3.87,3.87,0,0,0-.53-.54h0a3,3,0,0,0-.54-.52h0l0,0h0a1.8,1.8,0,0,0-.53-.5h0l0,0,0,0a1.09,1.09,0,0,0-.7-.52.37.37,0,0,1-.34-.12,3.72,3.72,0,0,0-.61-.43.58.58,0,0,1-.44-.13c-.2-.14-.41-.27-.62-.39a.61.61,0,0,1-.43-.09c-.34-.25-.79-.2-1.13-.43l-1-.11c-1-.42-2.16,0-3.17-.47-.51.46-1.05.89-1.53,1.39a3.48,3.48,0,0,0-1.26,1.72c1.26-.47,2.31-.85,3.34-1.25a2.74,2.74,0,0,1,1.54-.19,1.06,1.06,0,0,1,.82.58c.17.37,0,.64-.29.89a80.22,80.22,0,0,0-6.28,5.52,13.59,13.59,0,0,0-2.79,4.39,6.25,6.25,0,0,0,1.61,6.92,12.24,12.24,0,0,0,10.72,2.83,3,3,0,0,1,2,.05,2,2,0,0,0,2-.21,5.24,5.24,0,0,0,1.8-1.5,4,4,0,0,1,3-1.34c.46,0,.49.38.57.7.23.14.38.08.48-.16a.49.49,0,0,1,.11-.4c.23-.31.15-.76.45-1h0c.47-.43,0-1.16.52-1.58h0A3,3,0,0,0,212.06,229.36Z" fill="#fff"/><path d="M187.33,54.63a1.11,1.11,0,0,0-.53-.54h0l0,0s0,0,0,0a1.91,1.91,0,0,0-.48-.58h0a5,5,0,0,1-.47-.55l0,0a1.83,1.83,0,0,1-.48-.48l0-.05a1.86,1.86,0,0,1-.49-.48l0,0a2.41,2.41,0,0,1-.37-.34,10.81,10.81,0,0,1-1.2-.21C177.3,49.85,170.83,50,164.8,49a151.57,151.57,0,0,1-18.28-3.77c-6.05-1.76-11.71-2.29-17.92-3-2.53-.3-5.33-1.47-7.84-1.54a22.84,22.84,0,0,1-4.66-.58,8,8,0,0,1-1.72.68c-3.11.87-5.82,2.62-8.84,3.71-2.7,1-5.43,1.78-8.13,2.71-4.45,1.52-8.55,3.83-13,5.37.83,3.49.45,7.13-.16,10.78-.82,4.85-1.64,9.7-2.43,14.56C80,89,80,100.46,77.18,111.33a2.79,2.79,0,0,1,.46.45l0,0a5.18,5.18,0,0,0,.58.47l0,0c.45.54,1.19.16,1.7.53l.2,0,.18.08c.48.46,1.19.11,1.71.48l.2,0,.19.08c.79.61,1.84-.1,2.64.5h0c1.19.71,2.58-.11,3.78.5l.21,0,.19.07a2.64,2.64,0,0,0,2.08.16c.06-1.65-1.4-1.55-2.33-1.9-3.19-1.18-6.48-2.07-9.5-3.73a.48.48,0,0,1,.52-.26c13.13,2.56,26.32,4.73,39.62,6.24,9.13,1,18.11,3.09,27.18,4.48,1.31.2,2.62.44,3.83-.33,4.19-2.69,8.59-5.09,12.14-8.68,9.83-9.94,15.61-22,18.48-35.55,1-4.89,1.61-9.87,2.72-15.11.93,1.93.26,3.73,1.13,5.24a.43.43,0,0,0,.7,0,.59.59,0,0,1,.06-.45c.49-.66,0-1.53.46-2.19a.54.54,0,0,1,0-.43c.6-.81-.09-1.86.5-2.68a.68.68,0,0,1,.06-.48c.48-.64,0-1.51.46-2.15a.64.64,0,0,1,.06-.47c.26-.53.41-1.06-.12-1.53Z" fill="#fff"/><path d="M45.18,193.23c-.43-.73-1.1-1.35-1.12-2.31a18.92,18.92,0,0,1,.17-4.2c-3.32,1.33-6.91,1.95-10.07,3.73s-2.06,6.33-6.19,7.67c-3,.95-6.32-1.8-8.71-3.08-4.26-2.28-8.13-2.11-12.2-.55a1,1,0,0,1,0,.25c0,.68.47.83,1,1,3.73,1.2,7.45,2.44,11.19,3.59a2.07,2.07,0,0,1,1.75,2,2.59,2.59,0,0,0,.55,1.45c1.2,1.35,1.29,3.1,1.39,4.67.17,2.6.86,5.17.65,7.8a2,2,0,0,0,.06.78,17.76,17.76,0,0,1,.46,5.19,5.76,5.76,0,0,0,.07,1.56,19.65,19.65,0,0,1,.4,5.72c0,2.62,0,5.24,0,7.86a10.93,10.93,0,0,0,.19,2.34,37.54,37.54,0,0,1,.85,6.17c.16,4.17-.32,8.37.49,12.53a2,2,0,0,1-1.82,2.43,8.1,8.1,0,0,1-1.31.06q-.08,0-.09.21c0,.13.08.2.29.22a.45.45,0,0,1,.37.1.84.84,0,0,0,1,.05l.56,0,.54.46h0a2.76,2.76,0,0,0,.54.54v0a1.77,1.77,0,0,0,.56.53l0,0a.58.58,0,0,0,1,0l0,0a5,5,0,0,0,.57-.48h0c.25-.34.77-.22,1-.58l0,0a6.28,6.28,0,0,0,.58-.47l0,0c.24-.34.76-.22,1-.59l0,0a2.68,2.68,0,0,0,.57-.49h0c.25-.31.75-.21,1-.56h0l0,0,0,0a1.53,1.53,0,0,0,.56-.51h0l0,0v0c.2-.13.36-.33.56-.47l0,0a25,25,0,0,0,3.66-3.61l.06-.06a.43.43,0,0,0,0-.46c-1.26-.12-1.86-1.19-2.69-1.92a3.42,3.42,0,0,1-1.13-2.25c-.41-2.73-1-5.44-1.44-8.17-.27-1.7-.44-3.43-.6-5.15a16,16,0,0,0-.34-2.83,12.85,12.85,0,0,1-.15-4.15c.14-1.75,1.27-3,2.51-4.05.82-6-.58-11.9-.46-17.91.73.19,1.25,1.07,2.14.62a9.05,9.05,0,0,0,0-1,2.78,2.78,0,0,1,1.63-3,51.49,51.49,0,0,1,5.56-2.9,7.89,7.89,0,0,0,4.18-4.75,1.39,1.39,0,0,0-.17-1.47A12,12,0,0,1,45.18,193.23Z" fill="#fff"/><path d="M175.82,144.3h0Z" fill="#fff" fill-rule="evenodd"/><polygon points="103.85 275.52 103.85 275.52 103.85 275.52 103.85 275.52" fill="#fff" fill-rule="evenodd"/><path d="M108.2,270.38c-2.09-.76-3.54-2-3.81-4.41-.4-3.55-.91-7.08-1-10.65-.83-2.35-.25-4.86-.9-7.25-.31-1.15.15-2.54-.24-3.64-.61-1.71.27-3.45-.38-5.11-.19-.5.17-1,.46-1.46.44-.65.93-1.26,1.45-2a4.84,4.84,0,0,0-.83-1,4.94,4.94,0,0,1-2-4.08c-.11-2.62-.81-5.18-.66-7.82a7.26,7.26,0,0,1,.35-2.3,2.79,2.79,0,0,1,2.92-2c2.7.33,5.41.06,8.11.18a9.08,9.08,0,0,1,3.11.34,2,2,0,0,0,.77.12c4.38-.25,8.69.91,13.07.56a17,17,0,0,1,9.28,2.27,10.85,10.85,0,0,1,2.32,1.67c1.26,1.13,1.87,1.08,3.17,0a15,15,0,0,0,4.11-5.68,123.45,123.45,0,0,0,4.29-12.63c1-3.34,1.9-6.7,2.61-10.12.59-2.8,1-5.64,1.53-8.46.84-4.89,1.27-9.84,2.6-14.64.07-.25,0-.56.16-.76,1.05-1.52.28-2.48-.88-3.5-3.54-3.14-4.63-7.28-4.43-11.81a14.45,14.45,0,0,1,.95-4.06,16.2,16.2,0,0,1,4.45-7.29c.8-.68,1.48-1.49,2.24-2.21a5.08,5.08,0,0,1,7.08-.06c1.36,1.23,2.61,2.58,3.92,3.87.37.37.77.7,1.15,1.05l.18-.05a.94.94,0,0,0,.45.47l.06.06a1.44,1.44,0,0,0,.45.5l0,0c.14.2.33.36.47.56v0a1.39,1.39,0,0,1,.5.6l-.05,0c.43.2.29.75.64,1v0c.15.2.38.36.44.63l0-.06c.45.23.35.74.57,1.09l0-.05c.44.29.38.81.55,1.23a.24.24,0,0,0,.12.32c.26.3.16.77.48,1h0c.3.31.24.77.48,1.11l0,0c.56.44.19,1.15.49,1.66l0,0c.48.18.36.73.63,1l0,0c.38.33.34.82.51,1.23a.26.26,0,0,0,.1.34c.28.31.2.77.46,1.09l0,0c.38.32.34.82.51,1.23a.24.24,0,0,0,.11.33c.27.31.18.77.46,1.08v0c.35.32.3.81.5,1.19a.32.32,0,0,0,.1.38c.26.32.19.77.45,1.08v0c.54.39.06,1.16.57,1.55h0c.29.35.26.82.46,1.2a.31.31,0,0,0,.11.39c.25.32.17.77.45,1.07v0c.34.35.33.84.48,1.26a.21.21,0,0,0,.08.31,4,4,0,0,1,.45,1.26.22.22,0,0,0,.09.32c.4.49.11,1.15.4,1.67l0-.05c.49.23.38.78.6,1.15a.31.31,0,0,0,.11.38c.25.35.22.81.42,1.18a.34.34,0,0,0,.11.4c.25.31.17.76.45,1.06v0c.34.35.32.83.49,1.24a.25.25,0,0,0,.1.34c.27.31.19.77.46,1.08l0,0c.37.34.34.83.5,1.25a.23.23,0,0,0,.1.32c.28.3.19.77.47,1.08v0c.35.34.32.83.5,1.24a.24.24,0,0,0,.1.33c.27.32.2.78.45,1.1l0,0c.63.61.06,1.51.51,2.17l0,0a.87.87,0,0,1,.56.74.18.18,0,0,0,.09.27c.29.31.21.78.47,1.09l0,0c.54.41.1,1.16.55,1.6v0c.35.35.33.83.49,1.25a.22.22,0,0,0,.08.32c.31.34.25.82.46,1.2a.32.32,0,0,0,.1.38c.26.32.19.77.45,1.09l0,0c.55.41.12,1.15.56,1.6l0,0c.37.34.35.84.5,1.26a.19.19,0,0,0,.08.3,4.1,4.1,0,0,1,.45,1.27.2.2,0,0,0,.08.31c.54.61-.06,1.5.5,2.11h0c.32.29.23.77.53,1.06h0c.48.43.07,1.16.52,1.6l0,0c.51.47.14,1.2.52,1.7,0,.76,0,1.51,0,2.26-.16.43-.14.93-.51,1.26l0,0c-.27.31-.16.84-.61,1l.06-.06a1.31,1.31,0,0,1-.49.62h0a4.8,4.8,0,0,0-.45.56l0,0c-.22.31-.29.69-.52,1a4.47,4.47,0,0,1-1.24,1.15c1.56-.22,3.4-1.49,4.29.33s-1.32,2.53-2.37,3.48c-2.26,2.05-4.72,3.9-6.09,6.73-1.64,3.39-.91,6.09,2.18,8.16a12.64,12.64,0,0,0,8.21,2c2.68-.18,5.31-.19,7.41-2.43.58-.62,2.31-1.77,3,.4a1.17,1.17,0,0,1-.23.7c0,.17,0,.35,0,.53a.67.67,0,0,1,0,1v0c-.29.29-.16.85-.65,1l.08-.07c-.16.49-.72.35-1,.65h0a1,1,0,0,1-.63.46l.05-.06c-.17.49-.72.37-1,.62v0a1.28,1.28,0,0,1-.67.42,6.39,6.39,0,0,0-2.28,1.26c-6.33,5.54-18.19,2.45-22-5.37-1.92-3.93-.63-7.87.83-11.69.4-1.06,1.43-2.21-.1-3.24a3.9,3.9,0,0,1-.86-.81v0a1.58,1.58,0,0,1-.57-.52h0a2.47,2.47,0,0,1-.54-.53h0a2.31,2.31,0,0,1-.54-.54v0a2.71,2.71,0,0,1-.53-.54h0a2.31,2.31,0,0,1-.54-.54l0,0a2.76,2.76,0,0,1-.54-.54h0a2.31,2.31,0,0,1-.54-.54l0,0a1.51,1.51,0,0,1-.52-.6l.05.06c-.43-.31-.39-.83-.54-1.26a.2.2,0,0,0-.11-.29c-.28-.3-.18-.77-.48-1.06h0c-.31-.3-.25-.77-.49-1.1l0,0c-.39-.32-.36-.83-.52-1.26v-.09c.07-.26.19-.52,0-.76v0a1.32,1.32,0,0,1-.51-.61l.06.06c-.47-.27-.38-.8-.58-1.19a.27.27,0,0,0-.11-.36c-.25-.32-.19-.76-.44-1.09l0,0c-.38-.33-.35-.84-.51-1.26a.19.19,0,0,0-.07-.3c-.32-.32-.24-.81-.48-1.16a.4.4,0,0,0-.11-.43c-.24-.31-.16-.76-.45-1.06v0c-.33-.34-.29-.82-.49-1.21a.29.29,0,0,0-.12-.38c-.24-.31-.16-.76-.44-1.06v0c-.35-.32-.3-.81-.5-1.2a.33.33,0,0,0-.11-.38c-.25-.3-.15-.76-.47-1h0c-.3-.3-.24-.77-.49-1.1l0,0c-.14-.1-.19-.21-.16-.32s.09-.17.13-.17v0c.12-.13.15-.24.09-.34s-.1-.15-.14-.15l-.05-.06a2,2,0,0,0-.45-.52l0,0c-.15-.2-.38-.35-.46-.61l0,.05c-.42-.24-.34-.74-.56-1.09l0,0c-.41-.24-.33-.74-.55-1.09l0,0c-1-.28-.82.53-.88,1-.12,1.25.24,2.53-.21,3.76a2.11,2.11,0,0,0-.1,1.38c-.47.89.06,1.93-.43,2.82l-.09.91c-.51.86.1,1.92-.46,2.77a.32.32,0,0,0-.05.41c-.48.68,0,1.54-.45,2.21a.4.4,0,0,0-.07.45c-.56.83.07,1.86-.46,2.7l-.09.91c-.54,1,.13,2.26-.45,3.3a.36.36,0,0,0-.05.43c-.58,1,.09,2.21-.45,3.23,0,.33-.05.65-.08,1-.62,1.2.16,2.57-.48,3.76a.35.35,0,0,0-.05.42c-.53.64.15,1.6-.59,2.18l.05-.07a1,1,0,0,1-.56.58l0,0a1,1,0,0,1-.56.57l0-.05a1,1,0,0,1-.57.57l0,0a1,1,0,0,1-.56.56l0,0a1,1,0,0,1-.57.57l0,0a1,1,0,0,1-.56.57l0,0a.81.81,0,0,1-.6.53l.05-.06c-.18.49-.72.37-1.05.61l0,0c-.24.41-.74.32-1.07.55l0,0c-.24.4-.75.29-1.05.57h0c-.25.34-.75.22-1,.56h0c-.2.16-.35.4-.64.43l.05-.05c-.19.47-.72.36-1.05.6l0,0c-.23.4-.74.29-1,.58h0c-.25.33-.75.21-1,.55l0,0c-.2.15-.35.39-.62.43l0,0c-.19.46-.73.34-1,.61l0,0c-.25.37-.75.26-1,.57h0a8.32,8.32,0,0,1-1.64,1l0,0c-.23.42-.74.31-1,.59h0a1,1,0,0,1-.62.48l.05-.06c-.18.49-.72.37-1,.61l0,0c-.24.4-.75.3-1.05.57h0c-2.39.8-4.91-.19-7.3.58l0,0c-.36.24-.24.75-.57,1v0c-.3.29-.19.82-.6,1l.05-.05c-.09.26-.31.41-.45.62l0,0c-.35.24-.23.75-.57,1v0c-.29.29-.17.84-.64,1l.06-.06a1.11,1.11,0,0,1-.47.63h0c-.31.27-.18.83-.65,1l.06-.06a.94.94,0,0,1-.51.62l0,0a3,3,0,0,1-.48.58v0c-.45.45-.61,1.13-1.16,1.51l0-.05a1.08,1.08,0,0,1-.53.6l0,0a1.64,1.64,0,0,1-.52.56h0a2.51,2.51,0,0,1-.54.54l0,0a2.76,2.76,0,0,1-.54.54h0a2.51,2.51,0,0,1-.54.54v0a2.47,2.47,0,0,1-.53.54h0a2.31,2.31,0,0,1-.54.54l0,0a1.89,1.89,0,0,1-.56.53l0,0a1.89,1.89,0,0,1-.53.56h0a48.47,48.47,0,0,1-6.23,6.34l0,0a2,2,0,0,0-.48.49l0,0a2,2,0,0,0-.49.48l0,0a3.87,3.87,0,0,0-.52.47h0a5.35,5.35,0,0,1-.55.51l0,0a2.51,2.51,0,0,1-.54.54h0a2,2,0,0,1-.55.53l0,0a1.32,1.32,0,0,1-.58.52l0,0a1,1,0,0,1-.56.57l0,0a1.41,1.41,0,0,1-.52.59l0,0a2.35,2.35,0,0,1-.54.55l0,0a2.51,2.51,0,0,1-.54.54h0a5.17,5.17,0,0,1-.5.55v0a2.86,2.86,0,0,0-.46.52l0,0c-.49.42-.64,1.09-1.15,1.49l0,0a1.61,1.61,0,0,1-.52.58l0,0a2.56,2.56,0,0,1-.54.55v0a2.31,2.31,0,0,1-.54.54h0a2.76,2.76,0,0,1-.54.54v0a2.47,2.47,0,0,1-.53.54h0C108.52,270.51,108.39,270.55,108.2,270.38Z" fill="#cdbfbd" fill-rule="evenodd"/><path d="M65.5,208.46a31.75,31.75,0,0,1,.86-5.65c.43-2.09,1.27-4.17.93-6.41-.07-.43.36-.93.66-1.64,1,1.37,2.08,2.4,2.31,3.92a5.47,5.47,0,0,0,1,2.4c1,1.39,1.41,2.79.35,4.34-.08.11,0,.33,0,.59.63.23,1.27.51,1.93.7.94.28,1.83.55,2.19,1.63.16.47.69.44,1.09.58a111.45,111.45,0,0,1,11.7,4.55,20.15,20.15,0,0,1,4.18,3.12,4,4,0,0,1,1.3,2.22c.21,1,.61,2,.91,3a42.48,42.48,0,0,1,1.22,6.92c.33,2.67.4,5.36.86,8,.39,2.31.48,4.68.67,7a9.06,9.06,0,0,0,.32,2.59,1.67,1.67,0,0,1,.15.76c-.18,3,.52,5.91.55,8.87a70.31,70.31,0,0,0,1,9.6,15.91,15.91,0,0,1,.1,1.83,18.34,18.34,0,0,0,.39,3.89,4.81,4.81,0,0,1-1.46,5.22,1,1,0,0,1-1.52,0l0,0c-.33-.24-.79-.16-1.1-.46l-.13-.12-.18,0c-.42-.15-.9-.14-1.25-.48h0c-.43-.45-1.17,0-1.57-.55l0,0c-.32-.27-.81-.18-1.08-.54l0,0c-.22-1.51-1.09-1.95-2.6-1.87s-2.87.37-4.25-.26h0c-.46-.42-1.16,0-1.61-.48l-.15-.11-.19,0c-.53-.33-1.25,0-1.74-.5h0c-.62-.54-1.52.08-2.11-.53h0c-.63-.54-1.53.07-2.14-.52l-.13-.11-.17.06c-.72-.4-1.63.07-2.32-.47l-.14-.11-.16.06a1.5,1.5,0,0,1-.75-.43l0,0a2.53,2.53,0,0,0-.5-.48l0,0a1.83,1.83,0,0,0-.48-.48l0,0a2.07,2.07,0,0,0-.49-.49l0,0a1.83,1.83,0,0,0-.48-.48l0,0a2.32,2.32,0,0,0-.49-.5l0,0c-.61-1.39.17-2.92-.47-4.3,0-.32,0-.64,0-1-.63-1.56.18-3.26-.47-4.81,0-.32,0-.64,0-1-.65-1.56.18-3.26-.48-4.82a2.38,2.38,0,0,0-.07-1.49c-.55-1.43.12-3-.42-4.39a2.25,2.25,0,0,0-.09-1.38c-.63-1.56.18-3.25-.46-4.81,0-.32,0-.64,0-1-.93-.9.81-2.69-1.09-3.27h0A20.47,20.47,0,0,1,65,235.59l0,0c-.21.43-.74.32-1,.6h0a1,1,0,0,1-.62.48l.05-.06c-.19.49-.72.37-1.05.6l0,0c-.21.41-.74.28-1,.6h0c-.19.18-.34.41-.62.45l0-.05c-.19.46-.72.35-1,.61l0,0c-.5.41-1.28.41-1.59,1.09l0,0a1.85,1.85,0,0,1-.54.54h0a1.1,1.1,0,0,1-.61.49l.05-.06c-.17.46-.73.32-1,.65h0a2.07,2.07,0,0,1-.58.48l0,0c-.2.39-.74.24-1,.61l0,0c-.19.16-.38.3-.58.45l0,0A9.84,9.84,0,0,1,52.43,244h0a1.06,1.06,0,0,1-.61.49l.05-.06c-.18.47-.73.34-1,.64h0a1.17,1.17,0,0,1-.61.48l.05,0c-.18.44-.73.31-1,.63h0c-.19.18-.34.4-.62.46l0-.05c-.18.45-.72.32-1,.62h0a1.07,1.07,0,0,1-.64.46l.06-.06c-.3.7-1.13.16-1.51.66h0a3.39,3.39,0,0,1-.55.52l0,0a1.38,1.38,0,0,1-.59.51l0,0c-.21.41-.74.3-1,.6h0a1.21,1.21,0,0,1-.62.47l.05,0c-.2.46-.73.35-1.05.59h0c-.23.38-.75.26-1,.59h0c-.19.17-.34.39-.61.46l0,0c-.18.43-.73.29-1,.63l0,0a3,3,0,0,1-.59.47l0,0c-.21.39-.75.25-1,.62l0,0a3.63,3.63,0,0,1-.84.29,5,5,0,0,1-4-4.26,147.57,147.57,0,0,1-2.63-18.12c-.22-2.53.32-4.88,2.5-6.54,1.5-2,3.8-2.75,5.84-3.88,6.64-3.68,13.1-7.7,20.28-10.34C61.07,209.9,63.56,210,65.5,208.46Z" fill="#cdbfbd" fill-rule="evenodd"/><path d="M91.35,114.32c-1.76-1-3.76-1.34-5.63-2a63.15,63.15,0,0,1-6.55-2.65A6.07,6.07,0,0,1,78,109a.66.66,0,0,1-.21-.92.89.89,0,0,1,.59-.4,4.59,4.59,0,0,1,1.28.16c3.3.85,6.65,1.36,10,1.89,3.69.58,7.35,1.33,11,1.94,2.75.45,5.52.77,8.27,1.2,3.18.49,6.39.72,9.58,1.1,3.8.44,7.55,1.21,11.33,1.85l10.54,1.76c2.49.42,5,.78,7.45,1.3a2.7,2.7,0,0,0,2.24-.31c3.49-2.45,7.39-4.35,10.56-7.24a48.17,48.17,0,0,0,7.25-7.91,67.12,67.12,0,0,0,7.65-13.67c.51-1.29,1.22-2.51,1.75-3.81a60.87,60.87,0,0,0,3.32-12.33c.72-4,1.46-8,2.06-12.08a18.72,18.72,0,0,1,.85-3c.1-.31.34-.69.77-.49a1,1,0,0,1,.37.61,33.57,33.57,0,0,1,.6,6.49,2.15,2.15,0,0,1-.05,2,.28.28,0,0,0-.05.39c-.56,1.22.11,2.58-.43,3.8a2.34,2.34,0,0,0-.1,1.43c-.54,1,.13,2.27-.46,3.31a.33.33,0,0,0-.05.41c-.48.67,0,1.54-.46,2.21a.34.34,0,0,0-.07.41c-.38.5-.06,1.19-.44,1.68a.34.34,0,0,0-.08.42c-.39.5,0,1.2-.47,1.69a.25.25,0,0,0-.08.35c-.18.4-.16.86-.43,1.22a.29.29,0,0,0-.09.37c-.19.38-.16.85-.44,1.21a.2.2,0,0,0-.09.32c-.43.71.11,1.63-.53,2.29l0,0c-.11.22-.15.5-.45.6-.9,1-1.71,2-1.28,3.44a1.53,1.53,0,0,1-.23,1,21.92,21.92,0,0,0-1.54,5,24.83,24.83,0,0,1-3.33,8.21,1.3,1.3,0,0,0-.16,1.45,3.41,3.41,0,0,1,.37,1.25c.07,1,.09,1.95-1.14,2.29a1.56,1.56,0,0,0-1,.81,5.78,5.78,0,0,1-2.49,2.26,60.11,60.11,0,0,1-5.21,3c-2.46,1.17-4.61,2.84-7,4.11a.7.7,0,0,0-.12,1.26c.33.28.68.54,1,.81A7.34,7.34,0,0,1,161,128.3a4.38,4.38,0,0,1-.9,4.17,12.54,12.54,0,0,1-5.69,4,16.19,16.19,0,0,1-5.11,1,14.26,14.26,0,0,0-1.81.24,6.85,6.85,0,0,1-1.54.2c-2.08-.19-4.16-.39-6.22-.71a69.22,69.22,0,0,1-11.95-2.75,8.15,8.15,0,0,0-2.33-.16,21.45,21.45,0,0,1-5.47-.41c-1.25-.35-2.59-.1-3.9-.32a27.92,27.92,0,0,1-6.47-2,30.6,30.6,0,0,1-10.39-6.91,4.22,4.22,0,0,1-1-3.86,1.47,1.47,0,0,1,.75-1,3.69,3.69,0,0,1,1.69-.68,6.15,6.15,0,0,0,1.29-.16c1-.29,2.33-1.45,2.11-1.72-.55-.66-1.38-.65-2.15-.81s-1.45-.64-2.28-.36a2.12,2.12,0,0,1-2-.14h0c-.62-.54-1.52.06-2.13-.52l-.14-.1-.16,0c-.71-.42-1.64.11-2.3-.52l0,0C92.5,114.43,91.72,115,91.35,114.32Z" fill="#cdbfbd" fill-rule="evenodd"/><path d="M13.62,257.7l-.15-.11-.18.05c-.71-.41-1.61.07-2.3-.47l-.15-.11-.17.06c-.71-.41-1.6.05-2.3-.46l-.17-.1-.2,0c-.68-.45-1.59.09-2.24-.5h0l-.56-.45,0,0a2,2,0,0,0-.48-.49l0,0a1.86,1.86,0,0,0-.49-.48l0,0a2,2,0,0,0-.48-.49l0,0a1.86,1.86,0,0,0-.49-.48l0,0A3.42,3.42,0,0,0,2.6,253h0c-.7-2.82.18-5.73-.47-8.55a3.79,3.79,0,0,0-.09-2c-.59-1.93.18-4-.44-5.88a6.11,6.11,0,0,0-.08-2.52c-.47-3.11-.08-6.23-.22-9.34-.05-.94.23-1.91-.24-2.82A8.13,8.13,0,0,0,1,218.85c-.59-2.65.18-5.37-.43-8a2.38,2.38,0,0,0-.08-1.42c-.63-1.92.18-3.95-.47-5.86v-1.92c.68-2.45-.19-5,.49-7.44h0a2.08,2.08,0,0,0,.45-.53l.07-.06a1.32,1.32,0,0,0,.48-.46l.05,0a1.85,1.85,0,0,1,.72-.41.26.26,0,0,0,.35-.1,2.25,2.25,0,0,1,2.08,0,.24.24,0,0,0,.34.09c.42.2.9.13,1.33.29,2.51,2.76,6.05,3.53,9.38,4.25,5.72,1.23,7.37,5.24,8,10.2a135.46,135.46,0,0,1,1.49,17.71c-.08,9.18,1.56,18.26,1.24,27.43a28.46,28.46,0,0,0,.29,3.91c.25,2.66-.55,3.47-3.42,3.59-.45,0-.92.08-1.31-.26l-.14-.12-.17.05c-.55-.31-1.27,0-1.77-.49h0c-.62-.54-1.52.07-2.11-.53h0c-.62-.55-1.52.06-2.13-.53l-.13-.1-.17.06C14.85,257.86,14.14,258.15,13.62,257.7Z" fill="#cdbfbd" fill-rule="evenodd"/><path d="M74.52,144.91a4,4,0,0,1,.89,3.86A43.92,43.92,0,0,0,74,157c0,.86-1,1.32-.83,2.13a4.87,4.87,0,0,1,.27,2.31c-.69,2.18-.32,4.48-.86,6.7a50,50,0,0,0-.67,5.9c-.2,1.72-.38,3.45-.7,5.16a9.12,9.12,0,0,1-1.58,4.08,23.66,23.66,0,0,0-1.74,3.22c-.73,1.38-1.48,2.75-2.23,4.12a3.84,3.84,0,0,1-.32,1.9,16.61,16.61,0,0,1-2.19,3.24c-2.12,2.41-4.15,4.61-5.45,7.88-1.77,4.42-6.25,6.72-11.16,7.67a12.76,12.76,0,0,1-11.69-3.41c-.83-2.3.14-3.83,2.1-5,1.73-1,3.57-1.8,5.31-2.79,3.48-2,3.86-3.63,2.05-7.11a8.64,8.64,0,0,1,.33-8.69,12.9,12.9,0,0,0,1.13-1.09l-.05,0a1.89,1.89,0,0,1,.47-.62h0c.33-.25.19-.81.65-1l-.06,0a1.2,1.2,0,0,1,.49-.62l0,0a4.26,4.26,0,0,0,.41-.54.23.23,0,0,0,.17-.29,1,1,0,0,1,.53-.75l0,0a1.44,1.44,0,0,1,.55-.57l0,0c.26-.32.17-.82.55-1.08l0,0c.14-.2.28-.39.43-.58a.2.2,0,0,0,.13-.28,1,1,0,0,1,.51-.76l0,0c.12-.22.33-.38.45-.59l0-.05c.37-.22.24-.74.59-1l0,0c.14-.18.28-.36.41-.55A.25.25,0,0,0,52,174a1.09,1.09,0,0,1,.49-.74h0c.29-.28.17-.84.63-1l0,.06a1.18,1.18,0,0,1,.47-.63h0c.3-.28.18-.83.63-1l0,.06a1.35,1.35,0,0,1,.47-.63h0c.3-.28.19-.82.61-1l0,.06a1.79,1.79,0,0,1,.47-.62v0c.34-.25.22-.78.6-1l0,.05c.1-.24.32-.39.45-.61l0,0c.36-.23.23-.75.58-1l0,0a4.19,4.19,0,0,0,.4-.54.25.25,0,0,0,.17-.31,1,1,0,0,1,.53-.73l0,0a1.7,1.7,0,0,1,.52-.58v0c.28-.31.21-.78.48-1.09v0c.35-.25.22-.78.61-1l0,.05a1.9,1.9,0,0,1,.5-.59h0c.17-.18.34-.36.52-.53h0c.17-.18.35-.35.53-.52h0c.48-.43.06-1.15.51-1.59h0c.33-.27.22-.78.58-1l0,0c.12-.22.32-.37.45-.59l0,0a1.25,1.25,0,0,0,.46-.48l.06-.06a1.12,1.12,0,0,0,.47-.47l.06-.06a1.13,1.13,0,0,0,.46-.46l.05-.06c.67-.53-.05-1.47.59-2v0c.28-.3.18-.82.59-1.05l0,.05c.08-.25.3-.4.43-.62l0,0c.36-.22.23-.75.59-1l0,0c.27-.32.17-.84.59-1.06l0,0c.07-.26.3-.41.44-.62v0c.36-.24.24-.75.58-1v0c.28-.3.17-.83.6-1.05l0,.06c.08-.27.3-.42.46-.62v0a1.73,1.73,0,0,0,.45-.52l.06-.06a1,1,0,0,0,.46-.47l.07-.06a1.08,1.08,0,0,0,.46-.46l.06-.06a1.08,1.08,0,0,0,.46-.46l.07-.07a1.08,1.08,0,0,0,.46-.46l.06-.07a4.13,4.13,0,0,0,.59-.41l0,0c.17-.18.32-.18.44.06v0c.6.07.82.58,1.13,1l0,0A5.21,5.21,0,0,1,74.52,144.91Z" fill="#cdbfbd" fill-rule="evenodd"/><path d="M153.1,19.86h-.21l-.17.14c-.33.22-.77.13-1.07.43l-.5.08a13.08,13.08,0,0,1-4.71,0l-.23-.11-.26,0c-.31-.3-.79-.2-1.09-.52h0a1.37,1.37,0,0,0-.52-.38.26.26,0,0,0-.33-.21.75.75,0,0,1-.66-.61l.07.06a.67.67,0,0,1-.59-.58l.06.06a.66.66,0,0,1-.58-.58l.06,0a.66.66,0,0,1-.59-.58l.06.06a.67.67,0,0,1-.58-.58l.06.05a.67.67,0,0,1-.59-.58l.06.06a.63.63,0,0,1-.57-.59l.06.06c-.5-.12-.35-.71-.68-1h0a1.26,1.26,0,0,1-.46-.75.19.19,0,0,0-.11-.31c-.26-.35-.21-.8-.44-1.16a1,1,0,0,0-.08-.94,3.42,3.42,0,0,1,0-2.61.79.79,0,0,0,.1-.82c.32-.55,0-1.31.53-1.79l0,0c.23-.34.15-.84.55-1.09l0,0a1.24,1.24,0,0,1,.56-.57l0,0a1.24,1.24,0,0,1,.56-.57l0,0a1.34,1.34,0,0,1,.57-.56l0,0a1.24,1.24,0,0,1,.56-.57l0,0a1.34,1.34,0,0,1,.57-.56l0,0a1.19,1.19,0,0,1,.57-.56l-.05,0c.21-.41.75-.27,1-.63h0a1.5,1.5,0,0,1,.75-.43.22.22,0,0,0,.32-.12c.3-.26.76-.15,1-.47h0c.49-.44,1.19-.11,1.7-.48A7.1,7.1,0,0,0,150,0c.5.37,1.15.09,1.67.4l.84.16a1.83,1.83,0,0,1,.73.35.38.38,0,0,0,.43.14,4.12,4.12,0,0,1,.65.44l0,0a1.07,1.07,0,0,0,.5.44l.06.06a20.88,20.88,0,0,1,2.57,2.58l.06.06a.9.9,0,0,0,.46.46l.06.07a1.73,1.73,0,0,0,.44.53h0a1.55,1.55,0,0,1,.45.72c0,2.31,0,4.61,0,6.92a1.5,1.5,0,0,1-.42.78v0c-.37.22-.24.76-.61,1l0,0a2.57,2.57,0,0,1-.5.59h0c-.17.17-.35.34-.51.53h0c-.18.16-.35.34-.52.52h0a5.19,5.19,0,0,0-.52.53h0c-.18.16-.35.34-.52.52h0a6.5,6.5,0,0,0-.52.53h0c-.18.16-.35.34-.52.52h0c-.19.17-.36.35-.54.52h0A1.59,1.59,0,0,1,153.1,19.86Z" fill="#d42e2e" fill-rule="evenodd"/><path d="M183,220.57c.42.11.85.19,1.26.33.95.32,1,.47.68,1.26-.52,1.2-1,2.4-1.57,3.6a16,16,0,0,0-1.26,7.14,7.65,7.65,0,0,0,1.15,3.7,14.45,14.45,0,0,0,8.65,6.36,13.61,13.61,0,0,0,8.49,0,7.54,7.54,0,0,0,3.56-2.11,3,3,0,0,1,2.82-1c.13.12.17.23.12.35s-.1.16-.14.16h0a3.94,3.94,0,0,1-.54.54v0a2.76,2.76,0,0,1-.54.54h0a3.45,3.45,0,0,1-.54.54v0a2,2,0,0,1-.56.53l0,0a1.64,1.64,0,0,1-.57.54l0,0c-.24.4-.76.3-1.06.58h0c-.28.35-.76.27-1.08.52l0,0c-.45.54-1.19.15-1.69.53l-.2,0-.19.07a21.1,21.1,0,0,1-7.35,0l-.19-.07-.21,0c-.5-.36-1.22,0-1.69-.49h0c-.42-.48-1.18,0-1.56-.58l0,0c-.32-.25-.82-.16-1.07-.54l0,0a3,3,0,0,1-.58-.49h0c-.27-.32-.8-.2-1-.6l0,0a1.35,1.35,0,0,1-.57-.54l0,0a1.48,1.48,0,0,1-.55-.56l0,0a1.48,1.48,0,0,1-.56-.55l0,0a1.48,1.48,0,0,1-.55-.56l0,0a1.48,1.48,0,0,1-.56-.55l0,0a1.48,1.48,0,0,1-.55-.56l0,0a1.35,1.35,0,0,1-.55-.56l0,0c-.39-.21-.25-.75-.63-1l0-.05a5,5,0,0,0-.45-.56h0c-.33-.26-.22-.76-.55-1h0c-.29-.3-.21-.77-.5-1.08v0c-.58-.65,0-1.55-.51-2.22,0-.49,0-1-.07-1.46a3.38,3.38,0,0,1,0-2.61.6.6,0,0,0,.05-.47c.53-.64,0-1.51.48-2.15a.55.55,0,0,0,.06-.43c.24-.35.19-.83.47-1.16h0c.34-.27.24-.74.5-1l0,0c.53-.38,0-1.15.58-1.53v0A2.26,2.26,0,0,1,183,220.57Z" fill="#979898" fill-rule="evenodd"/><path d="M85.56,167.56a1.17,1.17,0,0,1,1.22.13l2.79,1.9a7.85,7.85,0,0,0,2.19,1.35,2.23,2.23,0,0,1-.4.65,1.44,1.44,0,0,0-.25,2.09,7.36,7.36,0,0,0,.69.79c.6.78.6,1-.14,1.78-.55.56-1.16,1.06-1.74,1.59a2,2,0,0,0-.44,2.55,5.21,5.21,0,0,0,2.14,1.88,1.36,1.36,0,0,0,1.46-.1,22.22,22.22,0,0,1,2.29-1.27c1.11-.52,1.59-.38,2.18.61.31.53.57,1.09.84,1.63s.47.94.72,1.4c.91,1.75,2.13,3,4.32,2.33,1.19,2-.35,3.15-1.55,4.17-1.52,1.29-2.43,2.49-1.74,4.66a2.85,2.85,0,0,1-2,3.74c-1.88,1.4-1.89,1.42-4.19.8-1.07-.29-2.24-.37-3-1.33-.25-.3-.62-.22-1-.11a2.4,2.4,0,0,1-2.55-.84,5.84,5.84,0,0,0-2-1.68,2.42,2.42,0,0,1-1.22-1.63,22.29,22.29,0,0,0-2.37-5.76,10.43,10.43,0,0,0-1-1.17,3.07,3.07,0,0,1-.75-4,2.38,2.38,0,0,0,.25-1.71,4.77,4.77,0,0,1,0-1.55c.3-2.41.69-4.8.9-7.22a3.67,3.67,0,0,1,1.13-2.52C83.52,169.69,84.53,168.62,85.56,167.56Z" fill="#cdbfbd" fill-rule="evenodd"/><path d="M132.7,176.94a2.2,2.2,0,0,1-.44-.28,1.55,1.55,0,0,0-2.3-.17c-.91.67-1.87,1.29-2.79,1.94a1,1,0,0,1-1.39,0,32.88,32.88,0,0,1-4.43-4.89l1.61-2a1.89,1.89,0,0,0,0-2.42c-.66-1-1.43-1.77-2.82-1.27a5.84,5.84,0,0,1-1.57,0,2.33,2.33,0,0,1-2.09-.84,2.86,2.86,0,0,0-.55-.55c-1.86-1.26-2.16-3.26-2.5-5.23a1.67,1.67,0,0,1,.93-1.72c2.07-2.27,2.1-2.38,5.08-1.46,3.48,1.07,7.07,1.77,10.47,3.11a2.35,2.35,0,0,0,1.26,0,6.54,6.54,0,0,1,6.18,2.59,2.16,2.16,0,0,1,.58,2.4c-1.08,1.91-.79,4.07-1.37,6.06a4.79,4.79,0,0,1-1.31,2.47A11.25,11.25,0,0,1,132.7,176.94Z" fill="#cdbfbd" fill-rule="evenodd"/><path d="M92.45,133.35a5.16,5.16,0,0,1,5.65,5.25c.07,2.85-3.3,5.54-5.6,5.6s-5.32-2.73-5.26-5.55c0-1.83,1.32-3,2.27-4.27A2.93,2.93,0,0,1,92.45,133.35Z" fill="#d22e2f" fill-rule="evenodd"/><path d="M98.16,199.44a4.09,4.09,0,0,0,1.18-4.68c-.21-.74-.3-1.52-.45-2.33a11.66,11.66,0,0,0,1.83-1c.63-.46,1.09-1.13,1.71-1.61a2.89,2.89,0,0,0,1-3,6,6,0,0,1,1,0,3.72,3.72,0,0,1,3.39,4.56,2.26,2.26,0,0,1-1.45,2,2.39,2.39,0,0,1-.72.28c-1.88,0-2.85,1.45-4,2.55a2.13,2.13,0,0,0-.35,3.19.75.75,0,0,1-.74.53A4.41,4.41,0,0,1,98.16,199.44Z" fill="#fafdff" fill-rule="evenodd"/><path d="M110.25,139.91a3.3,3.3,0,0,1-3.1,3.21c-1.38-.09-2.62-1.71-2.59-3.38a2.85,2.85,0,1,1,5.69.17Z" fill="#d33430" fill-rule="evenodd"/><path d="M81.89,188.89a5.17,5.17,0,0,1,2.62,4.2,7.8,7.8,0,0,0,1,3.19,8.81,8.81,0,0,1-3.52-.7,1.59,1.59,0,0,1-1.22-1.5A11.54,11.54,0,0,1,81.89,188.89Z" fill="#f6f4f4" fill-rule="evenodd"/><path d="M65.67,193.74c-.16-.58.07-1.3-.63-1.67.2-.5.4-1,.59-1.49C66.61,191.62,66.17,192.68,65.67,193.74Z" fill="#d3d4d3" fill-rule="evenodd"/><path d="M74.52,144.91c-.32-.08-.54-.24-.56-.59A.75.75,0,0,1,74.52,144.91Z" fill="#c3c7ca" fill-rule="evenodd"/><path d="M129.68,110.75a35.27,35.27,0,0,1-6-1.22c-8.2-2-16.39-4.09-24.58-6.17a35.44,35.44,0,0,1-3.5-1.09A2.2,2.2,0,0,1,94,99.67a4.23,4.23,0,0,1,.16-1.29c.46-1.31.45-2.77,1.29-3.95,1.41-.36,2.7.23,4,.49,3.93.73,7.88,1.38,11.8,2.15,2.57.5,5.09,1.18,7.64,1.74q6.89,1.51,13.77,3a4.1,4.1,0,0,1,1.7.63.83.83,0,0,1,.33.65,32.7,32.7,0,0,1-1.29,5.58C132.55,110.71,132.55,110.78,129.68,110.75Z" fill="#cdbfbd" fill-rule="evenodd"/><path d="M95.51,74.1c0-.62,0-1.23,0-1.84a3.42,3.42,0,0,1,.84-2.43A34.31,34.31,0,0,1,99.91,66a4.81,4.81,0,0,1,4.92-.71,10.66,10.66,0,0,1,7.17,7.4c.93,3.18-.26,5-2.07,6.81a10.7,10.7,0,0,1-3.83,2.23,8.78,8.78,0,0,1-9.75-3.13,4.21,4.21,0,0,1-.84-2.45C95.52,75.49,95.51,74.79,95.51,74.1Z" fill="#cdbfbd" fill-rule="evenodd"/><path d="M128.57,79.77A8,8,0,0,1,129,77.2a4.73,4.73,0,0,1,3.5-3.18,15.52,15.52,0,0,1,2.55-.49,7,7,0,0,1,6.26,2.56,8,8,0,0,1,1.9,4.77A6.28,6.28,0,0,1,141.86,85a10.06,10.06,0,0,1-4.07,3.16,4.73,4.73,0,0,1-4.25-.28,9,9,0,0,1-4.39-4.3A8.64,8.64,0,0,1,128.57,79.77Z" fill="#cdbfbd" fill-rule="evenodd"/><path d="M163.74,91.61a19.31,19.31,0,0,1,1.59-7.9,10.56,10.56,0,0,1,1.13-2.06,1.79,1.79,0,0,1,1.54-.86,2.9,2.9,0,0,0,1,0c.56-.2,1.06-.7,1.71-.4a3.85,3.85,0,0,1,1.78,1.85,9.75,9.75,0,0,1,1,3.5,18.51,18.51,0,0,1-.89,8,7.21,7.21,0,0,1-3.07,4.1c-2.2,1.26-3.81.8-5.18-1.63a5.4,5.4,0,0,1-.67-2.51C163.73,93,163.74,92.31,163.74,91.61Z" fill="#d22e2f" fill-rule="evenodd"/><path d="M132.35,46.71a14,14,0,0,1,6,1.45,3.91,3.91,0,0,1,1.84,2.09,2.88,2.88,0,0,1-1.12,3.89c-1.72,1.31-3.62,2.36-6,2.07a8.56,8.56,0,0,1-3.2-1A5.32,5.32,0,0,1,127.06,49a1.93,1.93,0,0,1,.67-1.09C129.07,46.82,129.57,46.66,132.35,46.71Z" fill="#cdbfbd" fill-rule="evenodd"/><path d="M134,225.59a2.79,2.79,0,0,1,2.55.94.56.56,0,0,1,0,.88.67.67,0,0,1-.92.12A3.59,3.59,0,0,1,134,225.59Z" fill="#8b8c8c" fill-rule="evenodd"/><path d="M139.08,122.25c2.62,0,5.12.81,7.69,1.15a5.74,5.74,0,0,1,1.59.82c.46.22,1.19.14,1.29.72.13.76-.73.83-1.15,1.2a.78.78,0,0,1-1.16-.1c-1.41-1.64-3.52-1.79-5.34-2.53a1.5,1.5,0,0,0-1.26.07c-.86.4-1.28-.14-1.68-.76a.38.38,0,0,1-.12-.38C139,122.31,139,122.25,139.08,122.25Z" fill="#949394" fill-rule="evenodd"/><path d="M139.08,122.25c0,.19,0,.38,0,.57a135,135,0,0,1-14.27-2.88,1.48,1.48,0,0,1,1.35-.25c3.38.83,6.88,1,10.22,1.94C137.26,121.9,138.32,121.4,139.08,122.25Z" fill="#858787" fill-rule="evenodd"/><path d="M48.63,197.43c-.14.08-.28.24-.39.22-.41-.07-.49-.39-.4-.74,0-.1.25-.25.33-.22A.59.59,0,0,1,48.63,197.43Z" fill="#858585" fill-rule="evenodd"/><path d="M164.43,96.17a5.39,5.39,0,0,0,1.31,3.09,3.19,3.19,0,0,0,3.78,1,5.58,5.58,0,0,0,3.09-2.7,16.66,16.66,0,0,0,1.06-12.69,4.48,4.48,0,0,0-1.18-2,2.61,2.61,0,0,0-.81-.65,1.39,1.39,0,0,0-2,.65,5.13,5.13,0,0,0,.87.56,3.15,3.15,0,0,1,2,2.55,16.19,16.19,0,0,1-.85,10.25,4.51,4.51,0,0,1-1.8,2.18,2.37,2.37,0,0,1-3.69-1.09,5.9,5.9,0,0,1-.42-1.49,18.91,18.91,0,0,1,.93-9,6.2,6.2,0,0,1,2.16-3.48.38.38,0,0,0,0-.64.7.7,0,0,0-.49-.11,2.7,2.7,0,0,0-1.85,1.7A21.22,21.22,0,0,0,164.43,96.17Z" fill="#4f2808" fill-rule="evenodd"/><path d="M162.23,71.27a8.85,8.85,0,0,0,2.53-1.76,5,5,0,0,0,.38-.6c-.06-.13-.08-.23-.14-.26s-.33-.17-.46-.13a5.65,5.65,0,0,0-2.7,1.91.46.46,0,0,0-.1.24,1.93,1.93,0,0,0,.08.48C161.88,71.37,162,71.39,162.23,71.27Z" fill="#250d08" fill-rule="evenodd"/><path d="M100.49,59.92c2,.71,3.93,1.46,5.93,2.07a115.47,115.47,0,0,0,16.64,3.58,168.54,168.54,0,0,1,24.71,5.79,110.88,110.88,0,0,0,10.88,2.72.52.52,0,0,0,.42-.23.64.64,0,0,0,.07-.49,1.33,1.33,0,0,0-1.14-.92,53.68,53.68,0,0,1-5.86-1.4c-4.34-1.35-8.63-2.83-13-4s-8.65-2.15-13-2.86a168.49,168.49,0,0,1-20.75-4.37c-1.5-.45-3.07-.66-4.46-1-.46.13-1,0-.87.53A.83.83,0,0,0,100.49,59.92Z" fill="#250d08" fill-rule="evenodd"/><path d="M142.83,76.63a4.11,4.11,0,0,0-1.67.7c-1.27.76-2.56,1.49-3.82,2.27a1,1,0,0,1-1.39-.14c-1-1-2-1.94-3-2.89-.63-.59-1.28-1.18-2-1.73a.81.81,0,0,0-1,0,1,1,0,0,0-.42.9,4.54,4.54,0,0,0,.9,2.42c.86,1.3,1.74,2.59,2.74,4.07-1.05.79-2,1.45-2.84,2.17a1.62,1.62,0,0,0-.43,2.1,1.53,1.53,0,0,0,1.84.56,29.38,29.38,0,0,0,3.12-1.31,1.38,1.38,0,0,1,1.86.32c.41.45.84.87,1.29,1.29.9.82,1.81,1.64,2.74,2.42a1,1,0,0,0,1,.24,2.29,2.29,0,0,0,1.48-3.45,8,8,0,0,0-1-1.17c-.66-.77-2-1.21-1.88-2.3s1.62-1.14,2.41-1.81a4,4,0,0,1,.66-.41,4,4,0,0,0,1.27-1.3,1.87,1.87,0,0,0,.15-2A2,2,0,0,0,142.83,76.63Z" fill="#4f2808" fill-rule="evenodd"/><path d="M125.89,111.77c1.69.42,3.4.79,5.11,1.1s2.18,0,2.86-1.57a21.59,21.59,0,0,0,1-3c.25-.83.4-1.7.57-2.55.08-.4.58-.78.22-1.18a3.54,3.54,0,0,0-1.07-.7,4.86,4.86,0,0,0-1-.32c-4.08-.87-8.22-1.6-12.26-2.65-7.95-2.06-16.07-3.27-24.1-4.91-1-.21-1.31-.11-1.57.79a22.59,22.59,0,0,0-1.09,4.88c0,1.48.23,2,1.44,2.39,1.48.52,3,1,4.5,1.39q12.69,3.18,25.39,6.3Zm-29.29-9h0c-.88-.23-1.08-.47-.84-1.26.41-1.32.45-2.75,1.13-4,1.41-.2,2.7.36,4,.62,3.77.72,7.56,1.4,11.32,2.17,2.22.45,4.41,1,6.62,1.56,4.76,1.11,9.52,2.19,14.28,3.29.64.15.91.51.76,1.13-.35,1.35-.75,2.69-1.12,4-.15.53-.53.63-1.37.55-.24-.05-.83-.18-1.43-.29-6.69-1.3-13.24-3.15-19.88-4.67-4.17-1-8.33-1.94-12.49-2.91C97.28,103,96.93,102.9,96.6,102.81Z" fill="#4f2808" fill-rule="evenodd"/><path d="M96.73,79.34a8.52,8.52,0,0,0,4.11-.53c.86-.36,1.7-1.31,2.62-.87s1.34,1.32,2,2a18,18,0,0,0,3,2.91,2.3,2.3,0,0,0,.93.45c.8.11,2.23-1.42,2.12-2.26a4.29,4.29,0,0,0-1.38-2.42c-3.32-3.49-3.35-2.66,1-5,.54-.29,1.12-.49,1.65-.79A6.71,6.71,0,0,0,114,72a2,2,0,0,0,.2-2.82,1.73,1.73,0,0,0-2.28-.71c-.95.45-1.89.89-2.82,1.37-1.25.63-2.47,1.31-3.71,1.94-1,.51-1.22.46-2-.44-.64-.72-1.21-1.49-1.85-2.2-.82-.91-1.65-1.81-2.52-2.66A3.35,3.35,0,0,0,98,65.8c-.55-.23-1.35.45-1.17,1a11.09,11.09,0,0,0,.86,1.89c1.06,1.89,2.17,3.77,3.24,5.63a10,10,0,0,1-4.31,2.94,7.86,7.86,0,0,0-.94.41.72.72,0,0,0-.07,1.12A2,2,0,0,0,96.73,79.34Z" fill="#4f2808" fill-rule="evenodd"/><path d="M107.84,145a3.52,3.52,0,0,0,3.34-3.4,3.06,3.06,0,0,0-2.83-2.91c-2,0-3.21,1.1-3.23,3a3.24,3.24,0,0,0,2.72,3.32Zm-1-4.25h0c.18-.31.5-.48,1.18-.41a5.92,5.92,0,0,1,.88.46,1.23,1.23,0,0,1-1,2.19A1.57,1.57,0,0,1,106.82,140.77Z" fill="#4f2808" fill-rule="evenodd"/><path d="M93.18,146.1a6.07,6.07,0,0,0,5.7-5.77C98.83,137,96.56,135,93,135a3.33,3.33,0,0,0-2.84,1c-1.06,1.35-2.44,2.63-2.35,4.54a5.78,5.78,0,0,0,5.35,5.49ZM90.58,139h0c.34-.09.71-.15.81-.53.26-.93,1-.79,1.69-.81a5.09,5.09,0,0,1,2,.33,2.51,2.51,0,0,1,1.49,3,3.53,3.53,0,0,1-6.83-.28C89.68,140,89.69,139.24,90.58,139Z" fill="#4f2808" fill-rule="evenodd"/><path d="M212.25,227c-2.27-5.63-6-9.77-12.09-11.43-.49-.13-1.06-.06-1.45-.49s0-.83.09-1.24a10.45,10.45,0,0,0-.18-5.18c-.36-1.08-.55-2.2-.9-3.28q-3.79-11.58-8.31-22.91c-.8-2-1.65-4-2.35-6.11a264.86,264.86,0,0,0-10-25.34,3.41,3.41,0,0,1-.24-2c.25-1.73.42-3.47.54-5.21a96.33,96.33,0,0,1,1.77-14.56,3.18,3.18,0,0,0-2.3-4.07,21.47,21.47,0,0,0-2.55-.59,75,75,0,0,0-8.84-1c-.38,0-.88.14-1.12-.37.26-.67.89-.84,1.42-1.07,3-1.26,5.78-2.88,8.65-4.36a4.27,4.27,0,0,0,2.45-3.16c.4-2,.89-3.92,1.39-5.86,1.29-4.9,2.64-9.78,3.49-14.79,1.16-6.89,2.51-13.75,3.95-20.59a139,139,0,0,0,2.56-14.18,16.26,16.26,0,0,0-.18-6,2.34,2.34,0,0,0-1.63-1.89c-2.46-.58-4.75-1.73-7.32-2a61.7,61.7,0,0,1-9.06-1.45,93.81,93.81,0,0,0-9.25-1.8c-2.6-.37-5.2-.68-7.79-1.07-4-.6-7.84-1.79-11.76-2.65-.49-.1-1.06-.1-1.42-.66.07-.29.13-.63.24-1a118.49,118.49,0,0,1,5.76-14.9l.47-.94a1.37,1.37,0,0,1,1.46-.88c.26,0,.52.07.78.09a11,11,0,0,0,9.93-4.8,12.3,12.3,0,0,0,1.8-11.91,9.67,9.67,0,0,0-5.5-6,13.3,13.3,0,0,0-4.85-1,9.27,9.27,0,0,0-7.6,3.44,25.7,25.7,0,0,0-1.8,2.57,9.65,9.65,0,0,0-1.42,3.07C138,14,138.91,18,142.23,21.3a1.53,1.53,0,0,1,.37,2.06,89.1,89.1,0,0,0-4.5,10.89c-.69,2-1.39,4-2,6-.22.7-.59,1-1.32.93-.35,0-.7-.07-1-.14-4.3-.82-8.67-1.06-13-1.52a21.65,21.65,0,0,0-5.39.3,43.16,43.16,0,0,0-8.54,2.41c-1.56.56-3.12,1.14-4.72,1.57A107.71,107.71,0,0,0,86.7,49a10.32,10.32,0,0,0-2.26,1.29,2,2,0,0,0-.9,2,10.68,10.68,0,0,1-.35,4.39,159.3,159.3,0,0,0-2.74,16.54c-.67,6-1.14,12-1.71,18-.26,2.7-.45,5.41-.86,8.08-.56,3.71-1.28,7.4-2,11.09a7.37,7.37,0,0,0-.2,2.33,1.55,1.55,0,0,0,1.85,1.34,4,4,0,0,1,2,0l14,3.54a11.33,11.33,0,0,1,1.26.37c.33.13.83,0,1,.6a5.74,5.74,0,0,1-.94.5c-3.24,1-6.48,2.09-9.74,3.08a17.66,17.66,0,0,1-4.64.83,2.6,2.6,0,0,0-2.84,2.71,70.94,70.94,0,0,1-1.41,9.05,9.21,9.21,0,0,1-1.39,3.36c-1.29,2-2.59,3.94-3.75,6a4.85,4.85,0,0,1-2.68,2.25c-4,1.55-7,4-7.55,8.57a2.21,2.21,0,0,1-1.35,1.77c-1.09.57-2.13,1.22-3.17,1.86a18.65,18.65,0,0,0-4.06,3.29A21.14,21.14,0,0,0,50.7,164a.5.5,0,0,0,.09.45.45.45,0,0,0,.44.06c.49-.5.92-1,1.41-1.55a15.11,15.11,0,0,1,7.49-4.08.82.82,0,0,1,.94.25,1,1,0,0,1,.13,1.22c-.25.45-.53.9-.81,1.34-4.7,7.48-9.48,14.9-14.52,22.16a2.51,2.51,0,0,1-2.1,1.2,17.53,17.53,0,0,0-10.56,4.75,10.43,10.43,0,0,0-3.26,5c-.12.42-.25.83-.38,1.26a1,1,0,0,1-1.17.79,21.14,21.14,0,0,1-3.08-.56c-3.26-1-6.51-2-9.75-3.07a8.1,8.1,0,0,1-2.14-1,2.79,2.79,0,0,0-2.72-.21,84.83,84.83,0,0,1-8.27,2.53,1.56,1.56,0,0,0-1.28,1.46c-.07.52-.1,1-.15,1.56a137.42,137.42,0,0,0-.16,15.72c.1,5.68.44,11.35.67,17,.12,3,.19,5.94.35,8.9.25,4.63.75,9.24.71,13.88a29.83,29.83,0,0,0,.15,3.41A1.54,1.54,0,0,0,4.87,258a2.45,2.45,0,0,1,2,.2A62.22,62.22,0,0,0,18.55,262c1.95.47,3.87,1,5.81,1.58a2.59,2.59,0,0,1,1.44,1c1.07,1.39,1.31,1.44,2.77.45,2.83-1.91,5.6-3.89,8.4-5.85a3.89,3.89,0,0,0,1.42-1.51,5.76,5.76,0,0,1,2.38-2.36c1.53-1,3.08-2,4.64-3A181.06,181.06,0,0,0,67,237.08c.26-.22.56-.52.91-.22a1.07,1.07,0,0,1,.3.67c.27,3.05.52,6.1.79,9.14.59,6.71,1.21,13.41,1.79,20.11.1,1.22,0,2.45.07,3.67a2,2,0,0,0,1.67,2.07c.58.16,1.19.24,1.8.35a122.3,122.3,0,0,1,20.87,6,20.63,20.63,0,0,1,2.15.95.81.81,0,0,1,.34,1.12h2.62a10.15,10.15,0,0,1,2.51-1.35c1.14-.65,2.29-1.27,3.43-1.92a3.23,3.23,0,0,0,1.71-1.91,4.44,4.44,0,0,1,1.69-2.24c1.15-1.07,2.31-2.14,3.37-3.29,2.9-3.16,6-6.12,9.12-9.06,4.38-4.15,8.72-8.36,11.91-13.56a4,4,0,0,1,2-1.6,50.09,50.09,0,0,0,4.95-2.39c4.57-2.57,9.09-5.23,13.64-7.84,2-1.14,3.91-2.32,5.93-3.36a6.54,6.54,0,0,0,3.72-5.61c.21-2.08.46-4.17.76-6.24q1.59-11.16,3.26-22.31c.05-.38-.06-.87.65-1.06a11.86,11.86,0,0,1,.63,1.06c.9,2,1.85,4,2.67,6,2,4.85,4,9.7,5.85,14.59a7.76,7.76,0,0,0,3.72,4.51,5,5,0,0,1,.86.7,20.11,20.11,0,0,0-2.25,9.11,13.37,13.37,0,0,0,4.1,10.41c5,4.76,14.94,6.72,21.58,1.83a18.6,18.6,0,0,0,6.56-8.94,12.86,12.86,0,0,0-.4-9.47ZM197.8,243.39h0a17.29,17.29,0,0,1-8.37-1.72,9.07,9.07,0,0,1-5.18-7.37,19.34,19.34,0,0,1,.79-9,1.26,1.26,0,0,1,1.32-1,9.24,9.24,0,0,0,5.36-1.81,11.85,11.85,0,0,0,1.52-1c1.1-1,2.27-1.64,3.38-1.27a10.75,10.75,0,0,1,9,3.78,15.4,15.4,0,0,1,3.66,6.56,6.47,6.47,0,0,1-.16,4.1c-.07.16-.09.34-.15.5-1.88,5.22-5.47,8.16-11.13,8.29Zm-37.14-18.68h0c-.55,3.77-.54,3.12-3.12,4.58-3.88,2.2-7.72,4.47-11.57,6.72a17.66,17.66,0,0,1-3.52,1.8,6.51,6.51,0,0,1,0-2.68c.12-1.39.24-2.78.33-4.17,0-.14-.18-.41-.23-.4-.23.06-.6.14-.64.29-.26.93-.45,1.87-.65,2.81-.32,1.53-.62,3.08-.95,4.61-.11.51-.22,1-.79,1.28-.24.1-.5.31-.71.26-.46-.1-.3-.52-.25-.83a8.46,8.46,0,0,1,.26-1A11.62,11.62,0,0,0,138,229a10.81,10.81,0,0,0-9-6.35,16.55,16.55,0,0,0-10.58,2.17,59.1,59.1,0,0,0-11.8,8.67c-.35.34-.66.85-1.3.73-.08-.14-.23-.26-.25-.41-.19-1.56-.42-3.12-.54-4.68a79.6,79.6,0,0,1-.11-12.06,11.2,11.2,0,0,0-.89-4.32,2.33,2.33,0,0,0-1.81-1.38c-1.43-.38-2.88-.72-4.31-1.11-5.47-1.51-10.94-3-16.42-4.52-1.18-.32-2.37-.61-3.57-.86s-2.11.69-3.22.9c-2,.37-3.83,1.22-5.84,1.39-.48-.32-.27-.76-.21-1.17q1-6.75,2-13.49c.12-.86.2-1.73.25-2.61a9.24,9.24,0,0,1,1.15-4.26c.73-1.24.66-2.68.88-4,1-6,1.66-12,2.24-18A106.37,106.37,0,0,1,77.14,149c.25-1.05.41-1.16,1.42-1a15.64,15.64,0,0,1,6.82,3.19,2.16,2.16,0,0,1,.86,2.71c-.62,1.82-1.13,3.67-1.64,5.52A127,127,0,0,0,81,178.74c-.58,5-1.57,9.84-2.46,14.74a24.46,24.46,0,0,0-.81,4.9,1.8,1.8,0,0,0,.79,1.55c.39.28.8.5,1.19.21,1-.71,1.68-.37,2.55.27a6.29,6.29,0,0,0,2.22.7c1.36.35,2.74.6,4.07,1a131.71,131.71,0,0,0,17.68,3.75c7.33,1.16,14.67,2.3,21.93,3.93,2.38.53,3.89-.52,4-3a54.89,54.89,0,0,1,.65-5.73q1.05-6.6,2.17-13.19a7.91,7.91,0,0,1,.4-1.52c.15-.4.51-.42.84-.2a7.66,7.66,0,0,1,2.21,2.22,16.64,16.64,0,0,1,2.41,11.05.84.84,0,0,1-.88.79,6.33,6.33,0,0,0-4,1.75,4.21,4.21,0,0,0-1,4.38,2.79,2.79,0,0,0,3.64,1.68,5.12,5.12,0,0,0,2.46-1.9c.44-.64.85-1.31,1.42-2.18a13.82,13.82,0,0,1,1.36.48c2.13,1,2.15,1.08,1.81,3.39-.58,3.89-1.23,7.77-1.7,11.67-.31,2.52-.37,5.06-.53,7.59a.53.53,0,0,0,.34.61c.55.15.5-.35.54-.63.54-3.28,1.07-6.55,1.57-9.84.42-2.76.8-5.53,1.2-8.3a1.78,1.78,0,0,1,.58-1.22,6.72,6.72,0,0,1,2.11,2.56c1.76,2.75,3.1,5.68,2.76,9.09,0,.29,0,.52.36.51a.52.52,0,0,0,.36-.29,5.9,5.9,0,0,0,.33-3.09,40.87,40.87,0,0,0-1.52-6.36,12.33,12.33,0,0,0-3.07-5.42,3.14,3.14,0,0,1-1-3.06c.45-3,.86-6.05,1.25-9.09.86-6.5,1.88-13,2.46-19.51.27-3.13.72-6.25,1.09-9.37a1.2,1.2,0,0,1,.14-.5.63.63,0,0,1,.36-.31.46.46,0,0,1,.34.28c1.58,6.27,4.72,11.81,8.09,17.24a14.25,14.25,0,0,1,.88,1.9c.1.24.16.5.26.74a35.56,35.56,0,0,1,2.13,5.62c.41,2-.4,4-.56,6a64.2,64.2,0,0,1-.57,7.05c-.5,2.57-.75,5.19-1.22,7.77-.87,4.82-1.36,9.69-2,14.54,0,.26,0,.52-.08.78Zm-52,43.86h0c-.33-.08-.33-.38-.36-.62-.36-3.46-.71-6.93-1.07-10.4s-.7-6.76-1-10.14c-.11-1.11-.14-2.24-.23-3.89a15.15,15.15,0,0,1,5.57,6.15,49.63,49.63,0,0,1,3.42,10.94,2.5,2.5,0,0,1-.78,2.58c-1.69,1.64-3.26,3.4-4.87,5.12a.65.65,0,0,1-.66.26Zm7.57-7.94h0c-.39-1.95-.72-3.92-1.21-5.85a36.71,36.71,0,0,0-1.34-3.95A17.13,17.13,0,0,0,107,242.6l-.42-.3c-1.25-.94-1.3-1.54-.24-2.77a11.63,11.63,0,0,1,.91-.95c1.19-1.16,2.4-2.29,3.56-3.47a4.06,4.06,0,0,1,4.79-.93,9.82,9.82,0,0,1,4.29,3.31,22.09,22.09,0,0,1,2.52,4.27,46.36,46.36,0,0,1,2.38,6.92,18.66,18.66,0,0,1,.38,2.58,2.07,2.07,0,0,1-.59,1.68,98.13,98.13,0,0,1-7.9,7.63c-.11.09-.33,0-.5.06ZM127,250.24h0a.41.41,0,0,1-.64-.17,11.11,11.11,0,0,1-.33-1.52,28.38,28.38,0,0,0-1.59-6.6,23.63,23.63,0,0,0-3-5.21,11.75,11.75,0,0,0-5.57-4.18,7.26,7.26,0,0,1-1-.56,28.13,28.13,0,0,1,6.82-3.84,15.22,15.22,0,0,1,8.77-.32c2.87.63,5.72,4.78,4.8,8.28a19,19,0,0,1-1.17,3.19,49,49,0,0,1-6.41,10.17,4,4,0,0,1-.72.76ZM66.55,233.52h0a37.44,37.44,0,0,0-3.61,2.12c-1.3.8-1.85,1.22-2.13-.85a31.66,31.66,0,0,0-1.17-4.55A15.91,15.91,0,0,0,53,221.42c-.5-.33-1-.69-1.46-1a1.36,1.36,0,0,1,.75-.79,76.3,76.3,0,0,1,10-4,23,23,0,0,1,3.08-.61c.61-.11,1,.17,1.11.81a9.29,9.29,0,0,1,.17,1.29c.35,4.79.68,9.58,1,14.37a1.74,1.74,0,0,1-1.11,2ZM37.47,251.46h0c-.33-1.89-.63-3.78-.95-5.67-.81-4.74-1.3-9.51-1.69-14.29,0-.69.32-1,1-.82A11.21,11.21,0,0,1,42.15,235a19.35,19.35,0,0,1,3.51,9.91v1.38a1.73,1.73,0,0,1-.82,1.54c-2.13,1.37-4.25,2.74-6.39,4.1a.65.65,0,0,1-1-.48ZM27.36,259.9h0a2.21,2.21,0,0,1-.59-1.68c-.13-3.06-.35-6.11-.39-9.16-.1-6.83-.58-13.62-1-20.43-.34-5.41-.87-10.8-1.29-16.2-.15-1.83-.42-3.65-.67-5.46a5.64,5.64,0,0,0-.48-1.49.86.86,0,0,0-.83-.54c-.45,0-.54.36-.55.72a10.26,10.26,0,0,0,.06,1.57c.59,4,1,8,1.25,12,.48,6.71,1,13.43,1.35,20.14.36,6,.61,12.05.9,18.07a12.61,12.61,0,0,1-.09,1.36c-2.74-.69-5.26-1.37-7.81-1.95-3.24-.74-6.49-1.41-9.74-2.07a1.15,1.15,0,0,1-1.05-1.25c0-1.31,0-2.63,0-3.94-.31-5.75-.68-11.51-1-17.27-.16-3.23-.09-6.47-.26-9.7-.23-4.45-.32-8.9-.8-13.34-.36-3.39-.5-6.8-.73-10.2a5.27,5.27,0,0,1,0-1.05.56.56,0,0,1,.75-.49c.67.18,1.32.43,2,.66,3.64,1.23,7.27,2.49,10.92,3.7,1.6.53,2.61.39,2.51-.22-.19-1.11-1.22-1.13-2-1.4-2.74-.91-5.49-1.75-8.24-2.62-.25-.08-.49-.19-.73-.28s-.3-.22-.21-.4.15-.34.28-.39c1-.38,2-.74,2.94-1.1a3.48,3.48,0,0,1,2.07,0,117.4,117.4,0,0,1,11.8,3.48c.41.15.82.32,1.21.5a3.83,3.83,0,0,1,2.41,3.66c.22,7.6,1.09,15.16,1.27,22.77a128.15,128.15,0,0,0,1.25,14.88c.66,4.68,1.34,9.34,2.32,14a1.69,1.69,0,0,1-.71,2c-1.67,1.1-3.31,2.27-5,3.4-.47.32-.82.05-1.15-.25Zm9.08-67.48h0a34.84,34.84,0,0,1,6.89-3.75.48.48,0,0,1,.73.44c0,1,0,1.93,0,2.89a9.78,9.78,0,0,0,2.75,6.88,24.79,24.79,0,0,0,3.93,3.45A9.11,9.11,0,0,0,54.53,204a6.65,6.65,0,0,1,1.08.33,4.85,4.85,0,0,1-2.16,2.6,15.65,15.65,0,0,1-15.51.9c-6.11-2.81-6.31-12-1.5-15.4ZM83,127.68h0a8.09,8.09,0,0,1,1.53.29c3.73.95,7.42,2,11.17,2.83,5.12,1.12,10.29,2,15.42,3.09,12,2.49,23.92,5.07,35.77,8.12,1.27.33,2.57.53,3.86.74.31.05.77.05.79-.43a.82.82,0,0,0-.34-.62,7.8,7.8,0,0,0-3.1-1.33c-6-1.4-11.89-2.87-17.86-4.17-8.2-1.78-16.38-3.63-24.64-5.08-5.59-1-11.18-2-16.68-3.43l-2.38-.64a2.25,2.25,0,0,1,1.52-.91c3.91-1.24,7.84-2.44,11.74-3.71a17.53,17.53,0,0,0,3.63-1.49,4,4,0,0,1,3.5-.36c.41.14.82.25,1.33.4a5.1,5.1,0,0,1-.29,2.55,14.3,14.3,0,0,0-.37,3.12,2.21,2.21,0,0,0,1.22,2.16,19.08,19.08,0,0,0,3.1,1.39c5.08,1.61,10.19,3.12,15.4,4.25,2.9.63,5.81,1.2,8.72,1.8.43.09.85.21,1.28.27a3.63,3.63,0,0,0,4.37-2.76,12.35,12.35,0,0,0,.54-5c2.1.3,3.93.54,5.09,2.4.46.74.83.76,1.55.27,2.7-1.79,5.6-3.23,8.43-4.79a3.93,3.93,0,0,1,3.24-.36,101.26,101.26,0,0,0,13,3.06c.24,0,.58.09.51.43a1,1,0,0,1-.43.58c-2.06,1.32-4.18,2.54-6.2,3.92a40.69,40.69,0,0,1-5.29,3.4,8.92,8.92,0,0,0-1.67,1.24.66.66,0,0,0-.18.47c0,.13.13.27.23.39s.18,0,.25,0a36.19,36.19,0,0,0,5.59-2.83,51.47,51.47,0,0,1,6.28-3.81,2.67,2.67,0,0,1,1.61-.53c.44,2.12-.33,4.21-.39,6.32a38.68,38.68,0,0,1-.67,6.69c-1.35-.76-2.58-1.38-3.72-2.14a6.08,6.08,0,0,0-5.26-.77,13.7,13.7,0,0,0-8.73,7.39,8.53,8.53,0,0,1-1.43,2.77c.09-1,.18-1.76.22-2.54s.07-1.58.07-2.36a20.75,20.75,0,0,0-.07-2.09c0-.22-.19-.54-.36-.59-.51-.15-.52.32-.54.62-.45,7.69-1.55,15.3-2.54,22.93q-1.92,15-3.85,29.9c-.13,1-.36,2.06-.58,3.32-.42-.12-.67-.2-.92-.26-1.68-.44-2.35-1.39-2.21-3.22a19.21,19.21,0,0,0-1.34-7.69,12.23,12.23,0,0,0-4.93-6.59,1.76,1.76,0,0,1-.86-2.18c.55-2.29,1-4.61,1.58-6.89a53.13,53.13,0,0,0,1.31-7.49,4.92,4.92,0,0,1,.68-2.18,2.37,2.37,0,0,0-1.62-3.6,7,7,0,0,0-1.3-.09,38.3,38.3,0,0,1-9-1.49,98.74,98.74,0,0,0-17.43-3.65c-.34,0-.69-.08-1-.13a.71.71,0,0,1-.64-.93c1.45-7.88,8.55-10.54,14.37-8.3a4.13,4.13,0,0,1,.81.55c-.14,1-1,1.24-1.46,1.86a4,4,0,0,0-.5,4.43,2.15,2.15,0,0,0,3.3.91,4.87,4.87,0,0,0,2.44-4.09c.06-1.17.36-1.39,1.46-1.17a16.45,16.45,0,0,1,8.83,4.27,3.56,3.56,0,0,0,.56.54c.11.08.35.12.43,0s.21-.36.15-.45a5.23,5.23,0,0,0-.88-1.27c-3.11-2.9-6.44-5.41-10.89-5.75a1.91,1.91,0,0,1-1.39-.63c-2.76-3.2-9.19-3.08-12.9-.61a12.92,12.92,0,0,0-5.59,7.65c-.14.51-.21,1-.35,1.53-.2.77-.49,1-1.32.93-1.82-.22-3.64-.43-5.44-.81-2.22-.47-4.4-1.1-6.6-1.65a12.46,12.46,0,0,0-1.78-.43,7.85,7.85,0,0,1-5.53-3,12.9,12.9,0,0,0-6-3.56l-1.75-.55a.78.78,0,0,1-.56-1c.09-.43.14-.86.23-1.29q1.48-7.32,3-14.64c.23-1.16.62-1.48,1.77-1.43Zm-1.93-16h0c-1.21-.19-1.36-.35-1.19-1.5s.38-2.6.69-3.87a94.43,94.43,0,0,0,1.82-13c.55-6,1.06-12,1.66-18,.26-2.6.66-5.2,1.07-7.79.52-3.37.86-6.76,1.08-10.16,0-.44.08-.87.14-1.3.13-.73.46-.94,1.05-.55C89,56.66,91,57,92.77,57.62a1.29,1.29,0,0,0,.75,0,.61.61,0,0,0,.33-.37.59.59,0,0,0-.07-.47,1.9,1.9,0,0,0-.6-.49c-.62-.32-1.27-.59-1.88-.93-1-.56-2.45-.39-3-1.72.77-.91,1.94-1.06,2.93-1.52A46.63,46.63,0,0,1,98.9,49.5c3-.79,6-1.77,9-2.85.66-.24,1.29-.56,2-.75a24.8,24.8,0,0,0,8.27-3.84,1.7,1.7,0,0,1,1.7-.26,114.39,114.39,0,0,0,13.81,4.06.75.75,0,0,1,.65,1,17.84,17.84,0,0,0-.44,5.2c0,.69,0,1.46.89,1.71.69.19,1.35-.22,1.74-1.26.58-1.55,1-3.15,1.57-4.71.28-.82.57-1,1.34-.87,2,.41,3.93.84,5.87,1.33a93.36,93.36,0,0,0,12.62,2.32,103.76,103.76,0,0,1,12.37,2.23,61.14,61.14,0,0,0,8.27,1.34,14.79,14.79,0,0,1,5.12,1.39,59.05,59.05,0,0,1-5.43,4.21c-1.06.77-2.12,1.53-3.15,2.35a11.42,11.42,0,0,0-1.46,1.49c-.39.45-.44,1.36-.14,1.44.51.12.74-.32,1.08-.56.92-.67,1.83-1.36,2.79-2a59.61,59.61,0,0,0,5.78-4.08c.4-.32.86-.57,1.27-.85.58.38.29.8.22,1.17-1.78,9-3.62,18-5.33,27-.93,4.9-1.59,9.84-2.83,14.67-.91,3.55-1.82,7.1-2.79,10.64-.31,1.09-.08,2.47-.9,3.22s-1.93.72-2.87,1.16c-2.38,1.1-4.75,2.21-7.08,3.41-3.34,1.73-6.63,3.54-9.94,5.3a2.65,2.65,0,0,1-1.46.53,3.16,3.16,0,0,1-.06-2.3c.69-4.22,1.31-8.46,2.19-12.65,1.74-8.3,3-16.67,4.09-25.08.21-1.64.54-3.27.79-4.91a9.16,9.16,0,0,0,0-1.57c0-.24-.11-.57-.44-.52a1.09,1.09,0,0,0-.62.38,5,5,0,0,0-.79,2.2c-.24,1.19-.4,2.41-.58,3.62-.9,6.14-1.67,12.3-2.73,18.41-.88,5.07-2.05,10.1-2.81,15.19-.35,2.34-.61,4.68-.93,7-.11.83-.39,1-1.24.85a24.65,24.65,0,0,1-2.53-.64,65.62,65.62,0,0,0-10.18-2.45c-6.3-1-12.45-2.73-18.66-4.18-6.55-1.53-13.08-3.12-19.74-4.15-4.83-.74-9.69-1.29-14.54-1.93-.52-.07-1.05-.1-1.57-.18ZM143.42,7.85h0a2.17,2.17,0,0,1,.66-.79A10.16,10.16,0,0,1,154.5,6.4,5.45,5.45,0,0,1,157,10.22a8.48,8.48,0,0,1-2,7.06A4.9,4.9,0,0,1,152.09,19c-.85.18-1.73.24-2.24.3-3.58,0-5.79-1.29-6.78-4a10.21,10.21,0,0,1,.35-7.41Zm-4.24,119.89h0c-.3,1.18-.53,2.18-.82,3.17a.92.92,0,0,1-1.21.67c-2.9-.61-5.81-1.18-8.72-1.78A156.81,156.81,0,0,1,113,125.61c-1.27-.4-1.31-.54-1.31-1.88a9.5,9.5,0,0,1,.08-1.31c0-.15.16-.29.31-.55,3,.43,5.89,1.3,8.84,2s6.11,1.48,9.18,2.14,6,1.16,9,1.74Zm36.41,30.7h0a43.19,43.19,0,0,0-15.84,9,12.89,12.89,0,0,1-2.24-5.52,15.53,15.53,0,0,1,.9-8.5,18.32,18.32,0,0,1,3.37-5.87,3.68,3.68,0,0,1,2.77-1.24,6.58,6.58,0,0,1,5,1.87,23.68,23.68,0,0,1,5.79,8.63,2.07,2.07,0,0,1,.27,1.6Zm-49.23,11.81h0c-.91-1.07-1.86-2.09-2.77-3.15a1.94,1.94,0,0,0-2.07-.78l-.26.05c-3.47.26-3.8-.09-3.56-3.76a10.79,10.79,0,0,1,3.27.74c2.61.69,5.22,1.44,7.83,2.12a1.32,1.32,0,0,1,1.15,1.21c.36,2.54,2,3.78,4.47,4.09.33,1.55-.49,2.88-.69,4.53-2.18-.8-2.18-.8-3.93.39l-1.3.89c-1.37.95-1.34,1-2.55-.33-.67-.75-.65-.91,0-1.77.16-.2.36-.38.52-.58,1.16-1.51,1.14-2.15-.15-3.65Zm-5.89,32.86h0a4.65,4.65,0,0,1-1,.09q-6.33-1-12.66-2.11a11.33,11.33,0,0,1-1.52-.4c-.39-.12-.48-.48-.51-.84a.64.64,0,0,1,.54-.75,10.06,10.06,0,0,0,4.16-2.13c2.42-1.95,3-4.22,1.66-7-1.52-3.19-4.75-5-7.6-4.44-1.23.26-1.71-.22-2.18-1.21a14.25,14.25,0,0,0-2.76-4.12,1,1,0,0,0-1.4-.22c-1.13.66-2.28,1.29-3.42,1.94a.63.63,0,0,1-.91-.12.78.78,0,0,1,0-1.15c.7-.78,1.4-1.56,2-2.38a1.77,1.77,0,0,0,.14-2.4,2.44,2.44,0,0,1-.47-.92A1.54,1.54,0,0,1,96,172.9c1.38-.19,2.78-.35,4.17-.47s1.52.06,1.73,1.31c0,.17,0,.35,0,.52.24,1.31.6,1.68,1.85,1.77,1,.07,1.92,0,2.88.11a2.67,2.67,0,0,0,2.92-1.72c.14-.31.21-.66.58-.84a19.89,19.89,0,0,1,4.5,1.28c.72.27,1.43.57,2.08.84A4.33,4.33,0,0,1,116,178a2.11,2.11,0,0,0,.54,2.82,13.46,13.46,0,0,1,3.87,5.2c.64,1.45.91,1.49,2.69,1.17.86-.15,1.16,0,1.27.83s.15,1.74.2,2.61a1.07,1.07,0,0,1-.83,1.15,10.25,10.25,0,0,0-1.31.83,2.18,2.18,0,0,0-1.11,1.67,15.7,15.7,0,0,1-1.41,4.21c-.82,1.61-.94,3.15.6,4.6ZM96.17,194h0c.21.93.49,1.85.71,2.78a8,8,0,0,1,.16,1.3c0,.82-.29,1.13-1.41,1l-1.44-.37c-1.52-.42-1.47-.42-1.39-2.07.23-5.06-1.69-9.05-6.17-11.54-2.85-1.58-2.29-.91-2-4,.19-2.26.57-4.5.89-6.75a4.47,4.47,0,0,1,.37-1.23,1,1,0,0,1,1.5-.46c1.1.71,2.18,1.44,3.23,2.22,2.92,2.16,3.23,2,.11,4.5-1.34,1.07-1.37,2-.22,3.31.29.32.6.63.92.93A1.91,1.91,0,0,0,94,184a28.21,28.21,0,0,1,2.81-1.39.7.7,0,0,1,.91.27,22.4,22.4,0,0,1,3.18,6.56.85.85,0,0,1-.65,1.2c-.75.21-1.53.35-2.29.53-1.66.39-2.16,1.17-1.78,2.85Zm-5.35,1.85h0a5.58,5.58,0,0,1-.19,1,.76.76,0,0,1-.75.6,1.08,1.08,0,0,1-.91-.41,2.2,2.2,0,0,1-.25-.72c-.19-.85-.37-1.7-.55-2.55a7.74,7.74,0,0,0-3.48-5c-1.27-.84-1.25-.87-.86-2.28a2,2,0,0,1,.2-.48c0-.07.12-.11.19-.17,4.82,1.23,7,6.52,6.6,10Zm43.64-27.13h0c-.75-.44-1.49-.9-2.2-1.4a.85.85,0,0,1-.33-.65c0-.5.47-.39.8-.36,1,.09,1.89.21,2.78.3a2.06,2.06,0,0,1-.09,1.61c-.13.55-.53.75-1,.5Zm-9.66-18.26h0a.62.62,0,0,1,.49-.07c.11.07.15.29.22.44,0,1.1-.46,1.81-1.26,2-.18.05-.61-.17-.63-.31a1.89,1.89,0,0,1,1.18-2.07Zm-52-.65h0c0,.09.11.18.1.25l-1.56,8.17c-.2,0-.41,0-.5-.1-.65-.69-1.6-1.32-1.82-2.14-.26-1,.81-1.81,1.3-2.7s1.06-1.8,1.6-2.69c.21-.34.4-.74.88-.79Zm-1.93,12.71h0c-.26,2.58-.47,4.73-.7,6.88-.06.51-.2,1-.29,1.43-.7.44-1.08-.08-1.47-.33a17.59,17.59,0,0,1-4.75-4.39c-.65-.9-.62-1.12,0-2.07.44-.65.92-.59,1.55-.31a4.3,4.3,0,0,0,4.44-.5c.28-.19.58-.34,1.2-.71Zm-3-1.45h0a4.48,4.48,0,0,1-.71.15c-1.06,0-1.37-.42-1-1.12a3.83,3.83,0,0,1,.25-.44c.53-.82,1.16-.86,1.84-.14s.44,1.31-.35,1.55Zm-.38-11.88h0c.07,0,.18,0,.29.07,0-.19,0-.18.1,0l0,0h0C67,151,66,152.62,65,154.26a1.38,1.38,0,0,1-1.25.79c-.37,0-.78-.1-.68-.53a7,7,0,0,1,4.45-5.32Zm-5.27,17.58h0c.82,1,1.53,1.86,2.3,2.69a10.63,10.63,0,0,0,4,2.85c1.22.47,1.23.57,1.08,1.7-.34,2.42-.71,4.83-1,7.25a6.57,6.57,0,0,1-1.24,3.38,6.72,6.72,0,0,0-.77,1.36c-.82,1.62-.92,2-3,1.24a43.76,43.76,0,0,1-6.37-3,10.16,10.16,0,0,1-2.46-1.91c-1.78-2-1.72-1.76-.43-3.73,2.28-3.5,4.55-7,6.83-10.53a2.89,2.89,0,0,1,1.1-1.26ZM34.45,224h0c-.13-2.53-.2-5.06-.32-7.6-.09-1.82-.23-3.64-.35-5.43.68-.36,1,.15,1.43.4a18.4,18.4,0,0,0,9.93,2.89,13.62,13.62,0,0,0,5.36-1.08c3.43-1.44,6.63-3.21,8.62-6.54a6.22,6.22,0,0,0,1.1-2.35,5.25,5.25,0,0,1,2-3.43A35.18,35.18,0,0,0,65,197.5,50.77,50.77,0,0,1,63.53,209a2.57,2.57,0,0,1-2,2.09,76.56,76.56,0,0,0-18.58,9c-2,1.33-4,2.85-6,4.28a6.56,6.56,0,0,1-2,1.28c-.68-.34-.53-1-.56-1.58Zm17.72-42.22h0a5,5,0,0,1,.68.58,15.82,15.82,0,0,0,8.9,5.64c.67.18,1.35.36,2,.56,1,.29,1.15.61.68,1.51a36.47,36.47,0,0,1-4.37,7.13A5.64,5.64,0,0,1,53,198.49a13.69,13.69,0,0,1-4.2-3.89,5.32,5.32,0,0,1-1-2.94,9.34,9.34,0,0,1,1.37-5.51c.93-1.46,2-2.87,3-4.33Zm-5,64.26h0c-.36-.36-.19-.81-.19-1.22a18.41,18.41,0,0,0-3.35-10.3,12.58,12.58,0,0,0-6-4.88c-.47-.19-1-.18-1.4-.73-.11-.56.46-.65.77-.83,3.71-2.12,7.45-4.2,11.16-6.33a2.12,2.12,0,0,1,2.2,0,15,15,0,0,1,6.64,6.5,40.5,40.5,0,0,1,2.72,7.35,2.26,2.26,0,0,1-1,2.9c-3.42,2.27-6.77,4.65-10.15,7a2.24,2.24,0,0,1-1.4.61Zm92-42h0a1.06,1.06,0,0,1-1.16.84c-.13,0-.39-.16-.39-.23a1.11,1.11,0,0,1,.24-.67.92.92,0,0,1,1.18-.15.74.74,0,0,1,.13.21ZM161,170h0c-.62-1-.58-1.22.27-2a29.31,29.31,0,0,1,5.09-3.68,40.59,40.59,0,0,1,8.56-3.9c1.39-.44,1.7-.32,2.2,1,1.76,4.47,3.47,8.95,5.2,13.43.15.4.29.82.44,1.26-.17.22-.28.49-.47.61-.53.3-1.08.56-1.64.81a79,79,0,0,1-10.88,3.75,18.49,18.49,0,0,0-2,.59c-.7.32-1-.07-1.2-.57A65.77,65.77,0,0,0,161,170Zm8.45,12.9h0c4.51-1.08,9-2.23,13-4.76.58-.37,1-.22,1.21.41,1.42,3.65,2.85,7.31,4.25,11,.38,1,.24,1.37-.63,2a9.36,9.36,0,0,1-1.11.7,56.16,56.16,0,0,1-8.38,3.67,21.26,21.26,0,0,1-3.06.72c-1.16.2-1.36.11-1.87-.92a126.35,126.35,0,0,1-5.34-12.22c.81-.24,1.39-.44,2-.58Zm5.06,16.37h0c-.17-.43-.22-.93.34-1a27.3,27.3,0,0,0,4.79-1.28c1.62-.64,3.24-1.29,4.81-2s2.89-1.56,4.33-2.34a6.56,6.56,0,0,1,1.16,2.62c1.08,2.85,2.07,5.74,3.11,8.6a1.28,1.28,0,0,1-.39,1.63,32.12,32.12,0,0,1-11.07,5.73,9.3,9.3,0,0,1-1.3.23,1.06,1.06,0,0,1-1.25-.68c-.41-1.06-.8-2.12-1.22-3.17-1.1-2.76-2.21-5.5-3.31-8.26ZM180,212.94h0a28,28,0,0,0,11.78-4.88c.51-.33,1-.74,1.5-1.05.29-.19.71-.25.86.19a33.84,33.84,0,0,1,1,3.24,4.41,4.41,0,0,1-.11,2.33,9.72,9.72,0,0,1-9.62,6.68,3.82,3.82,0,0,1-3.79-2.65c-.42-1.23-1-2.39-1.65-3.86ZM94.63,223.83h0a85.67,85.67,0,0,1,1,11.75c.06,1.92.34,3.82.51,5.74l.81,9.14c.07.87.19,1.74.2,2.62.09,5.95.87,11.85,1.42,17.76a23.48,23.48,0,0,1,.2,4.08,2.37,2.37,0,0,1-1.68-.29,127.79,127.79,0,0,0-21.33-6.34c-.92-.18-1.11-.44-1.16-1.44-.23-5.86-.93-11.68-1.45-17.51-.43-4.79-.74-9.59-1.28-14.37-.66-5.72-1.51-11.43-2.28-17.15-.1-.78-.23-1.55-.33-2.33a1.21,1.21,0,0,1,.37-1.19c1.18-.91,1.12-2.07.42-3.63a81.9,81.9,0,0,1,12.22,3.93c2,.75,3.89,1.57,5.83,2.36,2.5,1,4,1.14,3.79.52-.46-1.48-1.88-2-3.1-2.53-3.09-1.46-6.31-2.57-9.51-3.74-.81-.3-1.88-.17-2.34-1.19,1-.41,1.89.06,2.78.3,3.71,1,7.39,2.12,11.1,3.15,2.77.77,5.57,1.47,8.35,2.23,1.19.32,1.21.36,1.23,1.62,0,2.37.07,4.73,0,7.09a78.1,78.1,0,0,0,.58,8.37c.43,5.49,1,11,1.52,16.45.65,6.43,1.35,12.86,2.06,19.29a11.63,11.63,0,0,0,.62,3.07c.53,1.3,0,1.93-1,2.56-.81.51-1.5,1.2-2.28,1.75-.35.24-.68.05-.77-.36a9.35,9.35,0,0,1-.2-1.29c-.51-5.31-1.08-10.61-1.5-15.92-.26-3.31-.26-6.64-.65-9.94-.48-4-.86-8-1.27-12-.3-2.78-.58-5.56-.86-8.34a33.84,33.84,0,0,0-1.18-5.37.45.45,0,0,0-.61-.31c-.11,0-.21.27-.22.42A4.51,4.51,0,0,0,94.63,223.83Z" fill="#4f2808" fill-rule="evenodd"/></g></g></svg>