<svg xmlns="http://www.w3.org/2000/svg" viewBox="0 0 335.16 302.21"><title>error-under-construction</title><g id="Capa_2" data-name="Capa 2"><g id="background_1" data-name="background 1"><path d="M224.63,191.66c-.63,2.77.92,5.16,1.66,7.57,5.87,19.15,12,38.21,18,57.31.44,1.39,1,2.06,2.54,2,2.6-.08,4,1.38,5.08,3.76,4.21,9.36,6.55,19.27,8.93,29.16,1.24,5.17-1,8-6.27,9-8.54,1.72-17.21,1.29-25.82,1.5-18.09.44-36.2.17-54.3-.37A64.48,64.48,0,0,1,164,300.4c-4.55-.91-7-3.65-5.93-8.15,2.26-9.81,4.51-19.66,8.68-28.9a2.22,2.22,0,0,1,.4-.47c0-2,.3-3.94,2.6-4.73a31.23,31.23,0,0,0,3.91-2.65c1.59-1.38,1.54-3.48,2.26-5.25.24-.67.53-1.32.76-2,.42-1.08.29-2.28.69-3.37a12.11,12.11,0,0,0,1.2-3.18c.4-1.2.78-2.41,1.18-3.61a18.24,18.24,0,0,0,.65-2.41,5.71,5.71,0,0,1,.28-.79,23.78,23.78,0,0,0,1.66-5.21,33.11,33.11,0,0,0,1.09-3.77c.19-.74.44-1.46.67-2.19A105.16,105.16,0,0,0,190,205.34c.18-1.07.48-2.11.73-3.17.67-1.84,1.46-3.64,2-5.54.26-.72.58-1.4.84-2.11.46-1.65,1.08-3.24,1.61-4.87a69,69,0,0,1,3.9-12.82c1.68-4.19,3.33-5.35,7.74-5.41,2.08,0,4.16,0,6.24,0a6.21,6.21,0,0,1,6.37,4.08,76.57,76.57,0,0,1,3.73,10.25,10.4,10.4,0,0,0,1.14,3.22C224.67,189.81,226.23,190.51,224.63,191.66Z" fill="#713b13"/><path d="M194.06,194.83l-.77,2c-1.56.57-2.22-.79-3.2-1.47a17.76,17.76,0,0,0-1.93-1.38,15.31,15.31,0,0,0-1.38-.77,26.3,26.3,0,0,0-2.69-1.12,40.12,40.12,0,0,0-9.34-3.72,45.44,45.44,0,0,0-15.45-2.08c-5.4-.83-10,1.45-14.59,3.75a13.6,13.6,0,0,0-2.26,1.27,13.09,13.09,0,0,0-2.3,1.69,6.26,6.26,0,0,1-.66.49c-1.14.74-2.2,1.6-3.3,2.41-2,1.75-3.78,3.69-5.64,5.57a37.93,37.93,0,0,0-8,9.94,42.67,42.67,0,0,0-3.11,7.18,23.28,23.28,0,0,0-1.83,4.55c-.59,2.44-1,4.91-1.79,7.29a24.91,24.91,0,0,0-.68,3.31,83.58,83.58,0,0,0-.91,16,4.49,4.49,0,0,0,2.91,4.31c3.11,1.49,6.51,2,9.74,3a7.85,7.85,0,0,0,3.28.65,3.61,3.61,0,0,1,1.42.47c.5.5,1,1,.41,1.75a3.82,3.82,0,0,1-2.94.37,13.67,13.67,0,0,0-4.32-.39,10.18,10.18,0,0,1-1.91-.15c-5.32-1-9.94-3.65-14.53-6.34a34.92,34.92,0,0,1-7.41-6.25,12.78,12.78,0,0,1-2.13-6.91c.38-1.71-1.23-2.73-1.49-4-.22-1.1,1.72-2.09,1.49-3.91A21.89,21.89,0,0,1,98.9,226c.71-8.79,4.81-16.28,9.3-23.55,2.07-3.35,4.65-6.38,7-9.56.59-1.22-.65-3.16,1.49-3.78,4.72-3.56,9.41-7.17,14.44-10.28,7.6-4.71,15.72-7.48,24.79-6.71,1.47.12,3.23-.16,3.82,1.86-.85,1.24-2.17,1-3.38,1-2.78.12-5.56-.19-8.33.2-.44.21-.87.44-1.32.62-1.43.54-2.91,1-4.34,1.48-3.87,1.34-7.7,2.76-11,5.33a17.29,17.29,0,0,0-2.75,2,43.27,43.27,0,0,0-12.29,10.81,24,24,0,0,0-2,2.67,36.69,36.69,0,0,0-3.12,4.39,24.18,24.18,0,0,0-3.61,6.12c-.48.89-.9,1.81-1.33,2.72a39.34,39.34,0,0,0-2.45,5.89c-1.71,6.08-3.38,12.16-2.41,18.58.32,2.49.53,5,1.73,7.3.53,1.33,1,2.68,2.67,3.54-.08-2.3-.21-4.46.77-6.44a18.53,18.53,0,0,0,.67-3,10.1,10.1,0,0,0,.28-3.29c.19-2.06,0-4.29,2.22-5.53,1.36.45,1.2,1.58,1.2,2.65-1.3,6-2.45,12.07-.83,18.26.67-5.13.12-10.36,1.26-15.45.18-1,.51-1.91.67-2.88.83-3.28,1.75-6.53,2.41-9.84,2.07-4.49,3.88-9.11,6.28-13.45,1.9-2,3.25-4.46,5.32-6.31q2.32-2.22,4.54-4.55c3.16-3.57,7-6.26,10.89-9,4.24-1.8,8.26-4.16,12.9-4.93a19.77,19.77,0,0,1,4.14-.22,61.32,61.32,0,0,1,6.91.17,57.23,57.23,0,0,1,15.83,4.33c1.37.67,2.84,1.14,4.19,1.87a42.73,42.73,0,0,1,8.4,5.42Z" fill="#674718"/><path d="M98.9,226c-.31,3.31,1.38,6.85-1.14,9.91-.08.1.12.65.24.67,2.73.45,1.26,2.56,1.57,3.95-2.53-2.26-2.53-2.26-7,.94-2.48,1.58-5,3.13-6.67,5.67-1.62,1.95-2.12,4-.81,6.36a2.56,2.56,0,0,1,0,1.29,1.17,1.17,0,0,1-.87.81l-.29-.05c-.31,0-.4.05-.23.23a41.26,41.26,0,0,0,3.16,3.58c1.8,1.92,4.2,3,6.18,4.72a23.75,23.75,0,0,0,2.06,1.37c1.24.63,2.36,1.46,3.6,2.08.92.5,1.89.9,2.84,1.34,7.65,4.77,15.87,6.76,24.84,5.07,3.7-.2,7.14-1.55,10.69-2.39a14.05,14.05,0,0,0,3.31-1.6,15,15,0,0,1,3.3-.78c.81.12,1.78.07,1.62,1.35a67,67,0,0,1-28.74,6.7c-2.9,0-5.41-1.15-8-2.12a80.66,80.66,0,0,1-22.27-12.83,17.3,17.3,0,0,1-5.45-6.66,8.91,8.91,0,0,1,0-4.67c2.08-7.54,8.36-11,14.42-14.57,2.42-1.4,3.51-2.74,3.08-5.51A8,8,0,0,1,98.9,226Z" fill="#6a4c1d"/><path d="M133.44.33h1.76a2.61,2.61,0,0,0,1.22.82,3.75,3.75,0,0,1-1.26-.81,27.24,27.24,0,0,1,8.31,0A1.68,1.68,0,0,1,142.2,1a1.53,1.53,0,0,0,1.24-.63,13.45,13.45,0,0,1,5.72,0,1.15,1.15,0,0,1-1,.85,2,2,0,0,0,1.51-.82c3.92,0,7.88-.26,11.77.08,9.84.87,19.64-.69,29.46-.08a2.28,2.28,0,0,0,1.51.89c-.44-.25-.92-.4-1-.92a13.66,13.66,0,0,1,5.73,0,4.72,4.72,0,0,1,.37.43L197,.33a28,28,0,0,1,8.32,0,3.75,3.75,0,0,1-1.26.81,2.51,2.51,0,0,0,1.22-.82h1.76a1.53,1.53,0,0,0,1.24.63A1.68,1.68,0,0,1,207,.34a51.28,51.28,0,0,1,11.35,0c.4.74,1.25.58,1.82.93,1.45.9.55,1.34-.4,1.75-5.18.61-10.38.16-15.56.29-8.82.22-17.65.29-26.46.42-18.68.28-37.36-.61-56-.52a5.68,5.68,0,0,1-.92-.14c-3.28-1.76.63-1.78.67-2.73a57.79,57.79,0,0,1,12,0A1.68,1.68,0,0,1,132.2,1,1.53,1.53,0,0,0,133.44.33Z" fill="#72582f"/><path d="M75.88,253.53c1.32-.08,2.67-.4,3.84.56-.43.78-1.53.51-2,1.28l-57.45-.23a3.78,3.78,0,0,1-.89-.27c.4-.91,1.6-.58,2.1-1.35h3.12c2.37,1.39,5.15.09,7.6,1.23-.44-.85-2,.47-2-1.15l5,0c1.5,1.57,3.46.6,5.25,1-1.31-.61-3,.88-4-1l26.88,0a4.79,4.79,0,0,0,5,0l1.26,0c1,1.39,2.38.55,3.59.65C74.13,254.05,75.17,254.47,75.88,253.53Z" fill="#856f4a"/><path d="M27.7,112.77c-.26-9.35.5-18.67.65-28,1.28-1.49,1.93-.5,2.54.65.3,9.48,1.19,19-.71,28.41a1.84,1.84,0,0,1-2.39,1.11A2.07,2.07,0,0,1,27.7,112.77Z" fill="#745b32"/><path d="M312.16,84.77c.15,9.33.91,18.65.65,28a2.15,2.15,0,0,1-.06,2.15,1.81,1.81,0,0,1-2.39-1,22.63,22.63,0,0,1-1.07-7.65c.15-6.93-.41-13.87.32-20.79C310.21,84.28,310.86,83.26,312.16,84.77Z" fill="#745b32"/><path d="M310.9,114.14l1.76.58c.94.9-.11,2.26.73,3.18.92,3.9,1.71,7.82,1.22,11.87-2-.16-.69-1.78-1.19-2.26.07,1.23-.49,3,1.19,4.13,0,1.46,0,2.92,0,4.38-2.67.9-.31,3.17-1,3.86.26-.6-1.28-2.52,1-3.23.16,3.6.55,7.22-.52,10.76-.39-1.33-2.29-.35-2.65-1.73-.63-4.89-.24-9.79-.28-14.67a63.18,63.18,0,0,0-.89-12.13C310,117.28,309.56,115.57,310.9,114.14Z" fill="#7d653f"/><path d="M145.28,270.5c-.44-.84-1.25-.7-2-.76.22-1.61,1.71-1.64,2.75-2.11,2.17-1,4.41-1.78,6.59-2.71,3.63-1.3,7.07-3.06,10.64-4.49,2.36-.54,4.13-3.2,7-2-1.84.9-2.45,2.7-3.15,4.42-.65-1.92-1.66-.36-2.3-.1-5.84,2.33-11.64,4.77-17.47,7.16A19.3,19.3,0,0,1,145.28,270.5Z" fill="#6e5122"/><path d="M28.38,261.64c-4.63.95-9.31.4-14,.54A97.47,97.47,0,0,0,2,262.82c-.79.13-1.89.23-2-.9-.07-.95.89-.9,1.62-1a169.26,169.26,0,0,1,24.25-.45C26.57,261.2,28.16,259.9,28.38,261.64Z" fill="#8c7754"/><path d="M271.9,255.47l-19.79-.83c-.32-.56-.37-1,.31-1.38a31.3,31.3,0,0,1,6.12.16l16.1.77a10.44,10.44,0,0,0,5,.06h.67c3.19.65,6.45-.2,9.65.46l.95,0a1,1,0,0,1,0,1.38l-5-.2C281.22,255.27,276.53,256.13,271.9,255.47Z" fill="#8b7653"/><path d="M27.85,114.72l1.76-.58a3.54,3.54,0,0,1,.8,3.49c-1.67,8-.85,16.13-1.05,24.2a11.18,11.18,0,0,1-.47,4.3c-1.56,1.53-1.55-.32-2.1-1-.2-2.33.35-4.65.17-7-.07-.87.28-1.92-1.06-2.15v-4.38c1.68-1.16,1.12-2.9,1.2-4.23-.22.71.56,2.09-1.2,2.36-.49-4.05.3-8,1.22-11.87C28,117,26.91,115.62,27.85,114.72Z" fill="#7d653f"/><path d="M68.38,187.24H66.5c-1.23-.71-2.67.09-3.91-.54l-.24.07-.22-.12a10.68,10.68,0,0,0-3.75-.6c-4.3.24-8.53,0-12.54-1.81-1-.86-1-1.63.21-2.3a13.5,13.5,0,0,1,6,.92c2,.8,4.09.56,6.15.67a6.5,6.5,0,0,1,.9.13,18.46,18.46,0,0,0,3.63.43,5.91,5.91,0,0,1,1,.18c1.2.42,2.51.1,3.68.51S70.11,185.6,68.38,187.24Z" fill="#745a32"/><path d="M309,32.27c.32,1.57-.15,3.27.74,4.76.16.77.6,1.74-.34,2.17-1.34.61-1.61-.79-2.23-1.5a8.84,8.84,0,0,1-.91-4.63c0-1.63.31-3.28-.43-4.85-.58-3.56-3.17-6.55-2.91-10.35.79-1.31,1.56-1.12,2.33,0a23.38,23.38,0,0,1,3.21,10.47C309.06,29.61,308.26,31,309,32.27Z" fill="#796039"/><path d="M311.45,47.9c1.12,6.42.93,12.89.73,19.36-.74.39.06,1.91-1.06,1.77s-1.24-1.4-1.57-2.33c-.36-5-.31-10.08-.84-15.1a5.42,5.42,0,0,1,.64-3.6A1.45,1.45,0,0,1,311.45,47.9Z" fill="#735830"/><path d="M28.34,67.26c-.21-6.47-.4-12.94.72-19.36a1.45,1.45,0,0,1,2.09.09,5.33,5.33,0,0,1,.65,3.59c-.54,5-.48,10.07-.83,15.1a3.28,3.28,0,0,1-.26.86c-.32.61-.49,1.5-1.29,1.52C28.23,69.08,29.08,67.65,28.34,67.26Z" fill="#735830"/><path d="M312.15,146.65c.36-.56.72-1.11,1.12-1.71.3.9.56,1.68.83,2.47a.33.33,0,0,1-.05.47c-.8,1.26,0,2.74-.58,4l-.09,1c-.62,1-.29,2.13-.55,3.18v0c-.89,1.21,0,2.7-.64,4,.29,2.86-.73,5.4-1.89,7.92a.58.58,0,0,1-.74.09c-.32-.93-1.24-1.52-1.48-2.52a76.83,76.83,0,0,1,2-9.24c.82-1.32.51-2.79.52-4.22C310.73,150.12,310.49,148.11,312.15,146.65Z" fill="#775d35"/><path d="M30.63,37.18c.19-1.66.1-3.36.88-4.91.76-1.22-.07-2.67.55-3.91-.47-3.93,1.77-7.08,3-10.53.79-.49,1.58-1.62,2.39,0-.39,3.59-1.75,6.92-2.73,10.36-.79,1.47-.37,3.1-.56,4.65a30.94,30.94,0,0,1-.92,4.25,2,2,0,0,1-1,1A1.41,1.41,0,0,1,30.63,37.18Z" fill="#796039"/><path d="M250.88,189.16a81.84,81.84,0,0,1-15.62,1.25,2,2,0,0,1-.53-1.85,2,2,0,0,1,.49-.9,2.81,2.81,0,0,1,.94-.45c4.55.1,9-1,13.6-.76a3.7,3.7,0,0,1,1.49.39,1.31,1.31,0,0,1,.6,1.28C251.74,188.67,251.24,188.85,250.88,189.16Z" fill="#745931"/><path d="M278.38,186.65l-.22.12-.24-.07c-1.24.63-2.68-.17-3.91.54l-1.88,0c-1.68-1.52-.25-2,.89-2.46s2.21-.17,3.27-.54a7.56,7.56,0,0,1,1.41-.24,15.34,15.34,0,0,0,3.64-.35,4.45,4.45,0,0,1,.9-.14c2.07-.1,4.18.11,6.19-.67s3.91-1.37,6-1c1.12.69,1.2,1.48.2,2.35a10.74,10.74,0,0,1-4.71,1.22c-2.15.67-4.43-.24-6.57.54l-1.25.05A10.7,10.7,0,0,0,278.38,186.65Z" fill="#745a32"/><path d="M27.08,144.75l1.28,1.9c.94,1.81.7,3.9,1.34,5.79.22,1.39,0,2.84.52,4.2.61,2.9,2.09,5.61,1.85,8.69-.33.92-.75,1.8-1.15,2.69a.55.55,0,0,1-.72-.1C29,165.4,28,162.86,28.31,160c-.61-1.26.25-2.75-.64-4v0c-.26-1.05.07-2.2-.55-3.18l-.09-1c-.54-1.29.22-2.78-.58-4a.26.26,0,0,1,0-.41,5.25,5.25,0,0,1-.17-2.49A.54.54,0,0,1,27.08,144.75Z" fill="#775d35"/><path d="M66.45,2.22C71.79.83,77.23.85,82.67.93l.43.3c.53.81.82,1.59-.28,2.19-5,1.51-10.28.87-15.41,1.37C65.56,4.5,67.37,2.86,66.45,2.22Z" fill="#785f37"/><path d="M257.83.93c5.45-.08,10.89-.1,16.22,1.29-1.14.55,1,2.26-.91,2.55-5.15-.48-10.38.16-15.43-1.33-1.11-.59-.85-1.38-.31-2.21Z" fill="#785f37"/><path d="M309.73,171.3a11.41,11.41,0,0,1-5.66,9.27,2.91,2.91,0,0,1-1.51-1.46c.07-2.11,2.38-2.85,2.87-4.71.69-1.57,1-3.32,2.12-4.7.51-.52,1.1-1.12,1.86-.65S309.87,170.51,309.73,171.3Z" fill="#765d35"/><path d="M36.44,180.57a11.44,11.44,0,0,1-5.66-9.27c-.14-.79-.58-1.69.32-2.25s1.34.13,1.86.64c1.13,1.38,1.43,3.13,2.12,4.71.47,1.86,2.8,2.6,2.87,4.71A2.87,2.87,0,0,1,36.44,180.57Z" fill="#765d35"/><path d="M312.16,71a88.86,88.86,0,0,1,0,11.88,1.56,1.56,0,0,1-2.11,0c-1.3-3.71-.74-7.49-.39-11.27C310.27,70.5,310.94,69.59,312.16,71Z" fill="#6f542a"/><path d="M28.37,82.9a88.86,88.86,0,0,1,0-11.88c1.2-1.42,1.88-.54,2.5.57.38,3.77.92,7.55-.36,11.27A1.54,1.54,0,0,1,28.37,82.9Z" fill="#6f542a"/><path d="M282.8,3.45A38.59,38.59,0,0,1,292.89,4.7a3.15,3.15,0,0,1-1.67,1.8,9.89,9.89,0,0,1-3.06.43c-3.28-.24-6.61-.15-9.74-1.42-.71-1.51.26-1.63,1.39-1.73S281.93,4.7,282.8,3.45Z" fill="#775e35"/><path d="M81.5,188.6a12.81,12.81,0,0,1-6.25-.68c-.32-.32-.82-.47-1-1a1.27,1.27,0,0,1,.51-1.27,4.12,4.12,0,0,1,1.92-.46,11.12,11.12,0,0,1,5,.79c1.71.87,3.78-.09,5.44,1.07a1.35,1.35,0,0,1,.17,1.44C85.39,189.33,83.44,188.5,81.5,188.6Z" fill="#6c5127"/><path d="M100.88.4l11.25,0c0,1,.52,2.18-1,2.58-3.43.2-6.86.83-10.21-.46A1.53,1.53,0,0,1,100.88.4Z" fill="#7a613a"/><path d="M265.25,187.93a12.9,12.9,0,0,1-6.25.67c-.29-.3-.75-.43-.87-.9a1.72,1.72,0,0,1,.22-.86,3.25,3.25,0,0,1,1-.9,9.92,9.92,0,0,1,4.72-.76h3a5.7,5.7,0,0,1,3,.52c.79.77.09,1.16-.41,1.61l-.6,0C267.81,187.8,266.43,187.22,265.25,187.93Z" fill="#6c5127"/><path d="M228.38.38l11.25,0a1.54,1.54,0,0,1,0,2.08c-3.34,1.33-6.78.66-10.19.5C227.87,2.62,228.35,1.41,228.38.38Z" fill="#7a613a"/><path d="M36.44,180.57A1.58,1.58,0,0,1,38,179c.94-.47,1.73.07,2.55.38,1.21.65,2.6,1,3.6,2,.47.54,1,1.09.61,1.87s-1,.57-1.58.36C40.47,183.66,38.39,182.26,36.44,180.57Z" fill="#735931"/><path d="M302.49,179a1.56,1.56,0,0,1,1.58,1.55,11.21,11.21,0,0,1-6.75,3.05c-.6.21-1.22.35-1.58-.35s.14-1.33.59-1.87c1-1,2.4-1.36,3.61-2C300.76,179.07,301.55,178.53,302.49,179Z" fill="#735931"/><path d="M293.38,4.75c3.33.66,7,.62,8.84,4.32l-.25.28a4.37,4.37,0,0,0-1,1.12,1.28,1.28,0,0,1-.82.06A18.07,18.07,0,0,0,294.27,8c-.74-.13-1.71-.23-1.6-1.42.83-.76,1.74-.64,2.85-.07C294.8,5.66,293.15,6.37,293.38,4.75Z" fill="#806843"/><path d="M38.38,8.53c2.21-2.91,5.49-3.31,8.75-3.78.15,1.54-1.32,1.07-2.05,1.54,1-.27,1.91-.48,2.75.29.16,1-.6,1.25-1.27,1.36-2.34.38-4.32,1.6-6.38,2.63-1,0-1.14-1.09-1.93-1.35A.53.53,0,0,1,38.38,8.53Z" fill="#806843"/><path d="M305.24,17.89c-.67-.25-1.36-.93-1.93.14-2.25-2-2.54-4.75-2.53-7.55a2.72,2.72,0,0,0,.24-.24c.35-.32.61-.7,1-1l.23-.17A19,19,0,0,1,305.24,17.89Z" fill="#816944"/><path d="M100.88.4V2.29C98.19,4,95.25,3,92.4,3.08c-.78-.21-1.69-.4-1.69-1.4C90.7.31,92.19,1,92.76.39A43.19,43.19,0,0,1,100.88.4Z" fill="#725830"/><path d="M239.63,2.29V.4a43.19,43.19,0,0,1,8.12,0c.57.63,2.05-.08,2.06,1.28,0,1-.91,1.18-1.69,1.4C245.27,3.05,242.33,4,239.63,2.29Z" fill="#725830"/><path d="M38.38,8.53c0,.21,0,.43,0,.65a3.7,3.7,0,0,1,1,1.66c-.65,2.43.1,5.3-2.22,7.21-.6-1.15-1.41-.26-2.14-.22C36.27,14.76,35.67,11.05,38.38,8.53Z" fill="#816944"/><path d="M105.25,190.41c-2.76.06-5.54.23-8.25-.58,1-.46,1.27-1.53,1.79-2.39a13.65,13.65,0,0,1,5.69-.19,2.41,2.41,0,0,1,.87.45,2.11,2.11,0,0,1,.45.88A1.92,1.92,0,0,1,105.25,190.41Z" fill="#745931"/><path d="M220.88,2.27c-.17-1.49-3.19.65-2.49-2l9.37.08c-.1.91.57,2.1-.91,2.53C224.81,3.16,222.73,3.69,220.88,2.27Z" fill="#6f552b"/><path d="M121.49.31c1,2.14-1.73.83-1.86,2-1.85,1.41-3.91.87-5.94.67-1.47-.41-.88-1.6-.94-2.55Z" fill="#6f552b"/><path d="M282.8,3.45c-.19.43,1.54.93-.1,1.34-1.47.38-2.91-1-4.33,0-1.65,1.06-3.14,1.11-4.37-.65l-1.8-1.25,1.85-.71h0c1.23.82,2.7,0,4,.59a.24.24,0,0,1,.39.07c1.41.7,3,.18,4.43.58Z" fill="#70552d"/><path d="M66.45,2.22l1.68.59c0,1.06-1.45.49-1.62,1.37-1.08,1.48-2.65,1.36-4.2,1.27-1.53-.29-3.06.36-4.58,0-.6-.16-1.31-.35-1.18-1.13.09-.5.89-.39,1.18-.83h0c1.45-.4,3,.12,4.43-.58a.24.24,0,0,1,.39-.07c1.27-.57,2.74.23,4-.59Z" fill="#70552d"/><path d="M74.67,186.07c0,.4,0,.8,0,1.2a4.8,4.8,0,0,1-3.36.08l-2.89-.11c.71-1.57-.31-1.72-1.47-1.85s-2.53.49-3.53-.66c3.2-1.88,6.39-.16,9.59,0A2.57,2.57,0,0,1,74.67,186.07Z" fill="#775d36"/><path d="M235.22,188.43c0,.66,0,1.32,0,2a9.6,9.6,0,0,1-4.24.67c-2,.32-2.62-.35-1.69-2.23a2.92,2.92,0,0,1,1.29-.89C232.2,187.65,233.78,187.37,235.22,188.43Z" fill="#71562e"/><path d="M327.56,256.13l-1.66-.23a.6.6,0,0,1,0-1c2.34,0,4.67-.08,7-.06.9,0,2.28-.12,2.26,1.05,0,1.58-1.49.94-2.43.92a16.83,16.83,0,0,1-1.86-.22C329.82,256,328.62,256.58,327.56,256.13Z" fill="#856e49"/><path d="M27.08,144.75h-.53c-1-2.64.24-5.45-.66-8.09,0-.21,0-.42,0-.63l1.7-2.29C27.66,137.92,28.12,141.34,27.08,144.75Z" fill="#6e5329"/><path d="M314.62,136.65c-1.46,2.18.11,4.82-1.4,8-.7-4-.29-7.05-.41-10.21,1.4.19,1.11,1.32,1.81,1.61Z" fill="#6e5329"/><path d="M273.54,281c-1.2-.24-2.6-.13-3.75-.95a.65.65,0,0,1,.06-1.06c1.24-.79,2.61-.38,3.92-.24.83.09,2.18,0,2,1.34C275.61,280.93,274.48,280.91,273.54,281Z" fill="#8b7653"/><path d="M248.23,2.35c1.37-.71,1.37-.71-.48-2,3.38-.09,6.76-.33,10.08.54l-.18.19c-1.07,1-2.37.28-3.32.54,1.95.21,1.95.21,1.63,1.75C253.3,3.67,250.49,5,248.23,2.35Z" fill="#785f37"/><path d="M116.5,189.74c-1.7.52.26,2.56-1.31,3.13-1.12-2.33-3.66-.42-5.13-1.72.23-1,.31-2.1,1.48-2.56C113.36,188.25,115.15,188.06,116.5,189.74Z" fill="#7a613a"/><path d="M92.76.39c.37.78-3.42.55-.48,2C90,5,87.23,3.62,84.59,3.43c-.44-1.55-.44-1.55,2-1.76-1.2-.25-2.6.42-3.76-.55L82.67.93C86,.06,89.38.3,92.76.39Z" fill="#785f37"/><path d="M57.73,3.45c.18.43-1.56.91.08,1.34,1.46.39,2.9-1,4.33,0-.3,1.6-1.67,1.36-2.71,1.41-2,.11-3.87.88-5.86.4C52,6.19,53.13,4.87,52.72,4A10.3,10.3,0,0,1,57.73,3.45Z" fill="#775e35"/><path d="M229.63,189.13c-.77,1.54.27,1.77,1.39,2a13.47,13.47,0,0,1-6.39.58c.69-.93-.26-1.33-.63-1.92A4.05,4.05,0,0,1,229.63,189.13Z" fill="#7d643e"/><path d="M307.75,37.27c.42.53.86,1.51,1.25,1.49.95-.06.46-1.14.73-1.73a18.91,18.91,0,0,1,1.18,6.49,2.1,2.1,0,0,1-2.55-.25C307.48,41.34,306.5,39.42,307.75,37.27Z" fill="#856e49"/><path d="M25.9,129.77c1.4-1.53-.1-3.63,1.4-5.76a20.9,20.9,0,0,1,.28,7.41c-.08,1.18-1.07.38-1.68.22Z" fill="#6c5026"/><path d="M314.61,131.64c-.72.26-1.69,1-1.76-.52-.11-2.18,0-4.37,0-7.3,2,2.19.32,4.49,1.79,6Z" fill="#6c5026"/><path d="M110.88,189.14c.6,1,.14,1.63-.82,2a12.34,12.34,0,0,1-4.81-.74l0-2a1.63,1.63,0,0,1,.86-.23c1.33.25,2.7,0,4,.4A1.76,1.76,0,0,1,110.88,189.14Z" fill="#6f542b"/><path d="M308.93,43.51a1.88,1.88,0,0,1,2,0,9.89,9.89,0,0,1,.54,4.38l-1.93,0C307.43,46.7,308.06,45.12,308.93,43.51Z" fill="#7b633d"/><path d="M31,47.92l-1.93,0a9.89,9.89,0,0,1,.54-4.38c1-1.27,1.72-.76,2.39.31C32.26,45.34,33,47,31,47.92Z" fill="#7b633d"/><path d="M98.38,187.92c2.45,2.73-1.27,1-1.38,1.91l-1.12-.08c-.83-.55-1.75-.24-2.63-.3-1.16-.08-1.7-.52-1.16-1.72,1.31-1,2.83-.62,4.29-.66A2.54,2.54,0,0,1,98.38,187.92Z" fill="#6e5329"/><path d="M141.08,291.38c1,.55,2.85-.31,2.65,1.35-.15,1.29-1.87.81-2.93.87s-2.23,0-2.15-1.16C138.76,290.91,140.28,291.77,141.08,291.38Z" fill="#907b59"/><path d="M53.44,249.66c-.81-.23-2.23.09-2.2-1.09,0-1.36,1.5-1.11,2.46-1.16s2.16-.13,2,1.2S54.38,249.61,53.44,249.66Z" fill="#948161"/><path d="M21.51,253.52c-.1,1.38-1.2,1.21-2.1,1.35-1.45,0-4,.72-3.9-1,.12-2.07,2.48-.46,3.85-.58A11.27,11.27,0,0,1,21.51,253.52Z" fill="#856e4a"/><path d="M30.27,253.59c.59.84,1.67.36,2.39,1.17-2.38,0-4.75,0-7.12,0-1,0-1.3-.34-.91-1.26Z" fill="#7f6740"/><path d="M125.25,301.08c-.88-.24-2.45.31-2.33-1.19.11-1.34,1.62-.88,2.54-.91s2.21-.28,2.2,1C127.65,301.41,126.17,300.88,125.25,301.08Z" fill="#8c7754"/><path d="M271.9,255.47c4.65.13,9.33-.67,14,.45C281.2,255.85,276.53,256.24,271.9,255.47Z" fill="#907c5a"/><path d="M258.54,253.42l-6.47.2c-.33.8-1.72-.21-1.79,1-.8.12-1.9.37-2.05-.65s1.07-1.08,1.78-1C252.85,253.09,255.73,252.6,258.54,253.42Z" fill="#a29175"/><path d="M127,291.73c-.84-.05-1.86,0-1.94-1.07s1-1.22,1.75-1.16,2.16,0,2.14,1.23C128.9,291.77,127.72,291.6,127,291.73Z" fill="#866f4b"/><path d="M300.12,257.13c2.06-1.37,4.17-1.14,6.32,0Z" fill="#978465"/><path d="M30.63,37.18l1.48.71c.79.93.33,2,.16,2.92-.13.8-.42,1.8-1.43,1.62-1.35-.24-.86-1.32-.65-2.18C30.22,39.21,29.93,38.13,30.63,37.18Z" fill="#7a623a"/><path d="M30.19,40.25c.14.57-.1,1.48.54,1.61.88.17.67-.75.79-1.3.19-.89.39-1.78.59-2.67l.65-.62a5,5,0,0,1-1.18,6.24,1.88,1.88,0,0,0-2,0A5.1,5.1,0,0,1,30.19,40.25Z" fill="#856e49"/><path d="M47.62,4.69a7.3,7.3,0,0,1,3.89-.56c.37.82,1,1.58.61,2.58a3.28,3.28,0,0,1-3.26.44C47.87,6.62,48,5.54,47.62,4.69Z" fill="#7a623b"/><path d="M60.45,261.16c-.08.91-.77,1.11-1.5,1.16s-1.73-.08-1.86-1.11S57.76,260,58.5,260,60.17,260.12,60.45,261.16Z" fill="#7c643d"/><path d="M25.89,136.65c1.36,2.6.22,5.41.66,8.09,0,.91-.08,1.82-.11,2.74C25.33,143.91,25.73,140.27,25.89,136.65Z" fill="#7d653f"/><path d="M269.63,187.31c.21-.43.41-.86.62-1.28a.79.79,0,0,1,.12-1c2-1.35,4-1.64,6.14-.25-.81,1-1.93.54-2.92.63-1.19.1-2.17.29-1.46,1.85Z" fill="#7d653f"/><path d="M266.49,248.71a10.83,10.83,0,0,1-6.51.18C262.34,247.62,264,247.76,266.49,248.71Z" fill="#968263"/><path d="M77.75,255.37c-.61-2.37,1.39-.73,2-1.28,1.08-.8.21-2.3,1.11-3.17l0,4.67Z" fill="#7d653f"/><path d="M47.62,4.69c1.39.2,1.35.95.76,1.93a.35.35,0,0,1-.52.09L44.2,6.48l2.93-1.73A.41.41,0,0,1,47.62,4.69Z" fill="#684b21"/><path d="M68.37,253.54c-1.66,2-3.32,1.94-5,0Z" fill="#6e542a"/><path d="M293.38,4.75l2.93,1.73-3.66.23a.61.61,0,0,1-.61.1,1,1,0,0,1-.5-.81c0-.93.63-1.15,1.35-1.3A.39.39,0,0,1,293.38,4.75Z" fill="#684b21"/><path d="M36.51,253.56c1.7,1.31,3.82.06,5.59,1.19-2.05,0-4.11,0-6.16,0-1,0-.92-.54-.69-1.2Z" fill="#7f6740"/><path d="M75.49,248.25c-.32.88-1.09.84-1.81.78s-1.33-.34-1.21-1.11c.16-1,1.06-.82,1.76-.77S75.47,247.4,75.49,248.25Z" fill="#968262"/><path d="M289.93,254.7c-3.22-.15-6.48.66-9.65-.46C283.5,254.21,286.74,253.85,289.93,254.7Z" fill="#907c5a"/><path d="M290.88,256.12v-1.38c.1,0,.21-.06.3,0,1,.27,3-.64,2.82,1.06C293.83,257.16,292,256.33,290.88,256.12Z" fill="#8f7a58"/><path d="M30.27,71a1.78,1.78,0,0,0-1.92,0V67.26c.64,1.32,1.29,1.41,1.95,0A2.71,2.71,0,0,1,30.27,71Z" fill="#796038"/><path d="M81.5,188.6c1.87-.72,3.76.26,5.63-.1a1.92,1.92,0,0,1,2.37-.23.62.62,0,0,1,.13.89A26.47,26.47,0,0,1,81.5,188.6Z" fill="#7b633b"/><path d="M312.16,71a1.78,1.78,0,0,0-1.92,0,2.71,2.71,0,0,1,0-3.75c.66,1.41,1.31,1.31,2,0C312.17,68.51,312.16,69.77,312.16,71Z" fill="#796038"/><path d="M258.38,187.9l.62.7a26.38,26.38,0,0,1-8.12.56l.62-.64C253.69,187.15,256,187.59,258.38,187.9Z" fill="#7b633b"/><path d="M89.63,189.16v-.64a2.07,2.07,0,0,1,1.34-1,1.21,1.21,0,0,1,1.16.36c.39,2.34,2.91.4,3.75,1.85A16.49,16.49,0,0,1,89.63,189.16Z" fill="#745931"/><path d="M52.24,6.09c-1.44-.2-1.28-1-.73-2L52.72,4c.25.9,1.64-.23,1.56.78,0,.44-1,.8-1.52,1.2l-.24.19Z" fill="#684b21"/><path d="M32.79,170.39c-.46-.31-1-.95-1.37-.87-.85.21-.41,1.17-.64,1.78a5.17,5.17,0,0,1-.58-3.38l.68,0c.67-.27,1.34-.54,2,0A1.81,1.81,0,0,1,32.79,170.39Z" fill="#806842"/><path d="M309.73,171.3c-.23-.61.21-1.57-.64-1.77-.37-.09-.91.55-1.37.86a1.81,1.81,0,0,1-.09-2.46c.65-.58,1.33-.31,2,0l.68,0A5.17,5.17,0,0,1,309.73,171.3Z" fill="#806842"/><path d="M73.33,254.73c-1,0-2.07.05-3.11,0s-.75-.67-.59-1.27l3.13,0C73.08,253.87,73.78,254,73.33,254.73Z" fill="#6e532a"/><path d="M43.19,183.62c2.24-.45.52-1.35.24-2.08,1-.55,2-.86,2.47.61a2.19,2.19,0,0,0-.06,2.09A3.49,3.49,0,0,1,43.19,183.62Z" fill="#87714d"/><path d="M191.34.3c.84.91,2.19-.37,3.2.89-1.52.4-2.91,1.38-3.67-.86A.3.3,0,0,1,191.34.3Z" fill="#6b5025"/><path d="M149.64.33c-.76,2.24-2.15,1.26-3.67.86,1-1.26,2.36,0,3.19-.89A.31.31,0,0,1,149.64.33Z" fill="#6b5025"/><path d="M297.09,181.54c-.29.73-2,1.63.23,2.08a3.49,3.49,0,0,1-2.65.62,2.19,2.19,0,0,0-.06-2.09C295.12,180.68,296.07,181,297.09,181.54Z" fill="#87714d"/><path d="M283.39,186c2.1-1.26,4.38-.35,6.57-.54C287.83,186.41,285.6,186.08,283.39,186Z" fill="#775d36"/><path d="M73.33,254.73l-.57-1.2h3.12C76,256.07,74.1,254.17,73.33,254.73Z" fill="#7d653f"/><path d="M27.85,114.72c-.29,1,.34,2.31-.73,3.18a13.27,13.27,0,0,1,.58-5.13Z" fill="#816a45"/><path d="M310.26,82.89h1.88c0,.62,0,1.25,0,1.87a1.74,1.74,0,0,0-1.91,0A1.3,1.3,0,0,1,310.26,82.89Z" fill="#806842"/><path d="M313.39,117.9c-1.07-.87-.44-2.13-.73-3.18l.15-2A13.27,13.27,0,0,1,313.39,117.9Z" fill="#816a45"/><path d="M28.37,82.9h1.88a1.31,1.31,0,0,1,0,1.88,1.76,1.76,0,0,0-1.92,0C28.36,84.15,28.37,83.52,28.37,82.9Z" fill="#806842"/><path d="M62.13,2.88a4.88,4.88,0,0,1-4.43.58A8.61,8.61,0,0,1,62.13,2.88Z" fill="#775e35"/><path d="M282.81,3.46a4.88,4.88,0,0,1-4.43-.58A8.61,8.61,0,0,1,282.81,3.46Z" fill="#775e35"/><path d="M279.61,254.25a5.06,5.06,0,0,1-5-.06Z" fill="#907c5a"/><path d="M250.28,254.66l-.67-.84c.78-.53,1.63-.26,2.46-.2,0,.34,0,.68,0,1Z" fill="#765d35"/><path d="M278.38,186.65c1.18-.67,2.35-1.35,3.76-.6A8.34,8.34,0,0,1,278.38,186.65Z" fill="#775d36"/><path d="M267.12,274.68c-.66,0-1.85.38-1.71-.57.21-1.28,1.49-.41,2.3-.5C268.08,274.28,267.5,274.42,267.12,274.68Z" fill="#978564"/><path d="M112.75.39c.9.64.82,1.27,0,1.91a.56.56,0,0,1-.63,0c-.81-.64-.89-1.29,0-1.93Z" fill="#6f532a"/><path d="M265.25,187.93a3.73,3.73,0,0,1,3.78-.58A7.32,7.32,0,0,1,265.25,187.93Z" fill="#7d653f"/><path d="M58.38,186.05c1.4-.75,2.58-.07,3.75.6A8.3,8.3,0,0,1,58.38,186.05Z" fill="#775d36"/><path d="M227.76,2.3c-.82-.64-.9-1.27,0-1.91h.62c.89.64.81,1.29,0,1.93A.56.56,0,0,1,227.76,2.3Z" fill="#6f532a"/><path d="M28.38,261.64c-.57-1-1.87-.3-2.51-1.13a3.91,3.91,0,0,1,3,.24C29.88,261.49,29,261.59,28.38,261.64Z" fill="#a89a7e"/><path d="M274,187.24c1.18-1.08,2.59-.44,3.91-.54A6.51,6.51,0,0,1,274,187.24Z" fill="#775d36"/><path d="M278,2.81c-1.34-.08-2.8.64-4-.59A6.55,6.55,0,0,1,278,2.81Z" fill="#785f37"/><path d="M71.27,187.35l3.36-.08.62.65A8.59,8.59,0,0,1,71.27,187.35Z" fill="#7d653f"/><path d="M312.83,156.08a2.57,2.57,0,0,1,.55-3.18A5.31,5.31,0,0,1,312.83,156.08Z" fill="#7a613a"/><path d="M26.46,147.89c1.21,1.19.5,2.67.58,4A6.19,6.19,0,0,1,26.46,147.89Z" fill="#7d653f"/><path d="M313.47,151.92c.08-1.36-.63-2.84.58-4A6.21,6.21,0,0,1,313.47,151.92Z" fill="#7d653f"/><path d="M66.49,2.22c-1.17,1.23-2.63.51-4,.59A6.55,6.55,0,0,1,66.49,2.22Z" fill="#785f37"/><path d="M312.2,160c.13-1.34-.66-2.82.64-4A6.63,6.63,0,0,1,312.2,160Z" fill="#7a613a"/><path d="M27.13,152.9a2.57,2.57,0,0,1,.55,3.18A5.31,5.31,0,0,1,27.13,152.9Z" fill="#7a613a"/><path d="M32.06,28.36c0,1.33.56,2.74-.55,3.91A7.93,7.93,0,0,1,32.06,28.36Z" fill="#866f4b"/><path d="M309,32.27c-1.09-1.18-.54-2.58-.54-3.91A7.79,7.79,0,0,1,309,32.27Z" fill="#866f4b"/><path d="M27.67,156c1.3,1.14.51,2.62.64,4A6.62,6.62,0,0,1,27.67,156Z" fill="#7a613a"/><path d="M62.59,186.7c1.31.1,2.73-.54,3.91.54A6.51,6.51,0,0,1,62.59,186.7Z" fill="#775d36"/><path d="M325.9,254.87v1c-.61.06-1.44.06-1.41-.64S325.37,254.87,325.9,254.87Z" fill="#988465"/><path d="M267.12,274.68c.2-.35.4-.71.59-1.07.48,0,1.21-.14,1.1.53C268.65,275.11,267.77,274.72,267.12,274.68Z" fill="#ab9b82"/><path d="M327.56,256.13c1.14-.13,2.3-.43,3.31.43A5.79,5.79,0,0,1,327.56,256.13Z" fill="#988465"/><path d="M227.76,2.3h.63l11.24,0,8.6.06a30.6,30.6,0,0,0,8.27.53.36.36,0,0,1,.63,0L274,4.18c1.34,1,2.87.69,4.37.65,3.18,1,6.49,1,9.77,1.26,1.27.61,2.73-.14,4,.53a.5.5,0,0,0,.52.09c2.76,1.15,6.15.94,8.13,3.77.85,2.52,1.69,5,2.53,7.55.36,3.51,2.81,6.35,3.16,9.86.86,1.65-.12,3.51.59,5.18,0,1.43-.34,2.93.69,4.2a22.81,22.81,0,0,0,1.18,6.24,8.63,8.63,0,0,0,.59,4.41q.35,9.67.7,19.35c0,1.25,0,2.5,0,3.75a88.71,88.71,0,0,0,0,11.87c0,.63,0,1.25,0,1.88a266.52,266.52,0,0,0,.65,29.37,165.57,165.57,0,0,1,1.38,26.61c-.08,2-.09,3.93-.13,5.9-.43,1.75-1,3.48-.72,5.33-.76,1.45.49,3.24-.79,4.6-1,3.08-.69,6.47-2.17,9.45a1.24,1.24,0,0,1-.2,1.83,3.65,3.65,0,0,0-.55,2.53c-.57,1.47-1.14,3-1.7,4.42a28.3,28.3,0,0,1-5.71,5.16l-3.22,1.57a3.18,3.18,0,0,0-2.48.61l-6.23,1.37c-2.11.74-4.34-.05-6.46.56l-.21-.1-.2.12c-1.25.81-2.74,0-4,.59l-1,.09a21.19,21.19,0,0,0-6.25.56c-1,.72-2.12.2-3.17.36h-3.32c-6.86,1.62-13.95.58-20.85,1.81-2.52.44-5.14-.47-7.65.46h.08c-1.61.77-3.5-.45-5.06.7l-.66.47a16,16,0,0,0-5.63.61c-.88,0-1.19-.36-1.29-1.27-.5-4.6-2.58-8.69-4.19-12.94a4.71,4.71,0,0,0-4.46-3.28l-.93-.07c-11.42-.7-14.19,1.75-16.6,14.7-.21,1.11-.48,2.21-.72,3.32-1.16,1.28-2.35.73-3.55.08a46.18,46.18,0,0,0-11.81-8.66,8.58,8.58,0,0,0-4.4-1.86A46.75,46.75,0,0,0,163.32,175c-1.28-.31-2.69-.4-3.67-1.5-9.68-2.08-18.55.36-26.79,5.25-4.87,2.9-9.82,5.83-13.81,10a4.19,4.19,0,0,1-2.55,1,16.41,16.41,0,0,0-5.62-.6l-.21-.13-.23.07a8.83,8.83,0,0,0-.8-.43c-1.49-.29-3.07.1-4.48-.69h.08c-2.19-.85-4.46-.26-6.7-.38-5.15-.29-10.29-.82-15.45-1-2.13-.08-4.14-1.28-6.37-.89-1.11-.11-2.26.25-3.33-.27l-10-.7-.17-.12-.19.08c-1.28-.62-2.77.22-4-.59l-.2-.12-.21.1c-2.12-.61-4.35.18-6.46-.56l-6.23-1.37a3.13,3.13,0,0,0-2.47-.61L40.2,180a28.24,28.24,0,0,1-5.7-5.16l-1.71-4.42a3.65,3.65,0,0,0-.55-2.53c-.65-.45-1.16-1-.77-1.84.09-3.26-1.44-6.2-1.83-9.37-.76-1.49.08-3.17-.56-4.67-1.2-1.65-.25-3.59-.72-5.33,0-5.7,0-11.39-.16-17.08-.18-5.22,1.51-10.24,1.41-15.43a269,269,0,0,0,.66-29.37c0-.63,0-1.25,0-1.88a88.71,88.71,0,0,0,0-11.87c0-1.25,0-2.5,0-3.75q.34-9.67.7-19.35a8.63,8.63,0,0,0,.59-4.41,22.81,22.81,0,0,0,1.18-6.24,11.37,11.37,0,0,1,.69-4.2c.71-1.67-.27-3.53.59-5.18,1-3.28,1.58-6.72,3.15-9.84l2-7.56c.08-.26.23-.32.47-.19,2.2-2.47,5.43-2.55,8.25-3.59a.5.5,0,0,0,.52-.09,8.61,8.61,0,0,0,3.86-.53A.44.44,0,0,0,52.76,6c3.15-.2,6.32-.25,9.38-1.19a7.64,7.64,0,0,0,4.37-.65L83.38,2.89a.36.36,0,0,1,.63,0,30.6,30.6,0,0,0,8.27-.53l8.6-.06,11.25,0h.63l6.87,0c13.3.08,26.6-.06,39.88.32,20.47.59,40.91-.68,61.37-.32Z" fill="#fefefe"/><path d="M218.38,285.4c4.79-1.07,9.69-1.58,14.37-3.13.35.7-.1,1.17-.5,1.64-3,3.57-2.78,4.59,1.39,6.6,2.64,1.48,3.22,3.51,1.61,6.12a16.25,16.25,0,0,1-4.29.64c-14.25,0-28.49,0-42.74,0-1,0-2.1.25-3-.55-1-1.84-2.94-3.26-2.7-5.71,0-.44-.31-.73-.69-.94-2.13-1.18-2.59-3.36-3.19-5.42-.4-1.39-.6-2.82-1.74-3.88a1.56,1.56,0,0,1-.55-1.94c.5-.87,1.32.1,2-.17l.67.51c.61.87,1.7.77,2.51,1.25l6.23,2.5c2.53,1.62,5.94,1.67,7.85,4.4.3.43,1,.82,1.35.57,2.38-1.59,3.79.37,5.5,1.35,1.13.64,2.36,1.73,3-.59.46-1.58,1.51-.82,2.48-.44s2.33.83,2.1-1.21c-.17-1.58,1.05-1.17,1.89-1.25C214.1,285.52,216.27,286.11,218.38,285.4Z" fill="#d5681a"/><path d="M190.83,205.37a100,100,0,0,1-6.16,19,2.44,2.44,0,0,1-1.75.46c-4.52-1.11-9.17-.73-13.73-1.27-1.05-.46-1.34-1.06-.14-1.66a9.19,9.19,0,0,1,3.38-.45c.94-.08,1.81,0,2.23-1.23.51-1.44,2.69-2.22,2.24-3.88-.37-1.37-2.37-2-2.49-3.66-4.27,1.5-7.95,4.08-12.29,5-1.19.24-2.62,1.47-3.6-.32-.87-1.57,0-2.78,1.08-3.87,3.46-.94,3.29-4.12,3.81-6.64.69-3.33,4.36-6.61,7.76-6.36,2.86-.18,5.71-1.07,8.58-.1,1,1.18,2,2.25,3.5.6A9,9,0,0,1,190.83,205.37Z" fill="#da8d24"/><path d="M210.89,283.46H208.4c-.24-1.47.73-2.78.56-4.22a2.34,2.34,0,0,1,.29-.46c-.39,0-.09.47-.36.59-.65,1-2,1.27-2.33.48-.82-1.74-2.73-2.79-3.19-4.39a6.12,6.12,0,0,0-3.56-4.3c-1.51-.74-2.55-1.94.09-2.79a112.28,112.28,0,0,1,12.44-.14,46,46,0,0,0,13.52-1.62,91.16,91.16,0,0,0,9.78-2.4,2.26,2.26,0,0,1,1.37.31c.57,1.63-.59,2.46-1.23,3.67,2.1,1.75,5.26,3.09,6.31,6.5l-3.72,2.55c-1.6-1.15-4-1.56-3-4.69.58-1.95-2.19-.82-3-2.08,1.27,3.23.42,6.28-.15,9.33a43.48,43.48,0,0,1-15.57,3.12C214.75,283.83,212.71,282.44,210.89,283.46Z" fill="#d56819"/><path d="M168.38,222.91a50.23,50.23,0,0,1,16.29,1.42l-.75,1.87c-1.69,1.07-3.44.08-5.17.13-3,.08-6-.26-9,.09a19.38,19.38,0,0,0-12,6.64,17.48,17.48,0,0,0-3.38,3.8c-.89,1.15-1.54,2.51-2.79,3.37-1.67.68-1.85-.28-1.72-1.57a32.85,32.85,0,0,1,4.29-6.63,16.1,16.1,0,0,1,3.93-3.18c.66-.46,1.29-1,2-1.39.34-.21-.1.09.25-.14-.21,0-.32.16-.5.23-.65.48-1.3.93-2,1.38-1.15.5-2,1.45-3.16,2a25.22,25.22,0,0,0-8.52,10.57,35.11,35.11,0,0,0-3.85,11.63c-.38,2,.21,3,2.4,2.48,1.4-.34,2.86-.33,4.24-.76.89-.21,1.79-.39,2.67-.65a76.89,76.89,0,0,0,13.33-4.26c1.63-.76,3.39-1.2,5-1.89,2.51-1.1,5-2.27,7.47-3.48.27,0,.41.09.4.24s0,.29-.11.29c-.12,1.14.41,2.38-.49,3.41-2,1.27-4.47,1.78-6.43,3.24-3.46,1.46-7.08,2.49-10.6,3.82A81.22,81.22,0,0,1,145,259.34a19.3,19.3,0,0,1-2.15,0c-3.08-.15-3.9-1-4.11-4.14a25.37,25.37,0,0,1,1.94-10.51,44.47,44.47,0,0,1,2.54-5.69c1.34-1.91,2.26-4.12,4-5.73.82-.78,1.63-1.57,2.4-2.4a5.85,5.85,0,0,1,.61-.61,47.27,47.27,0,0,1,8.86-5.49,28.24,28.24,0,0,1,6.54-2C166.57,222.75,167.49,222.38,168.38,222.91Z" fill="#684817"/><path d="M209,279.14c1.65,1.71.08,3-.61,4.33-8.62-.22-17.09-1.24-25-5-.55-.37-1-.8-.52-1.49s.84-.8,3.36-.4c.61-1.84,0-4.38,2.88-4.92a3.23,3.23,0,0,1,.68,1c.29.5.46,1.29,1.27,1,.52-.19.53-.83.51-1.33,0-1.24-.85-.84-1.51-.67a1.07,1.07,0,0,1-1.33-.41,4.11,4.11,0,0,1,3.66-4.15c2.3.51,5-.44,6.79,1.94.42,1.36.39,1.64,1.54,1.76,2.21.24,2.69,2,3.37,3.49.38.82-1,2.72,1.62,1.43,1.15-.56.31,1.2.38,1.79C206.35,279.6,207.08,280.32,209,279.14Z" fill="#c9681f"/><path d="M235.25,296.63c-.18-2,.82-4.43-1.87-5.61-.32-1.64,1.05-2,2-2.68,1.54-1,1.45-2,.12-3.2-.94-.83-2.42-1.31-2.2-3l1.3-.54c.76.23,1.5.4,1.77-.67,3.58-2.21,7.63-3.77,10.19-7.39.68-.58,1.12-.21,1.44.4a7,7,0,0,1,.46,6c-1,2.56-1.57,4.86-.16,7.63,1.12,2.18.52,5.11,2.78,6.92-1.3,1.19-2.83.08-4,.91Z" fill="#d46a20"/><path d="M247.14,295.38c.83-1.09,2.16-.29,3.27-.86-1.91-.94-1.88-2.79-2.49-4.39-1.68-4.42-1-8.76,0-13.12.35-1.52-.59-2.45-1.39-3.47.19-.42.38-.84.56-1.27.1,0,.22-.13.28-.11,2.25,1.12,4.07,1.16,4.74-1.83,2.26,2.87,2.75,6.41,3.63,9.78s1.29,6.71,2.26,10c.68,2.28-.14,3.26-2.08,4A20,20,0,0,1,247.14,295.38Z" fill="#c06824"/><path d="M178.34,278.63c0,1-2.47.11-1.37,1,2.81,2.19,1.87,5.75,3.71,8.2.62.83.65,2,2.11,1.46.41-.14,1.1.22.93.46-1.95,2.9,2,4.46,1.52,7-3.77.2-7.44-.76-11.18-.94-3-3.13-4-7.09-4.3-11.2-.27-3.57,1.66-6.3,4.29-8.56Z" fill="#d46921"/><path d="M192.2,267.86c-2.1.39-2.56,2.15-3.19,3.78-.81,1.52-2.37,2.62-1.59,4.86.45,1.3-.4,2-1.9,1-1-.69-2.59-1.67-2.14,1-3.13-.72-5.56-2.67-7.82-4.75a5.58,5.58,0,0,1-1.66-5.91c.6-2.06,1.23-4.11,1.85-6.16,2,.26,3.54,1.7,5.51,2,2.85,1,5.68,1.92,8.6,2.62C190.78,266.53,192.05,266.42,192.2,267.86Z" fill="#c26822"/><path d="M174.05,276c-1.33,1.28-1.84,3.12-2.71,4.65-1.59,2.79-1,6,.31,9,.89,2,1.62,4.05,2.41,6.08-.85-.14-1.71-.26-2.56-.39-1.6-.8-3.41.21-5-.59h0c-1.62-3.22-4.11-6.11-3.78-10a36.4,36.4,0,0,1,3.06-11.91c2.08.2,1.86,2,2.44,3.47.95-1.88,2.37-2.83,4.49-2.12C173.16,274.77,173.6,275.38,174.05,276Z" fill="#c16722"/><path d="M200.91,179.15c.43-1.24.87-2.48,1.31-3.72a1.25,1.25,0,0,1,1.22.5c2.68,2.37,5.84,1.91,9,1.48,1.1-.15,2.11-.75,3.27-.65a2.43,2.43,0,0,1,1.49,1.13c2.38,5.11,4.13,10.47,6,15.77-2.14,1.27-4.29,2.48-6.8.88-.85-1.19-.55-2.59-.7-3.9-.28-2.52-1.44-4.3-4.14-4.63a2.71,2.71,0,0,1-2.38-1.55c-2.08-3.71-3.45-3.88-7-1.25a2,2,0,0,1-1.73,0C199.63,181.73,201.3,180.56,200.91,179.15Z" fill="#bc6927"/><path d="M187.88,222.8l8.1-29.15c1-1.06,2.1-.18,3.16-.07,1.38.68,3.24-.13,4.35,1.38a57.86,57.86,0,0,0-5.28,8.14,45.41,45.41,0,0,0-3.8,10,50.18,50.18,0,0,0-1.57,11.79,1.92,1.92,0,0,1-1.29.37A4.94,4.94,0,0,1,187.88,222.8Z" fill="#eedbc8"/><path d="M179.59,200.4c-.28.29-.8.85-.82.84-2.37-2-4.89.83-7.26-.22-.55-.66-1.73.09-2.11-.94.11-1.07-.81-2-.41-3.11,3.56-2,7-4.21,11.45-2.17,1.48.67,3.89-.43,3.58,2.6.43-.13.11-.63.43-.83,1.92-.24,3-1.53,3.93-3a3.49,3.49,0,0,1,1.84,1.24c-.8,1.63,1.06,3.54-.67,5.22-.35.34,1.47,1.28,1.89,2.27-.2,1-.41,2.07-.61,3.11-2.59-1.3-4.68-3.48-7.54-4.31A6,6,0,0,1,179.59,200.4Z" fill="#dfa031"/><path d="M231.13,221.69q2.61,8.48,5.21,17a5.68,5.68,0,0,1-3.12,1.59,2.7,2.7,0,0,1-1.32-.08c-.66-.28-1.19-.88-1.94-1-1.67-.18-2-1.21-1.81-2.65.18-1.88.21-3.76-1.22-5.29-.81-2.14,0-4.35-.25-6.52a1.89,1.89,0,0,1,.79-1C228.82,223.28,229.78,222.12,231.13,221.69Z" fill="#ba6022"/><path d="M187.88,222.8l3.62,2a3.38,3.38,0,0,1,.22,3.8c-1.88,2.83-.59,6.53-2.76,9.23-.28.34,0,1-.1,1.52a1.84,1.84,0,0,1-1.87,1.7,4.88,4.88,0,0,1-4.24-2C184.32,233.6,185.53,228,187.88,222.8Z" fill="#bd5b1d"/><path d="M218.38,285.4c-1.9,1.24-4,.35-6,.62-.84.12-2.45-.44-1.1,1.46.21.3-.48,1.79-.78,1.8-1.41.05-3.22,1.17-3.85-2.17-.71,4.18-1.64,4.44-4.53,2.84-1.38-.77-2.63-3.48-4.8-.89-.3.35-1.34,0-1.64-.53-1.74-3.16-5.75-3.1-7.91-5.64C197.78,285.91,208.09,285.54,218.38,285.4Z" fill="#cc681d"/><path d="M233.35,239.76a5.09,5.09,0,0,1,3-1.11c.69,2.44,1.37,4.89,2.06,7.33.79,2-1,3.62-.75,5.54-.83,1.92-1.33,4.08-3.56,5a3.31,3.31,0,0,1-.94.1c-1.78-.22-2.81-1.1-2.71-3a4.55,4.55,0,0,0-.63-2.35,4,4,0,0,1,.95-5.51c.92-.61,1.73-1.79,2.57-2,1.47-.32,1-.93.83-1.75S233.54,240.54,233.35,239.76Z" fill="#efddcc"/><path d="M160.24,254.85l10.53-3.94c1.9-.08,3.68-1.49,5.67-.51-.71,1.92-.21,4.34-2.36,5.66a4.64,4.64,0,0,0-4.58.8,30.81,30.81,0,0,1-7.86,4.15,3.28,3.28,0,0,1-2.55.21A13.94,13.94,0,0,1,160.24,254.85Z" fill="#dd9b32"/><path d="M182.75,239.07c1.45.41,2.74,1.36,4.32,1.35,1,.8,2.61-.77,3.32.94-2.13,2.73-4.38,5.4-4.65,9.1a4.48,4.48,0,0,1-2.15,3.25c-3.92-1-3.92-1-4.07-4A65.15,65.15,0,0,1,182.75,239.07Z" fill="#efdecd"/><path d="M172.71,274.17c-.77,1.14-2.42,0-3.36,1.48-.54.84,0,1.41-.34,2.11-2.24-.93-1.44-3.8-3.23-4.94.72-3.59,2.45-6.82,3.75-10.2a3.12,3.12,0,0,1,1.13-1.43c.65-.44,1.47-1.07,2.27-.47s.2,1.34-.05,2C171.38,266.51,170.83,270.32,172.71,274.17Z" fill="#bb6625"/><path d="M179.52,249.73c2.28.36-.28,1.84.8,2.67,1.94-2.52,2,.61,3,1.11.75,2.54,1.32,5.1-.74,7.31-.92,1-.27,2.73-1.77,3.37a8.87,8.87,0,0,1-5.1-2.51C177,257.71,177.78,253.57,179.52,249.73Z" fill="#f1e3d4"/><path d="M166.46,297.29c6,.4,12.07.79,18.06,1.68a22.71,22.71,0,0,0,3.4.16l41.68.06c0,1-.69.87-1.27.87-13.56,0-27.11.06-40.67,0-.19,0-.37-.16-.56-.24-7.5,0-15,0-22.41-1.28a7.62,7.62,0,0,1-1.39-.53C164,296.19,165.3,297,166.46,297.29Z" fill="#bf601a"/><path d="M252.15,270.33c-.05.31,0,.73-.17.9-.95.89,1.39,2.11.08,2.3s-3.13,1.32-4.16-.75c-.12-.24-.5-.34-.77-.51.2-3.08.56-6.17-.82-9.12-.33-.73-.89-1.92,0-2.2s2.57-.33,3,1C250.21,264.73,252.57,267.07,252.15,270.33Z" fill="#b75b20"/><path d="M237.13,251c-.88-2,1.26-3.26,1.27-5,2,5.08,3.29,10.4,4.87,15.63a2.07,2.07,0,0,1-2.45,1.46c-3.85-1.63-4.62-3.12-3.8-7.22C237.35,254.25,236.85,252.63,237.13,251Z" fill="#ead2ba"/><path d="M240.87,262.84l2.4-1.23c.78,3.33,3.18,6.43,1.42,10.11-.92-.13-1.74-.56-2.69-.65-4.44-.39-5.92-3-4.07-7.09C238.75,263.19,239.6,262.47,240.87,262.84Z" fill="#c75b1b"/><path d="M233.31,282.14c.91.81,1.79,1.66,2.75,2.41,2.28,1.76,2.2,3.32-.41,4.53a4.43,4.43,0,0,0-2.27,1.94c-1.74-.36-3.9-1.1-4-2.72s-.24-4.15,2.4-4.87c.39-.1.63-.76.93-1.16A3.5,3.5,0,0,1,233.31,282.14Z" fill="#d46c2c"/><path d="M232.15,279.81c-.57-1.08-1.9-2-.15-3.4a3.91,3.91,0,0,0-.63-4.45c-.86-.78.34-2,.59-3.22,1.19.52,1.3,2.56,3,1.54.21-.12,1.15,1,1.76,1.51-2.43,2.73,1.27,3.59,1.65,5.46C236.37,278.27,234.48,279.58,232.15,279.81Z" fill="#d56d23"/><path d="M198.87,194.21l-2.89-.56c1-3,1.91-5.94,2.86-8.91.72-.42.44-1.62,1.43-1.83l1.86,0a2.3,2.3,0,0,1,.77,1.23c.66,1.77,1.27,3.5-.25,5.23A3.87,3.87,0,0,0,202,192C202.12,194.48,200.87,194.86,198.87,194.21Z" fill="#c35e1f"/><path d="M216.45,194.7c2.38.48,4.42-1.22,6.75-1,.3,1.37,1,2.66.86,4.13-1.06,1.72-1.56,3.29,1.17,3.87v0c.12,2.55.57,5.14-.57,7.6-2.1-.05-2.66-1.72-3.16-3.24a25.36,25.36,0,0,1-1.44-5.22c-.26-2.82-1.7-4.18-3.86-5.33-.24-.42-.62-.92-.08-1.28C216.47,194,216.5,194.42,216.45,194.7Z" fill="#f0e0d0"/><path d="M187.1,299.79c13.08,0,26.16,0,39.25,0,1.09,0,2.3.4,3.25-.56l10-.66c1.48.75,3-.27,4.44,0,1.06.18,2.25-.28,3.13.68a7.63,7.63,0,0,1-1.73.53c-18.78.81-37.57.61-56.36.63A2.44,2.44,0,0,1,187.1,299.79Z" fill="#b56221"/><path d="M231.13,221.69c-.35,1.89-1.89,2.12-3.38,2.44-.5-.37-1.19-.8-1.15-1.38.22-3.73-2.49-6.94-1.87-10.73,1.44-.67,2.88-1.37,3.63.87C229.28,215.82,230.21,218.75,231.13,221.69Z" fill="#efdfcf"/><path d="M238.38,264.22c-2,2,0,3.49.64,5.14s2.16,1.2,3.19.84c1.68-.58,1.95.55,2.48,1.52a4.18,4.18,0,0,1-2.6,3c-2.13-1.23-3.28-3.48-5.41-4.83-2.45-1.56-.87-3.5.44-5.13C237.18,263.7,237.71,263.77,238.38,264.22Z" fill="#d1621b"/><path d="M162.72,284.73c1.22,2.94,1.93,6.13,4.09,8.65.18.22-.2.92-.31,1.4-5.46-.45-6.5-1.86-4.87-6.88C162,286.85,161.85,285.61,162.72,284.73Z" fill="#b56122"/><path d="M217.17,177.89l-1.29-.62c-1.15-.82-2.13.13-3.18.31-3.5.59-6.92.68-10-1.61l-.52-.54c.28-1.23,1.28-1.24,2.24-1.33,2.72.1,5.45,0,8.17.05a9.67,9.67,0,0,1,3.27.66A6.51,6.51,0,0,1,217.17,177.89Z" fill="#b86929"/><path d="M247.21,299.19c-2.51-.41-5.14.64-7.57-.66,4.29-.49,8.59-.91,12.86-1.53a16.25,16.25,0,0,0,6.1-2.15c-1.36,2.45-2.68,3.55-5,3.78A38.53,38.53,0,0,1,247.21,299.19Z" fill="#c26828"/><path d="M168.89,226c5-1.2,10-.73,15,.25a7.36,7.36,0,0,1-1.1,3.7c-1.17-1-2.65-.63-4-.9a47.24,47.24,0,0,1-5.83-1.78C171.72,226.54,170,227.3,168.89,226Z" fill="#da9425"/><path d="M161.53,260.42a51.84,51.84,0,0,0,9.62-5.58c1.64-1.22,2,.74,2.93,1.22l-3.83,2.4c-2.51.22-4.37,2.15-6.79,2.6C162.68,261.25,161.76,261.88,161.53,260.42Z" fill="#edd856"/><path d="M191.44,202.26c-1,.05-1.45-1.36-2.71-1-.63.16-1.11-1.12-.84-1.23,2.68-1.05.88-3.35,1.52-4.92.07-.18.53-.21.81-.31l3.07,2C193.27,198.84,192.11,200.47,191.44,202.26Z" fill="#e2aa39"/><path d="M228.36,212.89c-1.05-1.45-2.52-.35-3.76-.61-1.87-1.05-.21-2.08,0-3.12-.55-2.56.14-5,.62-7.48A77.6,77.6,0,0,1,228.36,212.89Z" fill="#efddcc"/><path d="M179,228.52c1.14.82,3.65-2.13,3.81,1.38a10.32,10.32,0,0,1-1.82,5.56,3.39,3.39,0,0,1-2.88-1C177.29,232.3,178.82,230.51,179,228.52Z" fill="#dfa128"/><path d="M178.37,234.15c.8.58,2,.43,2.62,1.31l0,0c-1,.64-.05,1.81-.66,2.56a7.06,7.06,0,0,1-1.25,3.69l-.41,0a2.75,2.75,0,0,1-2.29-.71c-.23-1.09.41-1.89.93-2.73.74-.87.49-1.81.26-2.79C177.4,234.87,177.15,234,178.37,234.15Z" fill="#e1b02c"/><path d="M192.36,189.66a4.13,4.13,0,0,0,3.45.54l-1.75,4.63,0,0c-1.24-1.44-3.47-1.92-4-4.09A1.68,1.68,0,0,1,192.36,189.66Z" fill="#6c4c1f"/><path d="M213.46,174.66c-3-.12-6.08.81-9-.56a25,25,0,0,1,10.23,0C214.43,174.62,213.8,174.32,213.46,174.66Z" fill="#d8a97f"/><path d="M225.23,201.66c-.61.14-.81,1.57-1.64.72s-1.67-1.77-1.41-3.18c.21-1.11,1-1.3,1.88-1.41A7.89,7.89,0,0,1,225.23,201.66Z" fill="#efddcc"/><path d="M176.44,250.4c-1.87.35-3.71,1.1-5.67.51,2-1.11,4-2.5,6.48-2.4Z" fill="#d8a64b"/><path d="M166.46,297.29c-1.07.12-2.3-.43-3.16.69-1.49-.26-2.1-1.46-2.7-2.87Z" fill="#ab5b20"/><path d="M200.27,182.91c-.42.65-.51,1.56-1.42,1.83q1-2.79,2.06-5.59C201.82,180.59,200.54,181.66,200.27,182.91Z" fill="#a96d40"/><path d="M210.89,283.46c.41-.41.36-1.7,1.3-1.08,1.44.94,2.95.25,4.39.55C214.76,283.94,212.8,283.41,210.89,283.46Z" fill="#c9681f"/><path d="M236.38,280.93c1,.75-1.3,1.32.59,2.14a2.26,2.26,0,0,1-2.36-1.47C235.05,281,235.74,281,236.38,280.93Z" fill="#d46c2c"/><path d="M166.5,294.78c1.66.24,3.45-.6,5,.59C169.83,295.17,168.05,295.94,166.5,294.78Z" fill="#b56122"/><path d="M179.05,241.68c0,1.29-.16,2.55-1.31,3.42a.53.53,0,0,1,0-.33c-1.28-1.66-1-2.75,1.15-3.18Z" fill="#e1b02c"/><path d="M181.52,280.39c-1-.11-2.31.43-2.51-1.25A3.67,3.67,0,0,1,181.52,280.39Z" fill="#d46921"/><path d="M213.46,174.66l1.23-.57a1.37,1.37,0,0,1,1.21.72Z" fill="#dcc0a4"/><path d="M180.3,238c0-.9-1-2.09.66-2.56C180.89,236.32,181,237.27,180.3,238Z" fill="#dfa128"/><path d="M141.59,244.17c-.66,3.42-2.13,6.64-2.05,10.24.09,4,.05,4.09,4.17,4.09l1.54,0c.18.7-.22.92-.81.93-.39,0-.76.07-1.15.09.38.15.83-.22,1.17.09,1.23,1.13.58,2.47.39,3.75a1.41,1.41,0,0,1-.67.51c-1.08,0-2.08.64-3.27,0-1.41-.8-1.39,1.1-2.21,1.51a8.64,8.64,0,0,1-3.19,1.49c-3.46.45-5.7-.71-6.46-3.93-.38-1.62-2.92-1.39-2.37-3.4a4.05,4.05,0,0,1,2.31.2l3.14.06c.73-.93,1.91-.43,2.8-.88-1.19.25-2.37.44-3.43-.4l-1.16,0c-1-.67-2.22.1-3.2-.56-3.83-.89-7.68-1.64-11.25-3.44a4,4,0,0,1-2.58-4.12c.2-5.67-.25-11.37,1.26-16.94,1,2.43,2.14,4.6,5.37,4.49,1,0,1.17,1.28,1.6,2.08,1,1.8-.18,3.64.11,5.46-.07.77-2.25,1.43-.1,2.29.78.6,1.52-.43,2.29-.07.74.74.22,2.37,1.8,2.51,1.23.51,2.07,1.79,3.43,2a4.06,4.06,0,0,0,4.32-4,7.3,7.3,0,0,1,.63-2.68C136,242.49,138.09,242.13,141.59,244.17Z" fill="#d98a22"/><path d="M141.59,244.17c-2.4.33-5.56-2.23-7,1.85-3.79,3.07-7.93,2.13-9.51-2.29-.75-2.12-2.91-2.13-4.24-3.34-.53-.76-.25-1.93-2.21-1.52-2.23.47-4-2.34-4.1-5.45,0-1.06-.14-2.16.65-3.06a1.53,1.53,0,0,1,.55.68c.33.7.22,1.57,1.17,2a58.46,58.46,0,0,1,8.76,5.11c3.42,2.49,5.84.72,8.8.51,1.89-.13,3.85.64,5.46-1,1.62-.33,3.11-.3,4,1.43Z" fill="#dd9928"/><path d="M175.37,187.85c3.24.91,6.55,1.63,9.24,3.85-.1,1.59-1,2-2.47,1.82-3-.42-5.79-1.15-8.82.72-.86.54-3.06,1.65-4.86.87l-.69-.47c-.77-.34-1.52-.56-2.12.29a5.6,5.6,0,0,0,0,1.53,1.18,1.18,0,0,1-1.45,1.14c-.7.13-.94-1.46-1.86-.48-2.08.63-4.28.76-6.32,1.57-1.57-.29-2.6-.91-1.71-2.74a2.51,2.51,0,0,1,.73-.46c1-.2,1.76-.85,2.73-1,3.2-.14,5.36-2.79,8.38-3.41,1.56-.33.46-1.75.88-2.57C169.88,189.15,172.53,187.22,175.37,187.85Z" fill="#ebc748"/><path d="M154.08,183.55c-4.36,1.18-8.3,3.42-12.5,5-.55.33-.75,0-.9-.46a2.18,2.18,0,0,1,.51-1.07c.22-.32.75-.29.8-.77a1.14,1.14,0,0,1-1.14-.12c-.83-1.61.39-3.26-.13-4.88,0-.1,0-.23.07-.29,1.21-1.25,3.12-1.58,3.72-3.19-.66-.11-2.08.7-2.38-1.14a12.2,12.2,0,0,1,4.33-1.3c3.7.31,4.16,1,3,4.39a2,2,0,0,0-.09,1.46c.86.53,1.93.24,2.78.76A6.91,6.91,0,0,1,154.08,183.55Z" fill="#e0a635"/><path d="M118.89,218.35a20.38,20.38,0,0,1,3.25-7.29c.58,1.18,3.85,1,1.77,3.54-1.26,3.26-.73,4.33,2.47,5.09,1.11.26,2.24.33,3.36.5a3.4,3.4,0,0,1,2.93,2.42c.48,1.52-.3,2.55-1.62,3.25-3.39-.17-6.83,0-10-1.47-1.45-.91-2.33-2.25-1.71-3.88C119.71,219.5,118.51,219.14,118.89,218.35Z" fill="#f1dd38"/><path d="M123.38,214.14c-.08-.42,1.7-1-.09-1.25-1.19-.17-1.13-1-1.15-1.83a28.34,28.34,0,0,1,8-10.11c.71-.29,1.16.08,1.55.59a4.55,4.55,0,0,1-1.66,4.65,6.4,6.4,0,0,0-1.91,2.38c-.35.87-1.23,2.06,1,2.32a7.15,7.15,0,0,1,3.19,1.9,11.2,11.2,0,0,1-1.89,4.53,2.21,2.21,0,0,1-2.88.16c-1.14-1,.43-1.68.46-2.56-.89,1.63-2.2,3.06-4.16,2.41C122.28,216.83,123.11,215.29,123.38,214.14Z" fill="#f5e74a"/><path d="M92.13,241c.8-.65,1.57-1.35,2.4-2,3.35-2.4,3.79-2.27,5,1.45a16.4,16.4,0,0,0,2,6.73,3.14,3.14,0,0,1-3,1.28c-.64,0-1.24-.28-1.88-.36-1.24-.14-2.52.06-3.71-.47A5,5,0,0,1,92.13,241Z" fill="#d98a22"/><path d="M126.5,259.83c1.79.93,4.2,1.34,3.28,4.39-.21.68,4.24,2.14,5.48,1.8,1.18,1.2-1.19,2.64.28,3.81.34.35.6.72.34,1.23-1.9,1.47-4.14,1.4-6.35,1.45-1.89-.11-3.82.25-5.67-.35a1.33,1.33,0,0,1-.66-.66c.46-1.18,2.38-1.36,2-3.28-.14-.7,1.14-.41,1.83-.27,1.06.23,1.22,1.68,2.73,1.83-1.85-2.16-3.46-4.08-6.4-3.89a1.5,1.5,0,0,1-.88-.91,7,7,0,0,0,.29-5.8h1.81C125.1,259.73,126,259.15,126.5,259.83Z" fill="#dc9525"/><path d="M115.32,231c0-.22-.06-.43-.1-.64a42.22,42.22,0,0,1,1.88-7.52c1.36.77,3.3,1.2,1.73,3.48-.53.76.26,1.52.39,2.28.15.58-1.24,1.46.47,1.75a24.22,24.22,0,0,1,8.72,3.74c1.91,1.21,4.17.24,6.22.81.48.13,1,.08,1.42.45a1.47,1.47,0,0,1,.08,1.29c-3.27,2.84-6,3.27-9.63,1.21-2-1.14-4.2-1.66-6.25-2.61A13.84,13.84,0,0,1,115.32,231Z" fill="#e6bb30"/><path d="M119,228.52c-.89-.79-2.79-1.25-.72-2.87.82-.64,1.45-1.58-.58-1.38-.93.1-.38-.94-.6-1.43a8.76,8.76,0,0,1,1.79-4.49c.76.18,2.64-.69,1.35,1.42a2.66,2.66,0,0,0,.64,3.75,5.58,5.58,0,0,0,4.49,3c2,.34,5.24.41,6.1,3.63.2.75,1.32.35,2,.62a1.56,1.56,0,0,1,.33,2.6c-.57.68-1.48,1.26-2.12.58-2.46-2.58-5.84-1.72-8.75-2.58C121.27,230.92,119.73,230.25,119,228.52Z" fill="#eccd33"/><path d="M109.64,228.53a9.4,9.4,0,0,0-1.31,5.51,2.14,2.14,0,0,1-.76,1.06c-1.7.41-2.51-.56-2.17-2,.53-2.25.2-3.56-2.36-3.78-.65-.06-.78-.87-.75-1.52a2.53,2.53,0,0,1,.32-.8c1.75-1.79,1.7-3.88,1-6.08a1.94,1.94,0,0,1,.51-1.56c1.13-1.48.83-3.85,2.93-4.74,1,1.89,1.94,3.92,4.61,3.87a3,3,0,0,1,.71,2c-.37,1.33-1.54,1.78-2.61,2.37-.72.41-2.31-.08-2.09,1.19s.3,2.94,2.13,3.29A1,1,0,0,1,109.64,228.53Z" fill="#ebc942"/><path d="M168.4,194.14c2.59,2.34,1.28-1.53,2.76-1.5.61.12,1.89,3.35,2.45-.31,2.67,0,5.42-.34,8,.22,1.5.33,2.2.11,3-.85a3.47,3.47,0,0,1,2.53,1.17q.69.94-.42,1.35c-.17.06-.58-.13-.51.06.76,1.89.78,1.88-1.58,2.37l.14,2.26a4.51,4.51,0,0,1-.8-.25c.37-4.21-4.27-2-5.4-4.21-1.35,2-4.19-1.16-5.58,1.71-.39.79-2.83.13-4.06,1.15a3.26,3.26,0,0,1-2,.81c-.44.09-.88.22-1.33.27-.74-.07-1.66.11-1.55-1.12a1.16,1.16,0,0,0,1.25-1.3C166.2,195.17,167.43,194.88,168.4,194.14Z" fill="#e5b43e"/><path d="M122.76,259.18c2.13,1.87,2.32,3.73,0,5.59a3,3,0,0,1-3.65-.89A9.19,9.19,0,0,0,115,261.2a4,4,0,0,1-1.17-.58c-1.83-2.86-4.74-4.57-7.23-6.73-.25-.41-.39-.83,0-1.22a2.21,2.21,0,0,1,1.79.2C113.1,255.25,117.61,258,122.76,259.18Z" fill="#de9f27"/><path d="M112.16,233.53a151.44,151.44,0,0,0-.78,15.21c0,.87.83,2.46-.7,2.51a2.38,2.38,0,0,1-2.33-2.46c0-3.43-.1-6.87.22-10.27a57.43,57.43,0,0,1,1.71-7.46.51.51,0,0,1,.71-.14C111.75,231.62,111.69,232.69,112.16,233.53Z" fill="#d78a23"/><path d="M175.37,187.85c-2.15.26-4.28.59-5.74,3.72,0-2.55-1.11-3-2.5-3-1.37,1.18-2.55,3-4.63.93-.59-.57-1.37.08-2,.35-1,.43-2,.59-2.83-.38a4.63,4.63,0,0,1-.29-.54C156.1,186,156.1,186,159,185.34A39,39,0,0,1,175.37,187.85Z" fill="#e8be44"/><path d="M107.13,214.77c-.84,1.66-1.68,3.33-2.53,5-1.54-.61-1.84-1.71-1.27-3.17a14.73,14.73,0,0,1,2.43-5.63c1.14-.46.95-1.64,1.34-2.51.83-2.3,1.72-4.56,3.61-6.25.88-.45,1.19-2,2.63-1.33.56,1.34-.46,2.26-.88,3.34-.48.66-1.16,1.3-1,2.17.44,2.46-1,4.05-2.39,5.72C108.32,212.92,108.44,214.37,107.13,214.77Z" fill="#e5b930"/><path d="M148.46,181.68c-.48-.31-.31-.62-.07-1,1.7-2.62,1.28-4.49-1.93-5.33l.66-.59c2-.65,4.06-.12,6.08-.3,2,.17,1.35,3.19,3.47,3.25,1.34,1.14,1.72,2.23-.2,3.17a11.92,11.92,0,0,1-3.22.88C151.66,181.27,150,182.31,148.46,181.68Z" fill="#e7bf58"/><path d="M159,185.34c-3.2.33-.55,2.63-1.27,3.8a1.49,1.49,0,0,1-.73.47c-3.33-.76-6.15,1.07-9.17,1.85a5.89,5.89,0,0,1-1.76-.33,3.41,3.41,0,0,1-2.21-1.42C148.59,187.07,153.35,184.61,159,185.34Z" fill="#e7bd3b"/><path d="M142.13,176.65c.78,1.13,2.27.17,3.12,1.07-.4,2.48-3.55,1.9-4.37,3.93l-.35.25c-.87.25-1.92-.82-2.67.36a2.48,2.48,0,0,1-.86.9c-2-.8-4.28.88-6.1-.88C134.11,179.34,138.07,177.89,142.13,176.65Z" fill="#dd9c2e"/><path d="M154,174.8l-6.86,0c2.73-1.3,5.64-.3,8.44-.63,1.37-.17,2.89.57,4.09-.66a48,48,0,0,1,16.88,5.58c.07,1.34-.95,1.28-1.81,1.43-4.54-1.31-8.95-3.06-13.54-4.27C158.79,175.59,156.17,176.29,154,174.8Z" fill="#775a2e"/><path d="M115.71,195.32a37.58,37.58,0,0,1,12.53-11.26c1.72.6,3.74-1.29,5.3.64,0,1.81-1.5,2.26-2.71,2.23a8.25,8.25,0,0,0-5.47,2.15c-.18.21-.38.4-.58.6-.59.57-1.15,1.17-1.76,1.71-1.15.89-2.69,1.24-3.53,2.57a16.78,16.78,0,0,1-2.44,2.25A1.25,1.25,0,0,1,115.71,195.32Z" fill="#e6bb32"/><path d="M121.49,207.84q-3.1,6.58-6.23,13.17l-.71.65c-2,1-2.1-.46-2.26-1.81a54.5,54.5,0,0,1,6.92-12.38,2.12,2.12,0,0,1,1.78-1.09C121.72,206.67,122,207.11,121.49,207.84Z" fill="#eedf4a"/><path d="M103.33,216.59c-.16,1.29.67,2.19,1.27,3.17A1.29,1.29,0,0,0,104,221c-.69,2,.86,4.51-1.27,6.25h0a20,20,0,0,1-1.57,8.46l-.39.31C99.48,229.27,101.13,222.9,103.33,216.59Z" fill="#d69429"/><path d="M107.13,240.39c-.83,2.56-.54,5.18-.27,8.26-2.12-1.52-3.89-2.67-4.27-5,.57-1.81-.36-4.32,2.4-5.11.79-.15,1.44-1.31,2.4-.37C107.37,238.89,107.65,239.69,107.13,240.39Z" fill="#de9f2e"/><path d="M131.5,201.65l-1.37-.7a28.53,28.53,0,0,1,5.73-5.57,3.73,3.73,0,0,1,2.83-.35c1.17,1.29-.38,1.84-.73,2.72-1.1,1.33-2.38,2.51-3.53,3.81C133.48,202.41,132.53,203.36,131.5,201.65Z" fill="#f0d74d"/><path d="M108.45,252.87l-2,0a2,2,0,0,1-2.79,0c-1.54-1.19-3.4-1.9-4.82-3.26a1.63,1.63,0,0,1-.53-1.72l3.24-.67Z" fill="#db9525"/><path d="M181.47,187.92a95.57,95.57,0,0,0-15.67-4.36c1.19-1.31,2.91-.64,4.32-1.15,4.68.55,9.12,1.7,12.8,4.88C182.77,188.26,182.23,188.35,181.47,187.92Z" fill="#d9ac40"/><path d="M114.64,221l.62,0a62.6,62.6,0,0,1-2.49,10c-1.93.65-1.7-.84-1.89-1.91-.47-1.94,1.06-3.74.42-5.7C111.7,221.62,114.18,222.74,114.64,221Z" fill="#e3bb30"/><path d="M140.89,187.92l.69.64a98.3,98.3,0,0,0-10.68,8.74,1.08,1.08,0,0,1-.86-.93C132.67,192.29,135.92,189,140.89,187.92Z" fill="#d0a737"/><path d="M133.39,184.78c-1.58-1.25-3.69,1.35-5.15-.72a6.17,6.17,0,0,1,2.66-1.78c2,.87,4.32-1.31,6.22.61.31,1-.37,1.38-1.07,1.76A3.42,3.42,0,0,1,133.39,184.78Z" fill="#e1ad2e"/><path d="M105.26,239.14c-1.11.54-2.31,1-1.55,2.66.45,1-.38,1.42-1.12,1.81-1.56-2.29-1.71-4.92-1.8-7.57H101c.75-.32.6,1.16,1.82.71C103.68,236.42,105.23,237.49,105.26,239.14Z" fill="#e2ac35"/><path d="M170.24,183c-1.37,1.08-3,.24-4.44.57l-7.4-.37c-.61-.41-1.09-.87-.64-1.69.91-.47,1.9-.23,2.85-.33a4.35,4.35,0,0,1,.88.13,30,30,0,0,0,4.64.13C167.66,181.53,169.3,181.34,170.24,183Z" fill="#e6c650"/><path d="M143.88,189.71l2.64.7c.24,1.1-.06,2-1.3,1.88-1,0-1.45.68-2.07,1.19-1.1.66-2,1.83-3.5,1.55-1.08-.71-.91-1.46-.07-2.23l0,0a8.29,8.29,0,0,0,2.53-1.95A2.55,2.55,0,0,1,143.88,189.71Z" fill="#eccf44"/><path d="M190.28,191c1.24,1.28,3.17,1.88,3.74,3.81q-4.36-2.53-8.75-5c-.16-.59.21-.84.67-1A4.68,4.68,0,0,1,190.28,191Z" fill="#cea13a"/><path d="M121.49,207.84a1.25,1.25,0,0,0-.71-1.24,7.33,7.33,0,0,1,5.15-5.88c.47.16.84.38.61,1Q124,204.78,121.49,207.84Z" fill="#e0ca40"/><path d="M157.77,181.74l.63,1.45-4.32.36c-.87-.07-1.87.06-2-1.24a2.37,2.37,0,0,1,1.74-1C155.18,181.27,156.58,180.44,157.77,181.74Z" fill="#e1b94b"/><path d="M111.52,223.52c1.11-.06,1.12.5.85,1.35-.36,1.17-.63,2.36-1,3.54-.57.73.21,1.81-.64,2.48l-.5.17c-.15-.86.28-1.86-.64-2.53,0-.42,0-.84,0-1.26A3.2,3.2,0,0,1,111.52,223.52Z" fill="#77561d"/><path d="M184.63,196.65c.45-.88,1.58-.37,2.16-1.08-.22-1.61-2.57,0-2.67-1.81.6-1.53,2.62,1.34,3-.89a1.33,1.33,0,0,1,1.24.66c-.21,1.07-.66,2.12-.12,3.41Z" fill="#e2aa39"/><path d="M126.54,201.7l-.8-.75a5.73,5.73,0,0,1,4.37-4.37l.79.72Q128.72,199.51,126.54,201.7Z" fill="#d4b83e"/><path d="M131.5,258.5c2,.33,3.92-1.05,6.48,0a11.51,11.51,0,0,1-5.85,1.3Z" fill="#754e17"/><path d="M113.35,201c-1.11-.1-1.63,1.08-2.64,1.2a14,14,0,0,1,3.19-4.45,1.73,1.73,0,0,1,.76,1.37C114.58,200,114.69,201,113.35,201Z" fill="#d5972d"/><path d="M110.78,230.89c.08-.86-.07-1.78.64-2.48.26,1-.4,2.41,1.35,2.61a4.59,4.59,0,0,1-.61,2.51C110.92,233.05,110.87,232,110.78,230.89Z" fill="#d89e2a"/><path d="M139.58,192.8a2,2,0,0,0,0,2c.16.57-.06.77-.62.63l-3.15,0C137.05,194.45,138,193.12,139.58,192.8Z" fill="#e5be40"/><path d="M114,199.15l-.12-1.4a5.33,5.33,0,0,1,1.81-2.43l1.39.7A3.7,3.7,0,0,1,114,199.15Z" fill="#e5be33"/><path d="M186,189.07l-.7.67-3.8-1.82,1.24-.54A2.28,2.28,0,0,1,186,189.07Z" fill="#bb9136"/><path d="M107.1,208.45c.2,1.19.86,2.62-1.34,2.51A4.55,4.55,0,0,1,107.1,208.45Z" fill="#dda330"/><path d="M126.5,259.83c-.66-.17-1.41-.06-1.93-.66,1.48.16,3.06-.55,4.42.55Z" fill="#754e17"/><path d="M142.08,190.87a2.46,2.46,0,0,1-2.53,1.95A4.72,4.72,0,0,1,142.08,190.87Z" fill="#e5be40"/><path d="M107.79,234.77l.54-.73c0,1.12.38,2.3-.51,3.29l-.36-.32A1.8,1.8,0,0,1,107.79,234.77Z" fill="#77561d"/><path d="M127.14,257.92c1.1,0,2.24-.28,3.2.56C129.25,258.41,128.06,258.92,127.14,257.92Z" fill="#754e17"/><path d="M107.13,240.39V237.9c-.22-.53,0-.68.52-.7l.16.13C107.59,238.35,108.16,239.56,107.13,240.39Z" fill="#77561d"/><path d="M126.37,274.71l-6.78.55c-7.06.57-13-2.54-18.79-5.92a.77.77,0,0,1-.07-.85c1.67-.95,2.87.36,4.2.93s2.39,1.13,3.62,1.55a1.8,1.8,0,0,0,.55.15c.3,0,.32-.13,0-.27-.72-.37-1.45-.71-1.65-1.58a7.06,7.06,0,0,0-2.37-3.77c-1.21-1-1.26-2.11.67-2.47,1.94.21,3.37,1.56,5.06,2.31,1.5.61,2.61-.57,3.92-.86,2.09.13,3.12.67,1.6,2.95-.86,1.28.66,3.59-1.67,4.41-.37.91.44.8.83.82,3.19.2,6.35,1,9.58.3a2.92,2.92,0,0,1,2.66.44C128.12,274.71,126.84,274.28,126.37,274.71Z" fill="#e6c32f"/><path d="M134.63,270.39c-1.81-1.75.73-2.87.63-4.37a6.15,6.15,0,0,0,3.12-1.25c1.7-1.24,4,.45,5.63-1.24h.62c3.52-.59,6.89-3.15,10.63-.81.4,2-2.08,1.48-2.4,2.83l-9.57,4.19-3,.69a2.51,2.51,0,0,1-2.17.4c-1-.45-1.13-1.35-1.25-2.53A4.68,4.68,0,0,1,134.63,270.39Z" fill="#de9c33"/><path d="M109,271.75c-3-.37-5.19-2.79-8.12-3.37a3,3,0,0,1-2.21-.81c-1.18-.6-2.27-1.37-3.5-1.89-.7-.42-1.3-1-2-1.33a46.89,46.89,0,0,1-6.38-4.83c-1.22-1.17-2.64-2.21-2.71-4.14l.66-.82c2.73,1.17,4.09,4,6.64,5.41,4,3,8.64,4.78,13.05,7,1.18.59,2.51,1,3.25,2.23a4.58,4.58,0,0,0,2.39,1.25.65.65,0,0,1,.31,1A1,1,0,0,1,109,271.75Z" fill="#735519"/><path d="M90.88,260.39c-2.58-1.38-4.29-3.67-6.14-5.82,0-.33-.11-.66-.17-1-.22-1.39,1-1.3,1.74-1.69,1.47-.26,3.4.66,3.53-2.28.06-1.37,2-1.3,3.34-.83a1.39,1.39,0,0,1,.51.68,3.3,3.3,0,0,1-.4,2.6,2,2,0,0,0,.43,2.91A3.15,3.15,0,0,1,95,256.63c0,1.35-.68,1.57-1.79,1.16s-1.78-1-2.72-1.44C93.23,258.15,93.3,259,90.88,260.39Z" fill="#ebcb32"/><path d="M137.74,270.23l2.51.2c-.48,1.1-1.59,1.33-2.5,1.83-2.26-.5-4.29.66-6.45.94a18.08,18.08,0,0,1-3.59.37,47.78,47.78,0,0,1-12.53-.08c-1-.1-2.15-.23-2.37-1.52-.12-.67.55-.74,1-.88a6.64,6.64,0,0,0,2,.39c3.6-.52,7.14.53,10.72.47a6.37,6.37,0,0,0,3-.25c2.14-.16,4.32-.14,6.26-1.29A1.41,1.41,0,0,1,137.74,270.23Z" fill="#76531a"/><path d="M92.13,241a14.19,14.19,0,0,0,.63,6.27c-1.22,2-3.13,1.66-5,1.45a9.09,9.09,0,0,1-2.42-2.08A16,16,0,0,1,92.13,241Z" fill="#db9228"/><path d="M85.34,246.66a3.27,3.27,0,0,1,2.41,1.25c-.08,1.55.1,3.17-1.24,4.36l-1.94,1.31C82.39,251,83.57,248.8,85.34,246.66Z" fill="#e1a931"/><path d="M127.71,273.57c3.27-1,6.5-2.37,10-1.31-3.81.74-7.43,2.37-11.38,2.45Z" fill="#79541c"/><path d="M84.08,255.38l3,3.81c.11.54,0,.84-.64.63-2.07-1.46-3.23-3.54-4.35-5.89C83.65,253.72,83.51,255,84.08,255.38Z" fill="#be9a28"/><path d="M86.45,259.82l.64-.63,6.35,4.9c0,.39-.38.44-.63.6C90.73,263,88.14,262,86.45,259.82Z" fill="#a58923"/><path d="M95.38,265.26l3.75,1.93a1.19,1.19,0,0,1-.84.88L94.67,266C94.57,265.4,94.75,265.11,95.38,265.26Z" fill="#d6bb2d"/><path d="M98.29,268.07l.84-.87c.58.41,1.44.41,1.79,1.18l-.12,1Z" fill="#ddc52f"/><path d="M95.38,265.26l-.71.71-1.86-1.28.63-.6A3.11,3.11,0,0,1,95.38,265.26Z" fill="#ba9e27"/><path d="M207,.34c.91.23,2-.19,3,1-1.42.35-2.54.77-2.94-1Z" fill="#684c21"/><path d="M143.44.33c-.4,1.78-1.52,1.36-2.81,1,.76-1.34,1.94-.76,2.84-1Z" fill="#6a4f25"/><path d="M133.44.33c-.39,1.81-1.54,1.29-2.85,1.12.8-1.42,2-.82,2.88-1.11Z" fill="#684c21"/><path d="M197,.33c.72.25,1.63-.22,2.51,1-1.3.39-2.12.57-2.47-1Z" fill="#6a4f25"/><path d="M205.31.33C205,2,203.9,1.7,202.63,1.48A5.44,5.44,0,0,1,205.35.34Z" fill="#70552c"/><path d="M135.16.34l2.56.79c-1.09.44-2.2.91-2.52-.8Z" fill="#70552c"/><path d="M126.22,1.28a2.06,2.06,0,0,1-.68.27c-.28,0-.63-.14-.4-.51a1,1,0,0,1,.68-.41C126.14.6,126.34.82,126.22,1.28Z" fill="#72572e"/><path d="M214.57.48c.34.21.65.3.79.51s0,.56-.35.55a1.11,1.11,0,0,1-.72-.34C214.22,1.13,214.45.78,214.57.48Z" fill="#72572e"/><path d="M152.86,265.55c-.55-2.11,2-1.4,2.4-2.65l.12-.4a3.85,3.85,0,0,1,2-1.33A3.57,3.57,0,0,1,159,261l2.52-.62c.47.74,1.24.56,1.93.64A86.58,86.58,0,0,1,152.86,265.55Z" fill="#e7c750"/><path d="M52.13,183.52a19.8,19.8,0,0,1,6.46.56A10.52,10.52,0,0,1,52.13,183.52Z" fill="#775d36"/><path d="M59,184.1a6,6,0,0,1,4,.59C61.66,184.59,60.19,185.31,59,184.1Z" fill="#775d36"/><path d="M307.06,33.07a11.69,11.69,0,0,1-.59-5.18C307.75,29.5,307,31.33,307.06,33.07Z" fill="#866f4b"/><path d="M308.27,167.86c.07-.61.14-1.22.2-1.83,1.59-.12,1.92.53,1.16,1.87C309.16,168.59,308.72,167.87,308.27,167.86Z" fill="#6b5025"/><path d="M310.64,156.58c.35-1.51-.15-3.18.79-4.6C311.22,153.52,312.31,155.29,310.64,156.58Z" fill="#7a613a"/><path d="M34,27.89a11.69,11.69,0,0,1-.59,5.18C33.54,31.33,32.76,29.5,34,27.89Z" fill="#866f4b"/><path d="M235.27,188c2.7-1.71,5.79-.65,8.68-1.05,6.68-.92,13.48-1,20.24-1.44a.39.39,0,0,1-.32.47l-4.87.65c-2.18,1.32-4.53,1-6.86.64-.7-.12-1.37-.44-2.07,0Z" fill="#fdfdfd"/><path d="M258.38,187.9c-2.21,1.07-4.58.45-6.88.62,0-.38,0-.77,0-1.16a14.26,14.26,0,0,1,6.84-.09Z" fill="#6e5329"/><path d="M258.38,187.27l-6.85.09-1.46-.16c2.92-1,5.94-.65,8.93-.6Z" fill="#7b633b"/><path d="M230.29,188.66c1.51-1.5,3.37-.49,5.06-.7,0,.15-.08.31-.13.47Z" fill="#fdfdfd"/><path d="M281.92,184.08a19.8,19.8,0,0,1,6.46-.56A10.52,10.52,0,0,1,281.92,184.08Z" fill="#775d36"/><path d="M277.49,184.69a6.1,6.1,0,0,1,4-.59C280.32,185.31,278.85,184.59,277.49,184.69Z" fill="#775d36"/><path d="M31.47,166c.27.61,1.06,1,.77,1.84-.45,0-.89.73-1.36,0C30.58,167.12,29.85,166.2,31.47,166Z" fill="#6b5025"/><path d="M29.08,152c.85,1.48.67,3.08.56,4.67C28.42,155.22,29.21,153.54,29.08,152Z" fill="#7a613a"/><path d="M84,2.88h-.63c-.17-.59-.35-1.18-.52-1.77,2.12,0,4.26-.38,6.73.28C87.78,3.11,85.46,1.4,84,2.88Z" fill="#725830"/><path d="M257.13,2.89h-.63C255,1.45,252.86,3,251,1.62c2.32-1.07,4.53-.44,6.66-.5C257.48,1.71,257.3,2.3,257.13,2.89Z" fill="#725830"/><path d="M300.31,180a28,28,0,0,1,5.71-5.16c-.58,1.9-2.37,2.79-3.53,4.21Z" fill="#fdfdfd"/><path d="M34.5,174.81A28.22,28.22,0,0,1,40.2,180L38,179C36.86,177.6,35.07,176.71,34.5,174.81Z" fill="#fdfdfd"/><path d="M292.13,6.62a9.68,9.68,0,0,1-4-.53l3.4-.09C291.74,6.2,291.94,6.41,292.13,6.62Z" fill="#7a623b"/><path d="M76.32,185.48c7.15.48,14.35.45,21.43,1.7,2.49.44,5.13-.72,7.49.79l-6.86-.05-1.62-.12c-1.89-.46-3.82-.13-5.73-.21a3.77,3.77,0,0,1-1.06.09c-2.74-1-5.69-.39-8.47-1.08L76.64,186A.39.39,0,0,1,76.32,185.48Z" fill="#fdfdfd"/><path d="M81.5,186.6c3,0,6-.44,8.87.6-1,1.52-2.14.68-3.24.09C85.27,186.93,83.24,188,81.5,186.6Z" fill="#7b633b"/><path d="M87.13,187.29c1.07-.21,2.18.7,3.24-.09a.39.39,0,0,1,.51.06c.22.14.29.28.22.42s-.15.22-.22.22a1.29,1.29,0,0,1-1.25.62l-2.5,0Z" fill="#6e5329"/><path d="M76.32,185.48a3.88,3.88,0,0,0,.32.47l-2,.12a1.47,1.47,0,0,1-1.28-.64Z" fill="#7d653f"/><path d="M263.87,186a3.88,3.88,0,0,0,.32-.47l2.94,0c.21.13.28.26.21.4s-.14.2-.2.2Z" fill="#7d653f"/><path d="M267.14,186c0-.2,0-.4,0-.6l3.13-.09c0,.23,0,.46,0,.69Z" fill="#775d36"/><path d="M302,9.24c.11.75-.16,1.14-1,1-.09-.47-.43-1.14-.24-1.36C301.2,8.4,301.6,9,302,9.24Z" fill="#67491e"/><path d="M39.61,10.3a.64.64,0,0,1-.47.19,1.31,1.31,0,0,1-.75-1.31c.46-.13.93-.78,1.33-.31C39.94,9.13,39.66,9.81,39.61,10.3Z" fill="#67491e"/><path d="M105.16,188c1.69.2,3.54-.79,5,.68-1.46.18-2.92.49-4.34-.16l-.59,0Z" fill="#fdfdfd"/><path d="M105.87,188.48l4.34.16a1.24,1.24,0,0,0,.23.44C108.91,189,107.25,189.74,105.87,188.48Z" fill="#745931"/><path d="M90.88,187.9v-.64a12.88,12.88,0,0,1,5.88.54l-4.63.1Z" fill="#7b633b"/><path d="M186,189.07l-3.26-1.69A46.06,46.06,0,0,0,170.24,183a11,11,0,0,0-4.24-.77c-1.65-.7-3.45.13-5.1-.5-.19-.07-.39-.13-.58-.18,1-2.32,3.15-1,4.75-1.39a19,19,0,0,1,3.62.23,69.69,69.69,0,0,1,9.67,2.88,58.82,58.82,0,0,1,7.75,3.73c-2-1.68-4.87-2.26-6.27-4.79.06-.6,0-1.28,1-1.13a29.71,29.71,0,0,1,11.55,8.59L190.28,191Z" fill="#765622"/><path d="M180.81,181.07a1.32,1.32,0,0,0-.58,1.24,1.47,1.47,0,0,1-1.29.33c-1.47-.91-3.62-.78-4.37-2.81.72-.09,1.53,0,2-.78A6.19,6.19,0,0,1,180.81,181.07Z" fill="#996f30"/><path d="M168.38,222.91a4.16,4.16,0,0,1-2.49.54c-.45-.56-1-1-1.55-1.49-1.19-1.24-2.43-1.27-3.23.27-.59,1.13-2.15,1.66-2,3.22l-8.9,5.54c-2.2-1.4-2.14-2.18.34-4.92,0-1.37-1.79-2.32-1-3.9a1.46,1.46,0,0,1,.81-.23,2.22,2.22,0,0,1,1.2.93c.24-.45-.44-.7-.24-1.16.08-.18,0-.5.15-.59,3-2,3.46-6.21,6.88-7.82a1.41,1.41,0,0,1,.91,0l.35.26c.13.9-.64,1.55-.73,2.25s-.36,2,1.82,1.58c4.15-.76,7.29-3.91,11.48-4.22,1.59-.12.56-2.81,2.25-2.28,1.42.44.34,2.37,1.27,3.27a4.41,4.41,0,0,0,1.34.71c1.37.61,1.49,1.41.76,2.72s-3.34,1.9-2.47,4.38c.13.36-.87,0-1.29.15C172.18,222.53,170.12,221.67,168.38,222.91Z" fill="#db9229"/><path d="M165.86,197.9l.76-.54c.74,1.15,2.18,1.44,3,2.46l1.87,1.2c-2,.08-4.5-.78-4.53,2.64-4,1.53-2.51,5.79-4.2,8.52-.91,1.46-1.26,2.78-3.15,1.34h0c-2.27-2.7-2.2-2.89,2-5.38.13-.71-.4-.86-.88-1-2.19-.68-1.65-2.51-.39-2.73,3.56-.61,3.62-3.65,4.91-5.86Z" fill="#dc9627"/><path d="M179.59,200.4c1.39-.66,2.52.18,3.71.66.14,1,0,1.9-1.31,1.75S179.43,202.15,179.59,200.4Z" fill="#7a531a"/><path d="M180.85,264.19c.65-1.59.28-3.35,2-4.88,1-.95.4-3.8.52-5.8.86-1.56,1.73-2.95,1.74-5,0-2.31,2.74-3.8,3-6.38.08-.78,1.5-.32,2.27-.55,1.76-1.27,3.52.11,5.28,0a115.93,115.93,0,0,0,25.93.66c2.2,0,4.17-1.24,6.38-1.16,1.44,1.47,3.08,2.8,3.51,5-2.26,2.45-1,8.88,1.9,10,1.35,3.18,1.12,4.11-1.49,5.93-.51.35-1.33.64-1.27,1.25.26,3.07-2.31,3.17-4.11,4.09-8,2.7-16.3,2.16-24.56,1.86-.92,0-1.85-.06-2.78-.09l-7-1.21C188.5,266.41,184.37,266.26,180.85,264.19Z" fill="#fafaf7"/><path d="M238.38,264.22a1.32,1.32,0,0,0-1.26.52l-1.24,0c-1-2.83-2.78-5.51-1.87-8.75,1.94-1.1,2.11-3.32,3.12-5,.55,2.2,1.73,4.37-.17,6.57-.55.63,1.78,4,2.76,3.91,1.2-.1,1,.7,1.15,1.34Z" fill="#eed9c5"/><path d="M234,256c.25,1.73-.34,3.61,1.75,4.92.61.38.11,2.51.12,3.83a32.13,32.13,0,0,1-9.38,2.53c.9-1.5,4.73-1.15,2.85-4.48a2.11,2.11,0,0,1,1.05-.9c3.34-.81,3.18-3.33,3-5.89Z" fill="#f6eee5"/><path d="M207.88,277.93c0-.61,0-1,.57-1a1.12,1.12,0,0,1,1.08,1.23c0,.33-.34.68-.52,1Z" fill="#c9681f"/><path d="M150.36,238.53c0,.83-.38,1.93,1.18,1.31.84,0,1.37.37,1.42,1.26-.06,2.24-2.23,3.63-2.33,5.84-.28,1.73-.25,3.56-1.64,4.9-1.54,1.22-.43,2.4.06,3.59-.08.07-.16.18-.25.19-2.49.41-5.58,2.14-7.32.46-1.33-1.3.06-4.5.77-6.71.92-2.92,1.34-6.09,3.52-8.5C147.35,240.19,148.52,238.71,150.36,238.53Z" fill="#d98921"/><path d="M159,261a1.28,1.28,0,0,1-1.25.58c-1.27-.42-1.9.41-2.5,1.28h0c-3.16-1.15-6,.46-9,1-.67.11-1.16.27-1.61-.32-1.07-1,.34-2.36-.28-3.39-1.2-.36-.77,1.62-1.82,1.1a1.62,1.62,0,0,1-.54-1.34c.16-1.29,1.25-.6,1.93-.74a2,2,0,0,0,1.33-.63,151,151,0,0,0,15-3.68C161.13,257.17,160,259.09,159,261Z" fill="#db8f26"/><path d="M151.51,226c-.85,1.55-3.81,2.56-1.28,5h0a9.15,9.15,0,0,0-2.5,2.46L144,239.14l-3.7-1.24a.89.89,0,0,1-.08-.82,3.72,3.72,0,0,0,1-2.53c-.2-2.06,1.19-3.16,2.59-4.25,1.63-1.64,2.37-4,4.33-5.35C149.49,224.42,150.48,225.3,151.51,226Z" fill="#dfa12e"/><path d="M178.9,241.59a3,3,0,0,0-1.15,3.18c-2.09,2-4.82,2.79-7.44,3.77-.8.15-1.86,1.16-1.79-.9,0-.83-.89-1.72-.74-2.78A3.33,3.33,0,0,1,168,244c2-3.4,5.37-2.76,8.46-3C177.31,241.13,178.26,240.7,178.9,241.59Z" fill="#e6bd2f"/><path d="M168.38,244.77c.45,1.36-.09,3.22,1.93,3.77a17.74,17.74,0,0,1-4.92,2c-2.32,1.11-4.43-.27-6.63-.58-.75-.11-.58-1-.63-1.58,0-.43-.07-.86,0-1.29a6.69,6.69,0,0,1,1.71-3,3.16,3.16,0,0,1,.72-.49c.19-.09.5-.26.57-.18C163.18,245.65,165.91,244.51,168.38,244.77Z" fill="#e4b42d"/><path d="M159,247.91c.45.22-1.31,1.38.82,1.31,1.67-.06,3.68.87,5.57,1.27a49,49,0,0,1-13.87,4.37c-.47-.73-.08-1.31.32-1.89a1.3,1.3,0,0,1,.74-.34c2-.34,2.56-2.23,3.79-3.39C157.11,248.53,157.47,247.06,159,247.91Z" fill="#dc9529"/><path d="M150.36,238.53c-1.32,1.2-2.48,2.69-4.59,2.34,1.86-4.44,4.49-8.22,8.85-10.56.53.65,0,1.33.06,2Z" fill="#da962d"/><path d="M159.13,225.45a1,1,0,0,1-.29,0c0-2.1,1.35-3.56,2.7-4.91.72-.72,2-1.21,2.53.19.43,1.1,2.55,1,1.82,2.77Z" fill="#dc9a32"/><path d="M168.89,226c1.46.45,3.15-.55,4.5.69-.89,1-2.07.78-3.19.84a4.48,4.48,0,0,0-3.87,1.46c-2.14,1.62-4.77,2.47-6.81,4.26a3.44,3.44,0,0,1-1.18.55,1.4,1.4,0,0,1-1.15-.51l-.15-.41C160.24,229.24,163.83,226.34,168.89,226Z" fill="#e5c331"/><path d="M153.94,236.54a8,8,0,0,1,3.1-3.71l.19.16a9,9,0,0,1-1.61,8.33,1.63,1.63,0,0,1-.9-.11C154.29,239.68,153.35,238.24,153.94,236.54Z" fill="#e3b531"/><path d="M152.13,252.9c-.2.65-.41,1.3-.61,2-.72.63-1.63.48-2.47.57-2-1-2.91-2.1-.7-3.82C149.54,252.26,150.91,252.37,152.13,252.9Z" fill="#e3ad35"/><path d="M153.94,236.54c.1,1.51,2.2,2.72.69,4.48a1.28,1.28,0,0,1-1.57.29l-.31-.29-1.21-1.18A11.19,11.19,0,0,1,153.94,236.54Z" fill="#dd9b29"/><path d="M154.68,232.31c-1.06-.63-.2-1.33-.06-2l3-1.91c.66-.15.87.14.73.76Z" fill="#d8ab2e"/><path d="M159.61,227.19a3.31,3.31,0,0,1,2.77-1.07c-.35,1.27-1.41,1.31-2.16,1.76C160,227.68,159.61,227.61,159.61,227.19Z" fill="#7d581c"/><path d="M147.73,233.46a2.72,2.72,0,0,1,2.5-2.46A7.54,7.54,0,0,1,147.73,233.46Z" fill="#db9229"/><path d="M159.61,227.19l.61.69-1.82,1.28c-.24-.26-.49-.51-.73-.76Z" fill="#b48229"/><path d="M192.51,272.24c-.6,1,.3,2.83-1.38,2.91-1.11.06-2.08-1.17-2.11-2.58,0-1.63,1.25-1.95,2.41-2.11C193,270.23,191.92,271.67,192.51,272.24Z" fill="#c26822"/><path d="M216.45,194.7c0,.21,0,.43,0,.65-1.77,1.44-3.72,1-5.67.56-1.39-3-2.83-6-3.22-9.44-.21-1.83-.44-3.83-3.14-2.06a1.74,1.74,0,0,1-2.27-.27v-1.25c2.5-3.52,6-3,7.93,1.09.21.47-.31,1.16.69,1.41,5.5,1.38,5.81,1.82,5.75,7.44C216.49,193.46,216.47,194.08,216.45,194.7Z" fill="#c66a23"/><path d="M202.74,176c3.86,1.18,7.74,2,11.71.44.87-.35,1.38-.14,1.43.86-3.62,1.28-7.28,1.94-11,.6C203.89,177.53,202.83,177.28,202.74,176Z" fill="#773f15"/><path d="M210.29,195.27l6.14.08c2.74.41,3.62,1.68,4.36,4.7s.18,7.15,3.83,9.11c1.48,1.05-1.16,2.07,0,3.12,1.77,1.28.79,3.39,1.46,5,.25.61.25,1.37.82,1.84.93.74,2,1.26.38,2.52-.95.76.81,1.51.49,2.45l-.63.62c-1.2,1.52-3,1.93-4.69,2.55-2.74,1.06-5.7.57-8.51,1.13-6,0-11.95-.08-17.76-1.74-1.18-.56-2.76-.39-3.41-1.9-1.2-5.82.61-11.11,2.45-16.53a45.8,45.8,0,0,1,2.89-7.18c1.22-2.2,2.23-5.18,5.41-5.78A6.73,6.73,0,0,1,210.29,195.27Z" fill="#fafaf7"/><path d="M210.29,195.27l-6.79,0c-1.43-.83-3.24-.08-4.63-1.09,1.61.06,2.52-.08,2.27-2.32a4.1,4.1,0,0,1,1.58-4.26c1.29-.84-1.22-2.13-.59-3.49.87-.1,1.78.23,2.47-.79,1.45-2.13,3-1.07,3.25.62a41.62,41.62,0,0,0,2.92,9.88C210.91,194.19,210.46,194.79,210.29,195.27Z" fill="#d4691e"/><path d="M192.75,224.79,196,226c-.81,2.75-3.38,5.24-1.15,8.42a1.09,1.09,0,0,1-.13,1.19c-2,2.41-1.72,4.6.54,6.65l-4.87-.66-3.3-1.15c.11,0,.25,0,.3-.07.4-.45,2.38-7.52,2.12-7.92a1.21,1.21,0,0,1,.12-1.68c1.64-1.66,1.78-3.8,1.89-5.94Z" fill="#ca691f"/><path d="M169.64,199.82c-1.45-.28-3.41.07-3-2.46l2.31-.05C169.72,198,171.16,198.49,169.64,199.82Z" fill="#80581c"/><path d="M231.47,246.05c-.39-.58-.84-1.68-1.16-1.65-2.53.31-1.57-1.72-2-2.79a.71.71,0,0,1,.12-.81c1.13-.83,2.53-.67,3.8-1l1.12-.07c2.23.65,1.24,3.05,2.31,4.36.08.09-.38.62-.58.94C233.43,243.74,232.85,246.36,231.47,246.05Z" fill="#f1e3d4"/><path d="M232.23,239.83a6.07,6.07,0,0,1-3.82,1.3c-3-2.88-3.73-6.14-1.66-9.88l.38-.23c2.71.86,1.76,3.14,1.85,5,.06,1.33-.74,3.11,1.93,2.41C231.2,238.31,231.78,239.32,232.23,239.83Z" fill="#c36621"/><path d="M222.74,226.63a13.43,13.43,0,0,1,4.38-1.88c.79,2.09,0,4.18,0,6.27h0C223.89,232,222.21,230.3,222.74,226.63Z" fill="#c36924"/><path d="M169.61,226.66l3.78,0,5.62,1.88c1,2-.1,3.79-.64,5.63-.75.5-.33,1,0,1.55.55,1.05.83,2.13-.57,2.84-2.26-1-3.62-2.39-2.14-5,0-.41.11-.82.18-1.23-.08-.8,1-1.54.1-2.39-.9-.48-1.78-1.33-2.82-1C170.94,229.56,170.21,228.27,169.61,226.66Z" fill="#e9c336"/><path d="M176.49,233.51c-.43,1.09-.08,2.45,1.28,5L176.49,241a9.06,9.06,0,0,1-3.45,1c-1.79.14-3.52.55-4.66,2.16a3.71,3.71,0,0,1-4.39-.84,2.21,2.21,0,0,0-3.74.84h0c-3.95,2-4.78,1.75-5.89-1.58a2.2,2.2,0,0,1,.91-1.53,31.41,31.41,0,0,0,2-8l1.14.52a6.79,6.79,0,0,1,.69,3c.37,3.72.58,3.88,4.23,3.09a2.86,2.86,0,0,0,1.6-.86c2.3-2.64,6.06-2.5,8.65-4.59C174.48,233.71,175.29,232.67,176.49,233.51Z" fill="#efd33e"/><path d="M120.88,240.39c2.4.42,5.18.09,5.13,4,0,2,4.38,3.37,6.94,2.35.57-.23,1.12-.47,1.68-.71-.13.28-.43.61-.37.84,1.12,4.11-2,5.06-4.64,6.51-1,.55-.93-.24-1.32-.51a11.13,11.13,0,0,1-3.07-2.52,4.1,4.1,0,0,1-1.14-2.39,4.26,4.26,0,0,0-1.1.42c-.4.31-.23,1.44-1.14.93-.28-.16-.24-.92-.35-1.41a1.71,1.71,0,0,1,0-2.43c-.58-.68-1.16-1.34-.44-2.3S121.38,241.29,120.88,240.39Z" fill="#db9124"/><path d="M144,263.53c-1.28,3.08-3.74.89-5.63,1.24C139.55,261.17,142.08,263.68,144,263.53Z" fill="#db8f26"/><path d="M121.48,245.46c0,.81,0,1.62,0,2.43-.6.21-1.17,1.85-1.78.4A1.87,1.87,0,0,1,121.48,245.46Z" fill="#80561a"/><path d="M124.09,248a2,2,0,0,1,1.14,2.4c-.52.21-1.07.64-1.56,0C123,249.41,123.58,248.68,124.09,248Z" fill="#774f18"/><path d="M140.26,237.27v.63c-1.52.87-2.48,4.31-4.9,1.06-1.19,1.19-2.91.79-4.34,1.41s-3.77,1.75-4.7-1.35c-.61-2.06-1.07.95-1.83.23a29.13,29.13,0,0,0-8.92-5.59c-.72-.3-.26-1.74-.25-2.66,4.21,3.88,9.48,5.52,14.78,7.18,2.37.74,3.81-1.2,5.78-1.54C138.05,234.62,138.24,234.64,140.26,237.27Z" fill="#e2ac2c"/><path d="M139,195.4l.62-.63,3.12-1.88c2,0,4-.53,6.09-.21,1.75.26,3.93.85,5.55-.9.45-.48,1.16-.37,1.78-.27a2.44,2.44,0,0,1,2.29,1.78c.33,1.33-1.16.93-1.48,1.55-.39.77-1.18.75-1.73,1.16-.2,0-.41,0-.61,0-2.29.36-4.6.13-6.9.27a3.2,3.2,0,0,0-3.38.1,8,8,0,0,1-7.22.87C137.77,196.65,138.39,196,139,195.4Z" fill="#f8ed5b"/><path d="M147.76,196c2.29-.68,4.59-1.22,6.88,0-.68,1.37.7,1.73,1.23,2.5.55,1.2-.19,2.18-.55,3.23-.54.84.22,2.33-1.33,2.67-1.15-.22-1.59-1.38-2.51-1.91-.49-.6-1-.37-1.64-.16-1.4.5-2.12-.28-1.7-1.49.55-1.57-.28-2.73-.64-4.05A1.12,1.12,0,0,1,147.76,196Z" fill="#f4e251"/><path d="M155.25,196a10.72,10.72,0,0,0,1.3-1.31c.42-.59,2.3-.6,1-1.88-.76-.75-2.16-1.29-3-.24-2.13,2.77-4.75,0-6.76.78s-3.38-.53-5.06-.46c.57-1.88,3.37-.34,3.77-2.48l1.23.62a2.75,2.75,0,0,0,2.6,0,16.39,16.39,0,0,1,6.76-1.59,6.46,6.46,0,0,1,2,.79c1,.4,2.95.7,2.29,1.72s-1.25,3.47-3.62,2.79C157,195.44,156.42,196.28,155.25,196Z" fill="#f3df53"/><path d="M157.75,194.78c2,.07,1.8-2.37,3.48-2.88-1.76-.16-2.69-1.58-4.1-2.13-.21-.14-.27-.27-.2-.41s.14-.19.21-.19l.61,0a2.25,2.25,0,0,0,2.86-.21c1.14-.79,2.24-1.88,3,.44.29.92.87.61,1.3-.05.54-.81,1.39-.8,2.24-.8,1.3,1.92,1.57,3.15-1.49,3.42-.85.08-4.39.09-2.06,3.36C161.74,192.28,159.64,196.08,157.75,194.78Z" fill="#f1d752"/><path d="M154.61,201.61l1.26-3.08c1.87-2.18,4.5-1.55,6.88-1.88.54.57.4,1.35-.12,1.54-2,.72-2.6,2.73-4.07,3.91a9.92,9.92,0,0,1-2.15.59A1.55,1.55,0,0,1,154.61,201.61Z" fill="#eed03d"/><path d="M158.38,201.65c.49-2.51,3.15-3.12,4.37-5,.9-.77.93.23,1.26.62.44.73,1.17.6,1.85.63v.59c-1.4,1.23-2.89,2.35-4.39,3.44C160.52,202.63,159.22,203.76,158.38,201.65Z" fill="#e5b532"/><path d="M168.4,194.14c0,2.45-1.94,1.49-3.14,1.83l-.56-1c.91-1.75,2.33-1.12,3.68-.8Z" fill="#6b4d1a"/><path d="M168.38,194.13c-1.29,0-2.64-.34-3.68.8C165.48,192.63,166.93,193.34,168.38,194.13Z" fill="#e5b43e"/><path d="M130.11,196.58,125.74,201a28.41,28.41,0,0,0-5,5.65c-3.36,3.94-5.29,8.77-8.06,13.07a.59.59,0,0,1-.66.47c-.77-.33-.45-1-.57-1.62-.46-1.78.9-3,1.4-4.46.81-1.5,1.93-2.83,2.39-4.52,3.12-5,7.3-9.08,11.41-13.23a60.56,60.56,0,0,1,7.7-6.87,29.35,29.35,0,0,1,4.9-3.1,2.93,2.93,0,0,1,1.59-.35c.92.13,1.74-1.11,2.91-.08l-2.9,2A38.1,38.1,0,0,0,130.11,196.58Z" fill="#6b4c19"/><path d="M140.88,186l-1.25.66a5.19,5.19,0,0,0-2.45-1c-.78-.16-1.6-.41-1.3-1.53a2.14,2.14,0,0,0,1.24-1.26c0-.42,0-.83,0-1.24,1.25-.63,2.5.77,3.75,0h0C142.77,183.1,140.72,184.54,140.88,186Z" fill="#e5b739"/><path d="M153.41,181.75l-1.29.56c-1.21-.29-2.61.58-3.66-.63,1.68.08,3.2-1.1,4.92-.62C153.73,181.27,153.74,181.51,153.41,181.75Z" fill="#916e2a"/><path d="M133.38,231c-1.57.5-3.53,1.63-2.74-1.7,0-.15-.43-.59-.5-.56-2.48,1.14-3.68-3.06-6.64-1.44-1,.52-2.76-1.74-2.62-3.8,3.36,1.65,7.14,1,10.63,1.87,1.6.17,1.57-1.35,2.22-2.17,4.42-3.25,5.14-3.15,7.37.15-.15.66-.58,1.33-1.16,1.34-3.66.07-3.67,3.77-5.62,5.52A1.21,1.21,0,0,1,133.38,231Z" fill="#efd635"/><path d="M134,223.52c-.12,1.58-.75,2.47-2.5,1.87,1.12-3.19.35-4.35-3.07-4.63-4.9-.41-5.86-1.13-6.07-4.2a2.74,2.74,0,0,1,1-2.42c.13.89.25,1.77.38,2.65,2.44.23,3.43-1.38,4.19-3.36,1.21,1.33.66,2.52-.62,3.84h2.93l.4-.11c3.11-1.32,3.41,1.77,4.84,3.09C135.87,221.73,134.32,222.35,134,223.52Z" fill="#f4e33e"/><path d="M131.5,201.65c1.1.84,1.8.11,2.51-.63,1.24,1.46-.47,2.13-1,3.44,2.37.39,3.87,2.09,5.56,3.52a7.34,7.34,0,0,1-6.24,5.31l-.21-.4c-1.51-1.45-1.33,1.86-3.26.33,0,0,2.53-3.71-1.21-1.14-.63.44-.74-.37-.88-1.06a5.35,5.35,0,0,1,2.54-5.46C131.19,204.47,130.54,202.76,131.5,201.65Z" fill="#f8ed5b"/><path d="M130.26,217.27a6.28,6.28,0,0,1,1.87-4.38c1.05,2.18.69,3.75-1.88,4.38Z" fill="#f4e33e"/><path d="M86.51,252.27a9.27,9.27,0,0,1,1.24-4.36c1.83,1.07,3.37-.16,5-.62l4.37,0a.52.52,0,0,1,.17.49c0,.17-.07.25-.12.25a2.52,2.52,0,0,1-.69.46,14.91,14.91,0,0,1-3.11.62c-1.76,0-1.59.11-2.46,2S88.24,252.91,86.51,252.27Z" fill="#e7be31"/><path d="M97.12,247.92c0-.2,0-.4,0-.6l1.22.59.68,1.17-.37.34C97.45,249.63,96.52,249.56,97.12,247.92Z" fill="#e9bf3b"/><path d="M115.29,271.73l-1.45-.64c1.82.32,2-1.18,1.61-2-.72-1.66-.51-2.59,1.84-3l-2.66-1.25a4.36,4.36,0,0,1-.61-4.39l1.23,0c.85,2,1.66,4.05,4.36,4.19,1.07.05,1.27,1,1.26,1.83s.11,1.45,1.06,1.57c1.47.53,1,2,1.46,3,0,.21,0,.42,0,.63A26.44,26.44,0,0,1,115.29,271.73Z" fill="#e5b72c"/><path d="M123.39,271c-2,0-.57-1.8-1.26-2.5-.37-1.36.46-2.24,1.25-3.13,3.94-1.39,5,2.82,7.61,4,.61.27,0,.89-.44,1.12-.94.46-2.16,1.08-2.61-.3s-1-1.91-2.31-1.83c-.52,1.21,1.71,1.31,1,2.21S124.49,270.86,123.39,271Z" fill="#de9e27"/><path d="M123.38,265.39c.26,1.31-.68,2.15-1.25,3.13l-2.4.16c.91-2.12.9-3.73-2-3.86s-2.37-2.54-2.5-4.42c3.2.26,4.3,4.13,7.5,4.37Z" fill="#e2ac29"/><path d="M115.29,271.73l8.09-.08,6.23.05A37.7,37.7,0,0,1,115.29,271.73Z" fill="#79541c"/><path d="M137.74,270.23l-1.87.18-1.24,0c.24-.34.4-.86.71-1,1.26-.43.09-2.7,1.49-2.4S137.05,269.23,137.74,270.23Z" fill="#dfa33b"/><path d="M133.38,231l.62-.63c.81-.61,1.78.07,2.85-.91,1.8-1.64,3.12.56,4.32,1.87-1,2.3-2.4,4.17-5.29,4.05-3.85.6-7.4.17-10.72-2.24a11.81,11.81,0,0,0-7.85-2.11c.06-1.23,1.06-1.75,1.69-2.53,2.08,1,4.16,2,6.25,3,.17.08.49.13.59,0,2.49-2.35,3.65.47,5.3,1.36.54.29.8,1.3,1.76.49S134,232,133.38,231Z" fill="#eac632"/><path d="M135.88,235.4a11.19,11.19,0,0,0,5-4.38c-.19-.56.14-.84.57-1.07a2.7,2.7,0,0,1,2.24.12l.32.33c-.91,1.65-2.78,2.84-2,5.26.31.94-.73,1.54-1.77,1.61-1.34-1.05-2.72-1.84-4.38-.63Z" fill="#e7bc30"/><path d="M107.66,237.2l-.52.7c-.66.36-.9,1.37-1.88,1.24-1.18-.43-1.67-2.91-3.57-1.18-.35-.6,0-1.46-.72-1.93-.41-3.13,1.33-5.81,1.78-8.76.11.65-.21,1.74.85,1.63,3.57-.35,3.53,1.28,2.45,3.88-.6,1.44.29,2.08,1.74,2C107.74,235.58,107.7,236.39,107.66,237.2Z" fill="#e8bc3d"/><path d="M113.51,214.17l-2,4.35c-2.46,1-4.31-.58-4.36-3.75.78-.89.25-2.3,1.26-3.1A19.77,19.77,0,0,1,113.51,214.17Z" fill="#f1db4a"/><path d="M112.06,220.14l.66-.47c0,1.43.32,2.27,1.92,1.36.08,2.23-2.31,1.38-3.12,2.49-.62,1.25-1.24,2.5-1.87,3.75-.22.2-.44.57-.68.58-2.85.21-.65-3.37-2.78-3.73.64-.69.87-2.21,2-1.92C110.26,222.73,111,221.22,112.06,220.14Z" fill="#f0d74a"/><path d="M102.75,227.27a4.83,4.83,0,0,0,.42-3.25c-.14-1-.34-2.27.85-3Q106.45,225,102.75,227.27Z" fill="#e8bc3d"/><path d="M114,260.38c.83,1.37.57,2.9.61,4.39a2.81,2.81,0,0,1-3.75,1.25c.84-4.36-2.78-5.76-5.28-7.91a5.57,5.57,0,0,1-.63-1.38c-1.23-3.12-1.23-3.12,2.16-3.21C109.61,255.62,113,256.86,114,260.38Z" fill="#ebc63b"/><path d="M107.13,253.52c-.24.18-.45.48-.71.53-1,.17-2.7-.24-.78,1.52.43.4.18,1.53.24,2.33.4.58.39,1.16-.33,1.37-1.15.33-1.44-.67-1.88-1.4-.69-1.41-.87-3.06-2.79-3.73-1.34-.47-.93-2.4-1.85-3.39-.31-.53-.54-1.05,0-1.58l0-.09c2.55,1.15,4.46,3.54,7.46,3.83Z" fill="#eecf45"/><path d="M127.15,196.68c-3.84,4.3-8,8.36-11.32,13.07-1.76-1.55-4.06-2.73-3.74-5.65-.15-1.27.71-2.12,1.26-3.1.75-.42.63-1.17.67-1.85L117.1,196c-.07-1.39,1.27-1.67,1.94-2.48,1.24-.95,2.75-.6,4.13-.74.93-.09,2.94-.87,1.69,1.64-.16.32,1.24.09,1.72.64A1.34,1.34,0,0,1,127.15,196.68Z" fill="#f7eb58"/><path d="M112.09,204.1l3.74,5.65a9.5,9.5,0,0,1-2.32,4.42c-.83,0-2.08,1.73-2.32-.7-.09-.88-1.16-.54-1.84-.42-1.32.22-.83-.79-1-1.38,1.24-1.67,3.22-3,2.13-5.64C110.19,205.24,111,204.28,112.09,204.1Z" fill="#f4e451"/><path d="M174.57,179.83l4.48,2.33c.52.85.33,1.46-.62,1.8L169,181.11c-3.44-1.1-6.58-3.31-10.46-2.71a2.17,2.17,0,0,1-2-.49c-3.22.89-2.34-1.54-2.52-3.11C161.35,174.41,167.94,177.22,174.57,179.83Z" fill="#dfa038"/><path d="M156.5,177.91c4.43-1.68,8.09,1.07,12.05,2.12.22.06.29.7.44,1.08l-3.62-.16a14,14,0,0,0-5.43,0c-1.2.16-2.43.41-3.44-.6C158,179.51,156.39,178.71,156.5,177.91Z" fill="#e5b848"/><path d="M156.5,180.31c2.95.36,6-.57,8.87.64-1.67.36-3.47-.49-5.05.59-.78.93-1.72-.07-2.55.2h-4.36l0-.69Z" fill="#886828"/><path d="M153.3,177.58c0,.33-.21.65-.56.44a1.85,1.85,0,0,1-.75-.89c-.11-.37.31-.44.6-.4A.81.81,0,0,1,153.3,177.58Z" fill="#dfa038"/><path d="M157.14,189.17c0,.2,0,.4,0,.6-2.32,1.18-5.2.63-7.33,2.76-1.08,1.09-1.49-.76-2.05-1.5C150.74,189.71,153.6,187.71,157.14,189.17Z" fill="#efd148"/><path d="M140.88,181.65c-1.25,1.18-2.5.55-3.75,0C138.38,179.7,139.63,181.22,140.88,181.65Z" fill="#e0a635"/><path d="M135.88,184.15c.35,1.1,1.29.63,2,.86s2.48-.24,1.75,1.64l-4.9,3.18c-2-1.34-2.77,1.93-4.59,1.22-.56-1.59-1.59-2.27-3.27-1.7-.77.26-1.56.52-2.24-.21,1.55-1.36,2.63-3.41,5.38-2.78a3.06,3.06,0,0,0,3.38-1.58A4.11,4.11,0,0,1,135.88,184.15Z" fill="#eccd43"/><path d="M124.63,189.14c1.7.42,3.16-2.35,5.19-.17.8.86.29,1.38.43,2-1.33,1.39-1.63,3.67-3.75,4.39a6.12,6.12,0,0,1-3.27-1l2.41-.91H119c.6-1.78,2.39-1.81,3.71-2.53a4.67,4.67,0,0,0,1.87-1.87Z" fill="#f0d747"/><path d="M124.62,189.14a1.73,1.73,0,0,1-1.87,1.87A4,4,0,0,1,124.62,189.14Z" fill="#eccd43"/><path d="M138.39,207.9c-2.29-.5-3.85-2.42-6.09-3.12-1.13-.36-.55-1.45.35-1.72a1.71,1.71,0,0,0,1.36-2l3.13-3.75c2.62-.71,5.58.08,7.86-2.21.83-.84,2.14-.27,2.76,1,0,.21,0,.42,0,.62-.08,1.68-1.57.16-2.07.92a1,1,0,0,0-.12.86c0,.1-.19.75.27.28,1.08-1.08,1.91-.7,2.35.47a2.73,2.73,0,0,1-.89,3.1,31.88,31.88,0,0,1-4.19,3.24,13.88,13.88,0,0,0-3.48,2.6A1.1,1.1,0,0,1,138.39,207.9Z" fill="#faf167"/><path d="M160.9,181.72c1.72,0,3.46-.25,5.1.5C164.3,182.08,162.51,182.8,160.9,181.72Z" fill="#e1b94b"/><path d="M90.88,260.39c.57-.75,1.69-1.19.86-2.55-.92-1.52-1.9-.25-3-.16.27-1.63.78-2.16,2.48-1.59,1,.34,2,2.21,3.37.54,3.22-.24,4.69,2.74,7.15,3.89,1.39,1,3.6.82,4.1,3-1.24.22-1.39,1.41-.43,1.46,2.46.12,1.54,2.82,3.1,3.43l-.87.79C101.92,266.56,95.92,264.39,90.88,260.39Z" fill="#eed333"/><path d="M105.88,263.51,101.5,261c-.76-2.32,1.06-2.91,2.5-3.76,1.22,1.78,1.22,1.78,1.88.63,1.38.68,3.21.61,3.65,2.75.36,1.69,1.94.34,3.1.83L110.88,266Z" fill="#f1d940"/><path d="M109,271.75c.81-.07,1.35-.35,1-1.31.68.28,1,.79.52,1.41S109.53,272.24,109,271.75Z" fill="#ddc52f"/><path d="M140.65,269.57c-.92-.38-2.08-.31-2.05-1.79,0-.68.05-1.44.71-1.42,1.28,0,1.35,1.48,2,2.25C141.68,269,141.23,269.52,140.65,269.57Z" fill="#dfa33b"/><path d="M104,257.27c-.51,1.47-2.18,2.16-2.5,3.76-2.54-1.07-4.25-3.44-6.87-4.4l-1.26-1.23c-1.08-2.3.72-3.24,2.07-4.39a1.54,1.54,0,0,1,.81-.22,2.14,2.14,0,0,0,3.39-.38C100.07,253.35,103.89,254.13,104,257.27Z" fill="#f4e24c"/><path d="M95.88,251c-.6,1.59-2.46,2.47-2.51,4.38-1.88-.82-2-2.35-.81-3.54.72-.72.18-1.57.82-2.09C94.79,249,95.32,250.05,95.88,251Z" fill="#f1d946"/><path d="M95.88,251l-2.5-1.25v-.63c.66-1.41,2.14-.71,3.15-1.23.12,1.11.93,2.36-.65,3.11Z" fill="#e9bf3b"/><path d="M155.26,262.9c.31-1.45.8-2.55,2.5-1.28Z" fill="#de9c33"/><path d="M178.43,184c.21-.6.42-1.2.62-1.8l1.18.15c2.64,1.89,5.67,3.25,7.68,6.14Z" fill="#dca642"/><path d="M158.38,201.65c1.15,1.21,2.21.36,2.85-.43a8.57,8.57,0,0,1,4.63-2.73c.18,1.77-2.05,3-1.15,5,.16.36-1.36,1.28-2.32,1-1.5-.45-2.08.32-2.56,1.42.44,1,1.13.13,1.63.33a2.29,2.29,0,0,1,1.59,1.71c.12.89-.8,1.3-1.44,1.38-2.94.36-3.33,1.83-2,4.17-2,.24-2.73,2.07-4.06,3.14-.5.41-.72.68.07,1.34,1.14.95-.5,1.31-.81,2-1.83-1-2.43.52-2.86,1.67-.53,1.38,1.61.9,1.83,2-1.74.77-2.68-.23-3.56-1.39-.55-1.34-2.27-2.87.59-3.66.4-.14-.09.09.31,0a2.61,2.61,0,0,0,1.15-.35c-1.85-2.18,2.37-3.6.7-5.74a1.42,1.42,0,0,1-.65-1.05c.84-1.74,3.12-2.82,2.08-5.47-.36-.91,1.54-.64,2.12-1.4-.4-.54-1.52,0-1.55-1s1.07-.76,1.51-1.26C157,201.54,157.69,201.66,158.38,201.65Z" fill="#de9e28"/><path d="M150.88,219.15c-.76.11-1.47.35-.81,1.26a1.5,1.5,0,0,1,.17,1.85l-.6,0c-.26,1.27-.6,2.48-1.89,3.12,0,2.21-2.93,3-2.59,5.41L144,230.4h0c-.38-1.31-1.56-1.75-2.56-2.39.28-2,1.52-3.79,1.54-5.89.9-1.29,2.44-1.76,3.56-2.78a10.42,10.42,0,0,1,1-.81c1-.56,1.63-1.77,3-1.31C151.12,217.76,151.54,218.35,150.88,219.15Z" fill="#e6bb2e"/><path d="M147.75,225.4c.69-1,.65-2.45,1.89-3.12l1.87,3.74C150.25,225.81,149.07,225.17,147.75,225.4Z" fill="#de9e28"/><path d="M195.24,242.23c-3.74-2.2-3.76-2.21-1.82-5.93.51-1,1.15-1.53,0-2.76-1.35-1.4.43-5.88,2.61-7.57,5.85,1.35,11.83,1.48,17.78,1.86,6.41-.81,7.65.07,8.75,7a6,6,0,0,0,2.3,4.09c2.23,1.86,2.06,2.45-.59,3.41-.69.25-1.47,0-2.08.52-6.79,1.43-13.64.73-20.46.35C199.53,243.08,197.3,243.14,195.24,242.23Z" fill="#d56818"/><path d="M222.14,242.85a5.29,5.29,0,0,1,.74-.53c1-.48,2.27-.3,2.89-1.46-1.5-.3-1.51-2.41-3-2.56-.75-.07-1.42-.26-1.08-1,1.28-2.66-1.06-4.54-1.33-6.86-.25-2.14-1.63-2.93-3.78-2.6a16,16,0,0,1-2.77,0l9-1.2a6.28,6.28,0,0,1,.76.33c-.9,3.25.93,4,3.63,4.06a22.06,22.06,0,0,0-.69,4.79c-.08,1.42-.24,2.58,1.43,3.11,1.32.41.88,1.35.54,2.21a4.1,4.1,0,0,1-.1.48C226.2,241.77,224.31,243,222.14,242.85Z" fill="#d0671b"/><path d="M154.63,242.27c.84,3.72,3.57,1.79,5.62,1.87l-1.88,3.13c-3.19-.75-4.24,1.18-4.77,3.8a2.35,2.35,0,0,1-1.47,1.83h0c-1.62.65-3,.65-3.78-1.29,1.7-1.25.79-3.5,1.9-5a34.12,34.12,0,0,1,2-3C153,243.06,153.37,241.9,154.63,242.27Z" fill="#eac33f"/><path d="M145.82,254.54c-1.39-2.75.44-8,3.54-10.62Z" fill="#7c5218"/><path d="M152.75,244.14c-.69,1-1.14,2.19-2.5,2.5-.53-2.48,2-3.61,2.5-5.62h0C153.57,242.07,153.22,243.11,152.75,244.14Z" fill="#dd9b29"/><path d="M160.25,244.14c-.56-1.31-1.32-2.72,1.3-2.17,1.43.29,3.36-.91,3.93,1.78.16.76,1.89.31,2.9.39v.63c-1.49-.37-2.27,2.34-4.24.83-.61-.47-2.5,1-2-1.52C162.26,243.58,160.93,244.31,160.25,244.14Z" fill="#ebc835"/><path d="M152.13,252.9c1.24-1.15.68-2.85,1.33-4.26,1.23-2.64,2.64-3.16,4.91-1.37l.63.64c-2.1.9-2.77,3.15-4.29,4.59C153.91,253.27,153.24,254.34,152.13,252.9Z" fill="#e3ad35"/><path d="M174,234.76c-2.51,2.27-6.26,2-8.73,4.39-2,1.39-3.59,1.7-4.56-1.26-.55-1.67-3.11-2.63-1.7-5,1.87-2.12,4.57-2.94,6.88-4.38,2.19-1.94,3.65-1.67,4.68,1.25a4.17,4.17,0,0,0,2.82,2.2C175,232.48,175,233.56,174,234.76Z" fill="#f9f05b"/><path d="M174,234.76c.46-1.3.07-2-1.3-2.47a4.7,4.7,0,0,1-3.5-3.64c-.69-3-2.22,1.09-3.31-.14,1-1.11,2-2.2,3.73-1.85,1.21.67,2,2.52,4,1.27a3.44,3.44,0,0,1,2.93,1.84c.17.83-.76,1.67,0,2.5,0,.42,0,.83,0,1.24C175.41,233.43,174.87,234.43,174,234.76Z" fill="#f2db48"/><path d="M159,232.89c0,1.34-.15,2.75,1.63,3.17a1.38,1.38,0,0,1,1,1.4c.12,3,1.91,2.25,3.64,1.69-1.36,1.46-5.16,2.19-6.48,1.23-.23-.16-.6-.47-.56-.58.8-2.09-.76-4.22.15-6.29Z" fill="#f5e450"/><path d="M152.75,244.14c0-1,0-2.07,0-3.11h2.5a1.33,1.33,0,0,1-.64,1.24Z" fill="#e5b531"/><path d="M176.5,232.27a1.51,1.51,0,0,1,0-2.5C178.64,230.61,175.72,231.44,176.5,232.27Z" fill="#efd33e"/><path d="M139.63,207.89c-.09-1.07.43-1.52,1.39-2.06a64.73,64.73,0,0,0,6-4.21,1.67,1.67,0,0,0,.65-1c.11-.69.3-1.49-.52-1.94a.67.67,0,0,0-.57,0c-.72.72.76,1.17.13,2-2.26.26-2.37-2.68-2.32-3,.36-2,2.12-.93,3.37-1.07a3.48,3.48,0,0,1,.87,4.84c.94,2,2.49-3.65,2.87.79.38.89.9,1.78-.06,2.63-.64-.16-1.44-.56-1.1.76-.09.74-.22,1.45-1,1.78-3.5-2-3.5-2-6.8.78a3.19,3.19,0,0,1-2.1,1.11A1.36,1.36,0,0,1,139.63,207.89Z" fill="#f8ed5b"/><path d="M156.5,202.26l-1,1.15c.85,1.06,2.12-1.48,2.75.33.31.88-1.54,2.07-3.67,2.3,3.65,3.34-.72,3.85-1.8,5.58-2.66-.46-3.29-2.33-1.82-5.33a4.69,4.69,0,0,1,3.06-2.14c1.24-.6-.64-1.94.6-2.54Z" fill="#e5b435"/><path d="M154,204.15l-2.5,2.51-.3-.32a1.27,1.27,0,0,1,.29-1.58c.3-.83-.64-1.66,0-2.49C153.12,201.85,153.25,203.42,154,204.15Z" fill="#f3dd50"/><path d="M126.5,195.4c1.32-1.4,1.34-3.92,3.75-4.39,1.47-.48,2.28-3.45,4.48-1.18l-7.58,6.85C126.93,196.25,126.72,195.82,126.5,195.4Z" fill="#e9c442"/><path d="M143.38,222.27a5.8,5.8,0,0,1-1.87,5.62,2.56,2.56,0,0,1,0,2.5l-.62.63c-.91.52-1-.2-1.52-.74-.62-.69-2.12-1.45-2.5-.23-.86,2.74-1.74,1.66-2.86.34,0-.88-2.15-2.56.94-2.43.38,0,2.86-1,.91-2.7-.39-.34-.44-.71,0-1,.59-.42,1.27-.89,2-.36,1.17.85,2.12.34,3.06-.38C141.41,222.48,141.94,221.46,143.38,222.27Z" fill="#eccd33"/><path d="M143.38,222.27c-1.08-.09-1.63.9-2.5,1.25-2.29-3.29-4.58-1.26-6.87,0-.88-1.55,1.26-1.91,1.24-3.12,1.31-.37,1.44-1.87,2.44-2.54.37-.44.76-.87,1.43-.73a4.86,4.86,0,0,0,4.66,1.7c1.25-.16,2.48-.27,3.34.93Z" fill="#f3df49"/><path d="M138.38,218.52c-1.24.3-1.55,2.14-3.13,1.88-1.63-1.1-2.75-3-5-3.13,1.7-1,1.93-2.63,1.88-4.38a10,10,0,0,0,6.26-5h1.24a1.28,1.28,0,0,1,.62,1.25,3.68,3.68,0,0,1-2.7,2.72c.4,1,1,2,.53,3.16a4.07,4.07,0,0,1-.46,1.15C136.45,217.44,136.79,218.17,138.38,218.52Z" fill="#f6e84a"/><path d="M95.88,251c.85-.91,0-2.17.65-3.11h.59c.08,1.25,1,1.21,1.88,1.25a1.31,1.31,0,0,0,.64,1.24,4.32,4.32,0,0,1-.35,1.14,17.25,17.25,0,0,1-1.24,1.61C97,252.68,97,251.29,95.88,251Z" fill="#f1d946"/><path d="M141.5,230.39a2,2,0,0,1,0-2.5c1.51.16,3.79-.45,2.49,2.5Z" fill="#eac632"/><path d="M151.51,206.66c-.59,1.91-1.37,3.87,1.26,5l.63.61c1,3-1.69,3.61-3.16,5l-2.49,1.88c-1.62-2.59-1.14-4,2.3-6.14-1.67-.69-.59-3.17-2.69-3.57-1-1.93,0-2.26,1.64-2.15.74-.45.6-1.19.63-1.87,1.23-.5,1.31.72,1.87,1.23Z" fill="#f3dd50"/><path d="M150.24,217.25c.88-1.78,3.43-2.51,3.16-5,2,.59,2.06,1,.65,2.48-.65.69-3.06,1.24-.29,2.46.44.19.08.89-.31,1.3-.72.76-1.42,1.52-2.57.68C150.67,218.51,150.45,217.88,150.24,217.25Z" fill="#e2aa2a"/><path d="M147.75,209.15c.69.31,2.75-.93,1.58,1.48-.52,1.07,1.07.8,1.21,1.38.2.84,1.84,2-.81,2.36s-2.57,2.63-2,4.76l-.63.63a10.75,10.75,0,0,0-3.31-.14c-1.91.2-4.2.43-4.8-2.35-.52-3.88,3.67-8.05,7.84-7.68C147.41,209.64,147.49,209.36,147.75,209.15Z" fill="#f7e95a"/><path d="M147.75,209.15c-.07.47.08,1.41-.39,1.28-3.72-1.05-5.24,2.27-7.65,3.77-.26.16-1.27.87.07,1.63.92.52-.25,1.06-.77,1.44a1.28,1.28,0,0,0-.63,1.25c-1.79.26-2.47-.34-1.72-2.15.51-1.25,1.19-2.25.59-4-.42-1.24,1.78-2.3,3-3.26l3-2.67c3-2.64,3.59-2.55,5.76.8C148.54,207.86,146.72,207.56,147.75,209.15Z" fill="#faf25e"/><path d="M151.5,206.63l-1.87-1.23c.14-.67-.39-1.68.37-2s.79,1.08,1.5,1.31Z" fill="#f4e251"/><text transform="translate(145.67 94.44)" font-size="45" fill="#775d36" font-family="Titillium-Bold, Titillium" font-weight="700">En<tspan font-size="25.89"><tspan x="-47.74" y="31.07" letter-spacing="-0.01em">C</tspan><tspan x="-33.89" y="31.07">onstru</tspan><tspan x="39.79" y="31.07" letter-spacing="0em">c</tspan><tspan x="51.24" y="31.07">cin</tspan></tspan></text></g></g></svg>