<svg xmlns="http://www.w3.org/2000/svg" viewBox="0 0 436.38 441.73"><title>error-timeout</title><g id="Capa_2" data-name="Capa 2"><g id="Character"><ellipse id="Floor" cx="204.85" cy="335.93" rx="204.85" ry="105.8" fill="#f5f5f5"/><g id="Character-2" data-name="Character"><g id="Character-3" data-name="Character"><g id="Character-4" data-name="Character"><g id="_Grupo_" data-name="&lt;Grupo&gt;"><path d="M265.09,321.91c-.08-8.17-3.11-60.14-4.2-72.09-1.82-20.08-1.62-74.32,2.41-91.61l54,4.28c3.86,9.73,6.69,21.7,6,40.48-.5,14.32-.26,53.16-.26,53.16a160,160,0,0,1,5.42,18.6c2.42,10.5,4.87,42.31,5.93,52.76l0,1.39a4.91,4.91,0,0,1,1,2.16c0,.84-.11,1.67-.07,2.5a8.59,8.59,0,0,1-1.42,5.54,8.73,8.73,0,0,1-3.09,2.95,5.09,5.09,0,0,1-4.17.35c-3.85-1.51-3.29-7.65-4.57-10.84L321.5,330s-16.7-50.73-20.76-63.28c-3.41-10.57-8-44.94-11.63-64l-6.4,45.43a83.49,83.49,0,0,1,3.44,14.5c1.5,14-3.87,40.92-5.68,52.66a25.79,25.79,0,0,0-.28,5.19c0,.5,1.5,5.34-4.69,5.82S265.1,322.63,265.09,321.91Z" fill="#ffa8a7"/><path d="M311.4,146.19s6.86,13,9.88,25.62,2.85,20.92,2.73,42.93-.43,41.14-.43,41.14a30.42,30.42,0,0,1,3.33,7.11c1.87,5.82,3.52,12.27,4.27,29.25,0,0-9.24,7.44-20.66,4.49,0,0-8.33-23.56-10.78-31.12-3.16-9.78-10.63-62.86-10.63-62.86l-5.17,45.51s3.91,10.88,3.39,18.57-2.23,19.82-2.23,19.82-10.91,3.68-22-1.45c0,0-3-35.83-3.49-48.8s-2.07-58.75,4.29-87.43Z" fill="#27debf"/><path d="M311.4,146.19s6.86,13,9.88,25.62,2.85,20.92,2.73,42.93-.43,41.14-.43,41.14a30.42,30.42,0,0,1,3.33,7.11c1.87,5.82,3.52,12.27,4.27,29.25,0,0-9.24,7.44-20.66,4.49,0,0-8.33-23.56-10.78-31.12-3.16-9.78-10.63-62.86-10.63-62.86l-5.17,45.51s3.91,10.88,3.39,18.57-2.23,19.82-2.23,19.82-10.91,3.68-22-1.45c0,0-3-35.83-3.49-48.8s-2.07-58.75,4.29-87.43Z" opacity="0.3"/><path d="M289.14,202.87,284,182.81s-9.84,1.14-17.59-4.59c0,0,1.58,7.34,15.31,9.53l5.86,19.69-.09,9.4Z" opacity="0.3"/><path id="_Trazado_" data-name="&lt;Trazado&gt;" d="M308.13,356.77c-.4.42-.15,3.49.35,4.19s3.31,3,8.49,3.11c4.94.09,9.3-.81,12.09-2.8s4.08-4.09,4.2-6.91-.34-5.51.88-7.74c1.13-2.05,2.67-4.08,3-5.19.81-2.4,0-6,0-6Z" fill="#263238"/><path id="_Trazado_2" data-name="&lt;Trazado&gt;" d="M320.12,333a13.21,13.21,0,0,1-.44,3.15,28.19,28.19,0,0,1-2.68,6.33,24.18,24.18,0,0,1-1.9,3c-1.39,1.85-3.16,3.41-4.65,5.19a10.1,10.1,0,0,0-2.71,6.2c0,3.88,4.26,5,7.52,5.36a23.61,23.61,0,0,0,10.45-1.09,9.63,9.63,0,0,0,6.65-8.07c.12-1.08,0-2.17.06-3.26a15.2,15.2,0,0,1,2.64-6.91,20.84,20.84,0,0,0,2.11-3.8c.87-2.45-.08-5.09-.85-7.44-.67-2-1.2-4.47-1.91-4.23,0,.41,0,1.32,0,1.32-.21.46-.73.79-.85,1.32a10.12,10.12,0,0,1-.5,1.62,4.23,4.23,0,0,1-1.61,2c-.13-1.45-.26-2.91-.38-4.36a2.08,2.08,0,0,0-.41-1.27,2.05,2.05,0,0,0-1.26-.47,27.54,27.54,0,0,0-8.3-.24,1.48,1.48,0,0,0-1.08.55,1.59,1.59,0,0,0-.13,1A38.68,38.68,0,0,1,320.12,333Z" fill="#455a64"/><path id="_Trazado_3" data-name="&lt;Trazado&gt;" d="M316.52,343.31c1.38-1.15,4.6-1.34,6.37-1.25a10.8,10.8,0,0,1,5.11,1.49,1.13,1.13,0,0,0,1.46-.19h0a1.08,1.08,0,0,0-.19-1.64,10.91,10.91,0,0,0-5.75-1.78c-4.35-.08-5.58.74-5.58.74S316,342.05,316.52,343.31Z" fill="#f0f0f0"/><path id="_Trazado_4" data-name="&lt;Trazado&gt;" d="M313.43,347.44c1.75-1.16,5.3-1.2,7.07-1.1a9.88,9.88,0,0,1,5,1.59,1.16,1.16,0,0,0,1.47-.2h0a1.07,1.07,0,0,0-.2-1.63,11.25,11.25,0,0,0-5.87-2c-4.35-.07-5.44.88-5.44.88A3.56,3.56,0,0,0,313.43,347.44Z" fill="#f0f0f0"/><path id="_Trazado_5" data-name="&lt;Trazado&gt;" d="M325,335.7a10.67,10.67,0,0,0-5.42.75c-.74.46-1.18,1.7-.67,2a10,10,0,0,1,4.79-.93,14.43,14.43,0,0,1,4.76,1c.38.14.83.35,1.23.54a1,1,0,0,0,1.4-.52h0a1,1,0,0,0-.44-1.21A13.78,13.78,0,0,0,325,335.7Z" fill="#f0f0f0"/><path id="_Trazado_6" data-name="&lt;Trazado&gt;" d="M240.55,342.5a4.51,4.51,0,0,0,.37,3.32c.51.95,5.75,3.55,12.59,2.71a28.67,28.67,0,0,0,13.92-5.72c2.52-1.87,5.22-2.34,8.61-2.72s5.94-1.55,6.6-3.18-.35-4.32-.35-4.32Z" fill="#263238"/><path id="_Trazado_7" data-name="&lt;Trazado&gt;" d="M267.18,320.77a15.7,15.7,0,0,1-1.82-.51,1.13,1.13,0,0,0-1.69,1.11,16.64,16.64,0,0,1-.59,3,7.52,7.52,0,0,1-1.81,2.13,32.18,32.18,0,0,1-5.3,3.83c-2.18,1.33-4.32,2.38-6.58,3.54s-5.4,2-7.18,3.35c-2.6,2-2.7,6.54.46,8.18,2.73,1.41,9.78,2.71,17,.25,3.92-1.34,8.11-5.82,13.31-6.51,3.3-.44,7.71-1,9.71-3.59.73-1.17.1-4.41-.49-8.24-.53-3.44-1-8.82-2.07-8.47l0,1a20,20,0,0,1-1.43,1.64,10.89,10.89,0,0,1-.92.88c-.41.39-.73.84-1.17,1.2a3.39,3.39,0,0,1-1.92.8,1.88,1.88,0,0,1-1-.21c-.56-.32-.64-1.06-1.1-1.53a5.35,5.35,0,0,0-1.84-1.19,10.62,10.62,0,0,0-3-.62A4.76,4.76,0,0,1,267.18,320.77Z" fill="#455a64"/><path id="_Trazado_8" data-name="&lt;Trazado&gt;" d="M259,328.38a3.08,3.08,0,0,1,2.36-1.77c1.5-.37,4.23.6,6,1.88a1.24,1.24,0,0,1-.07,2.06h0a1.25,1.25,0,0,1-1.42-.08A9.48,9.48,0,0,0,259,328.38Z" fill="#f0f0f0"/><path id="_Trazado_9" data-name="&lt;Trazado&gt;" d="M254.43,331.25a3.53,3.53,0,0,1,2.82-1.65s3.95-.1,6.52,2a1.21,1.21,0,0,1-.06,2h0a1.17,1.17,0,0,1-1.37-.08A9.54,9.54,0,0,0,254.43,331.25Z" fill="#f0f0f0"/><path id="_Trazado_10" data-name="&lt;Trazado&gt;" d="M249.39,333.89a4,4,0,0,1,2.94-1.51,10.67,10.67,0,0,1,6.25,2.08,1.22,1.22,0,0,1-.06,2h0a1.19,1.19,0,0,1-1.37-.08A9.07,9.07,0,0,0,249.39,333.89Z" fill="#f0f0f0"/></g><path d="M268.19,86.91c3.94-2.87,6.6-3.12,10.49-2.72l-4.62,29.11s-16.7,16.24-21.26,20.77L239.15,123.4S264.24,89.78,268.19,86.91Z" fill="#ffa8a7"/><path id="_Trazado_11" data-name="&lt;Trazado&gt;" d="M264.22,140.67A91,91,0,0,0,264.4,124c-8-8.08-6.33-17.31-2.69-23.21,7.48-12.11,17-16.63,17-16.63l12.49-.38c1.76.2,17.12,2.42,19.07,2.93,0,0,5.29,4.48,6.72,9.62.82,2.92,1.05,5.85-1.6,15.38l-6.5,16.57s-1.89,5-.93,8.45c1,3.65,6.25,12.13,9,20.53,0,0-11.86,10.61-33.6,8.15-18.6-2.1-21.3-8.36-21.3-8.36S264,144.07,264.22,140.67Z" fill="#f0f0f0"/><path d="M299.21,120.69a13.31,13.31,0,0,1-12.84,6.68,14.05,14.05,0,0,1-11.74-7.8s.09,9.82,11.68,10.15S299.21,120.69,299.21,120.69Z" opacity="0.1"/><g id="Arm"><path d="M403.6,121.21a13.69,13.69,0,0,0-1-5,3.43,3.43,0,0,0-1.67-1.92,1.77,1.77,0,0,0-1.73.41c-1.59,1.41-4.14,4-5.81,5.34a17.32,17.32,0,0,1-5.18,3.13c-.43-.36.14-.91.4-1.27.64-.91,1.28-1.46,2-2.44s1.54-1.9,1.16-3.24a1,1,0,0,0-.7-.74,1.11,1.11,0,0,0-.83.23,31.76,31.76,0,0,0-6.4,4.18c-2.16,1.81-3.43,4.8-7.14,6.26s-7.69,1.83-14.55,2.73c-5.34.7-11.36,1.2-17.29,1.71-3.45-4.88-16.34-23.39-21.56-31.33-4-6.12-7.27-11.56-13.07-12.48-5,1.43-7,14.86-3.83,23.31,0,0,3,5.42,10.45,14.08,3.53,4.13,11.8,14.71,17.25,20.44,2.61,2.74,3.75,3.4,15,1.62,6.2-1,28.22-6.72,32.41-7.95a72.31,72.31,0,0,0,8.41-2.8c2.73-1.12,8.63-4.3,10.86-7A10.93,10.93,0,0,0,403,124.8,10.19,10.19,0,0,0,403.6,121.21Z" fill="#ffa8a7"/></g><g id="_Grupo_2" data-name="&lt;Grupo&gt;"><path d="M310.13,40.46C313.7,45,314.45,51,313.64,56.84c-1.36,9.9-7.31,17.64-14.43,21-4.26,2-9.82,2.87-12.72.41a176,176,0,0,0-13.9-10.92c-3.63-2.51-7.59-5-9.47-9-1.62-3.43-1.63-9.31,1.59-11.89-3.17-2.15-4.54-5.8-5.12-7.92-.66-2.44.05-4,1-4.86s3.79-1,5-1.13c4.66-.57,8-1.81,12.54-3.06,2.69-.75,10.41-1.68,15.48-.76,4,.72,8.62,2.26,10.66,7.83A10.22,10.22,0,0,1,310.13,40.46Z" fill="#263238"/><g id="_Grupo_3" data-name="&lt;Grupo&gt;"><path id="_Trazado_12" data-name="&lt;Trazado&gt;" d="M273.57,38.13c-3,1.55-6.88,8.58-7.31,23.71-.37,12.83,3.62,16.21,5.66,17.23s6.09.68,10,.23l.41,7s-12.93,10.66.22,10.78c7.77.07,16.93-10.65,16.93-10.65l.74-16.19a4.67,4.67,0,0,0,5.45-.72c3.17-2.88,3.92-7.3,1.54-10s-6.57-2.33-8.4,1.55c0,0-2.17,1.35-4.24-3a26.37,26.37,0,0,1-10.83-4.19C275.83,48.66,274.14,40.74,273.57,38.13Z" fill="#ffa8a7"/></g><g id="_Grupo_4" data-name="&lt;Grupo&gt;"><path id="_Trazado_13" data-name="&lt;Trazado&gt;" d="M282.59,57.88a1.61,1.61,0,1,0,1.78-1.51A1.65,1.65,0,0,0,282.59,57.88Z" fill="#263238"/></g><g id="_Grupo_5" data-name="&lt;Grupo&gt;"><path id="_Trazado_14" data-name="&lt;Trazado&gt;" d="M278.71,69.92a1.64,1.64,0,0,0,1.43,1.83,1.68,1.68,0,1,0-1.43-1.83Z" fill="#b16668"/></g><g id="_Grupo_6" data-name="&lt;Grupo&gt;"><path id="_Trazado_15" data-name="&lt;Trazado&gt;" d="M271.66,49.43l-3.4,2a1.9,1.9,0,0,0,2.67.73A2.08,2.08,0,0,0,271.66,49.43Z" fill="#263238"/></g><g id="_Grupo_7" data-name="&lt;Grupo&gt;"><path id="_Trazado_16" data-name="&lt;Trazado&gt;" d="M285.58,52.72l3.63,1.61a1.9,1.9,0,0,0-.94-2.6A2.08,2.08,0,0,0,285.58,52.72Z" fill="#263238"/></g><g id="_Grupo_8" data-name="&lt;Grupo&gt;"><path id="_Trazado_17" data-name="&lt;Trazado&gt;" d="M269,57.17a1.61,1.61,0,1,0,1.78-1.51A1.65,1.65,0,0,0,269,57.17Z" fill="#263238"/></g><g id="_Grupo_9" data-name="&lt;Grupo&gt;"><polygon id="_Trazado_18" data-name="&lt;Trazado&gt;" points="277.28 55.35 276.38 66.77 270.46 64.6 277.28 55.35" fill="#f28f8f"/></g><g id="_Grupo_10" data-name="&lt;Grupo&gt;"><path id="_Trazado_19" data-name="&lt;Trazado&gt;" d="M282,79.3C286.1,79,294.71,77,296.2,73.69a9.11,9.11,0,0,1-3.26,4.63c-2.64,2-10.81,3.91-10.81,3.91Z" fill="#f28f8f"/></g><path id="_Trazado_20" data-name="&lt;Trazado&gt;" d="M299,58l-.35,6.74h0a4.59,4.59,0,0,1-4.35-4.83l.32-6.22Z" fill="#263238"/></g></g><path d="M284.52,170.38c23.59-.51,52.62,15.43,64.86,35.6,6.11,10.09,6.86,19.32,3.14,26.09l-4.47,8.14c-3.71,6.8-11.91,11.13-23.72,11.39-23.58.51-52.62-15.43-64.85-35.6-6.11-10.08-6.86-19.3-3.15-26.07.56-1,3.94-7.18,4.51-8.23C264.57,174.94,272.75,170.63,284.52,170.38Z" fill="#37474f"/><path d="M321.2,180.43c11.74,6.44,22.06,15.47,28.18,25.55s6.86,19.32,3.14,26.09l-4.47,8.14c-3.71,6.8-11.91,11.14-23.72,11.39s-24.94-3.6-36.68-10Z" opacity="0.1"/><path d="M342.18,196.55a59.39,59.39,0,0,1,7.2,9.43c6.11,10.09,6.86,19.32,3.14,26.09l-4.47,8.14c-3.71,6.8-11.91,11.14-23.72,11.39a58.67,58.67,0,0,1-11.81-1Z" fill="#263238"/><ellipse cx="306.67" cy="206.9" rx="30.2" ry="52.31" transform="translate(-22.27 376.17) rotate(-61.24)" fill="#455a64"/><path d="M284.15,160.23c.18-.31.62-.32,1-.29,2.05.16,5.33,1,6.88-.84a1,1,0,0,0,.21-1,1.14,1.14,0,0,0-.66-.56,32.69,32.69,0,0,0-7.07-2.88" fill="#ffa8a7"/><g id="_Grupo_11" data-name="&lt;Grupo&gt;" opacity="0.4"><path id="_Trazado_21" data-name="&lt;Trazado&gt;" d="M299.65,149.24c-14.49,6.35-22.62,19.32-31.43,35.38l77.93,42.78c8.81-16.06,15.4-29.88,13-45.51s-7.18-23.23-8.44-29.1-.4-9.33.88-11.67,3.72-5,9.38-7,14.59-2.16,29.08-8.51,22.61-19.33,31.42-35.39L343.54,47.42c-8.82,16.06-15.41,29.9-13,45.52s7.16,23.22,8.44,29.1.38,9.32-.91,11.68-3.71,4.93-9.35,7c-3.07,1.12-7.1,1.65-12.48,2.93A94.89,94.89,0,0,0,299.65,149.24Z" fill="#27debf"/></g><ellipse cx="307.18" cy="206.01" rx="25.66" ry="44.45" transform="translate(-21.23 376.16) rotate(-61.24)" fill="#27debf"/><ellipse cx="382.55" cy="68.72" rx="25.66" ry="44.45" transform="translate(138.22 371) rotate(-61.24)" fill="#27debf"/><g id="_Grupo_12" data-name="&lt;Grupo&gt;" opacity="0.8"><path id="_Trazado_22" data-name="&lt;Trazado&gt;" d="M337.66,98.46c.63,5.82,3,10,4.38,13.6a55.43,55.43,0,0,1,2.55,7.76c1.41,6.5.86,11.91-1.68,16.53s-2.47,6-1.18,6.73,2.51,0,5-4.6,6.8-8,13-10.3a55,55,0,0,1,7.92-2c5.3-1.09,2.94-3.19-.65-3.94-10.42-2.16-11.86-4.85-17.37-16.21a41,41,0,0,0-5.28-8.14C342,95.35,337.2,94.23,337.66,98.46Z" fill="#fff"/></g><g id="_Grupo_13" data-name="&lt;Grupo&gt;" opacity="0.8"><path id="_Trazado_23" data-name="&lt;Trazado&gt;" d="M340.44,150.93a2.68,2.68,0,1,0-3.82,1.47A2.9,2.9,0,0,0,340.44,150.93Z" fill="#fff"/></g><path d="M273.47,186.58c7-12.2,13.87-21.94,24.92-26.6,8.73-3.68,21.13-3.65,32.61,2.65s17.56,13.86,19.74,26.09c2.1,11.79-2.52,22.85-9.06,35.3-2.6,4.73-8.52,7.62-17.16,7.57-17.27-.1-38.86-12-48.22-26.47-4.68-7.26-5.42-13.81-2.83-18.54Z" fill="#fff" opacity="0.8"/><ellipse cx="307.57" cy="205.3" rx="21.05" ry="38.9" transform="translate(-20.4 376.13) rotate(-61.24)" fill="#fff" opacity="0.7"/><path d="M366.11,21.75c23.59-.51,52.63,15.43,64.86,35.6,6.12,10.08,6.86,19.31,3.14,26.09l-4.47,8.14c-3.71,6.8-11.9,11.13-23.71,11.39-23.59.5-52.63-15.43-64.86-35.61-6.11-10.07-6.86-19.29-3.15-26.06l4.51-8.23C346.16,26.31,354.34,22,366.11,21.75Z" fill="#37474f"/><path d="M402.8,31.79c11.73,6.45,22.05,15.47,28.17,25.56s6.86,19.31,3.14,26.09l-4.47,8.14c-3.71,6.8-11.9,11.13-23.71,11.39s-24.95-3.61-36.69-10Z" opacity="0.1"/><path d="M423.78,47.92A59.92,59.92,0,0,1,431,57.35c6.12,10.08,6.86,19.31,3.14,26.09l-4.47,8.14c-3.71,6.8-11.9,11.13-23.71,11.39a59.45,59.45,0,0,1-11.82-1Z" fill="#263238"/><ellipse cx="388.26" cy="58.27" rx="30.2" ry="52.31" transform="translate(150.35 370.58) rotate(-61.24)" fill="#455a64"/><g id="Arm-2" data-name="Arm"><path d="M239.15,123.4l15.4,7.66c3.8,4.59,5.68,7.1,9.29,11.09a59.62,59.62,0,0,0,11.43,10.21c3.32,2.21,6.5,1.56,9.22,2.3l-.34,5.57c-.25.43.24.9.67,1.15a53.58,53.58,0,0,0,11.69,5.05c1.39.41,3.05,1,3.3,2.45.2,1.18-.86,2.1-1.69,3-3,3.12-8.2,3.94-12.29,3.12-3.54-.71-7.4-3-10.46-5-3.22-2.16-5.7-4.87-8.12-6.82-3.4-2.75-15-12.39-19.66-16.61-2.69-2.44-6.57-5.93-8.44-7.88C234.59,133.92,233.25,131.25,239.15,123.4Z" fill="#ffa8a7"/></g></g><g id="Exclamation_Marks" data-name="Exclamation Marks"><path d="M252.63,22.76a1.06,1.06,0,0,1,1-1.11l5-.23a1,1,0,0,1,.76.28,1.06,1.06,0,0,1,.35.74l.18,4a1,1,0,0,1-.29.76,1,1,0,0,1-.73.34l-5,.23a1,1,0,0,1-.76-.28,1,1,0,0,1-.35-.73Zm-1-21.43a1,1,0,0,1,.28-.76,1,1,0,0,1,.73-.34l5-.23a1,1,0,0,1,.76.28,1.06,1.06,0,0,1,.35.73l.76,17a1,1,0,0,1-.28.76,1,1,0,0,1-.73.34l-5,.23a1,1,0,0,1-.76-.28,1,1,0,0,1-.35-.73Z" fill="#27debf"/><path d="M242.24,37.73a1,1,0,0,1-.15-.8,1,1,0,0,1,.45-.67l4.13-2.74a1,1,0,0,1,.8-.15,1,1,0,0,1,.67.44l2.2,3.32a1,1,0,0,1,.15.8,1,1,0,0,1-.45.67l-4.13,2.74a1,1,0,0,1-.8.15,1,1,0,0,1-.68-.45ZM230.39,19.85a1,1,0,0,1-.15-.79,1,1,0,0,1,.45-.68l4.13-2.74a1,1,0,0,1,.8-.15,1,1,0,0,1,.67.45l9.37,14.14a1,1,0,0,1,.15.79,1,1,0,0,1-.45.68l-4.13,2.74a1,1,0,0,1-.79.15,1,1,0,0,1-.68-.45Z" fill="#27debf"/><g opacity="0.6"><path d="M242.24,37.73a1,1,0,0,1-.15-.8,1,1,0,0,1,.45-.67l4.13-2.74a1,1,0,0,1,.8-.15,1,1,0,0,1,.67.44l2.2,3.32a1,1,0,0,1,.15.8,1,1,0,0,1-.45.67l-4.13,2.74a1,1,0,0,1-.8.15,1,1,0,0,1-.68-.45ZM230.39,19.85a1,1,0,0,1-.15-.79,1,1,0,0,1,.45-.68l4.13-2.74a1,1,0,0,1,.8-.15,1,1,0,0,1,.67.45l9.37,14.14a1,1,0,0,1,.15.79,1,1,0,0,1-.45.68l-4.13,2.74a1,1,0,0,1-.79.15,1,1,0,0,1-.68-.45Z" fill="#fff"/></g></g></g></g></g></svg>