<svg height="512" viewBox="0 0 64 64" width="512" xmlns="http://www.w3.org/2000/svg"><g fill="#79bd9a"><path d="m19 11a9 9 0 1 0 9 9 9 9 0 0 0 -9-9zm-5 5a3 3 0 1 1 3 3 3 3 0 0 1 -3-3zm7 11a3 3 0 1 1 3-3 3 3 0 0 1 -3 3z"/><path d="m41.92 3a8.87 8.87 0 0 0 -8.6 6.71l-1.32 5.29h.16a1.86 1.86 0 0 1 .34 0 1.51 1.51 0 0 1 1 .37l2.5.63 1-4.56a5 5 0 0 1 5.5-3.88l3.5.44v-5z"/><path d="m50.88 24.54 7.92-2.27-3.73-2.47 4.93-7.46-8.93.54-.27-4.47-5.92 5.73-3.74-2.46-.14.32a15.84 15.84 0 0 0 0 11.34 15.9 15.9 0 0 0 9.83 5.66l.31.05z"/></g><path d="m28 8a6 6 0 1 0 4.47 10 1.5 1.5 0 1 1 1.29-2.32 6.14 6.14 0 0 0 .24-1.68 6 6 0 0 0 -6-6z" fill="#cff09e"/><path d="m11 44a5 5 0 0 0 0 10h.09a1.58 1.58 0 0 1 -.09-.5 1.5 1.5 0 0 1 2.92-.5 5 5 0 0 0 -2.92-9z" fill="#79bd9a"/><path d="m15 49a6 6 0 1 0 6 6 6 6 0 0 0 -6-6zm-2.5 6a1.5 1.5 0 1 1 1.5-1.5 1.5 1.5 0 0 1 -1.5 1.5z" fill="#a8dba8"/><path d="m15 31a9 9 0 1 0 4.09 17 1.48 1.48 0 0 1 1.41-1h.13a9 9 0 0 0 -5.63-16zm-4 10a3 3 0 1 1 3-3 3 3 0 0 1 -3 3zm5.5-1a1.5 1.5 0 1 1 1.5-1.5 1.5 1.5 0 0 1 -1.5 1.5z" fill="#a8dba8"/><path d="m19 34a6 6 0 0 0 -5.19 3 2.83 2.83 0 0 1 .19 1 3 3 0 0 1 -1 2.21 6 6 0 1 0 6-6.21zm-2.5 6a1.5 1.5 0 1 1 1.5-1.5 1.5 1.5 0 0 1 -1.5 1.5z" fill="#79bd9a"/><path d="m24 42a7 7 0 1 0 7 7 7 7 0 0 0 -7-7zm-3.5 8a1.5 1.5 0 1 1 1.5-1.5 1.5 1.5 0 0 1 -1.5 1.5z" fill="#a8dba8"/><circle cx="33" cy="46" fill="#79bd9a" r="6"/><circle cx="40" cy="38" fill="#cff09e" r="6"/><path d="m36 23a7 7 0 1 0 7 7 7 7 0 0 0 -7-7zm3.5 9a1.5 1.5 0 1 1 1.5-1.5 1.5 1.5 0 0 1 -1.5 1.5z" fill="#79bd9a"/><circle cx="10" cy="27" fill="#cff09e" r="6"/><circle cx="30" cy="39" fill="#cff09e" r="7"/><path d="m41 20a7 7 0 1 0 -7 7 7 7 0 0 0 7-7zm-8.5-2a1.5 1.5 0 1 1 1.5-1.5 1.5 1.5 0 0 1 -1.5 1.5z" fill="#a8dba8"/><path d="m23 19a9 9 0 1 0 9 9 9 9 0 0 0 -9-9zm-2 8a3 3 0 1 1 3-3 3 3 0 0 1 -3 3z" fill="#a8dba8"/><path d="m60.87 11.84a1 1 0 0 0 -.93-.5l-7.94.48-.2-3.47a1 1 0 0 0 -.63-.87 1 1 0 0 0 -1.06.21l-5.35 5.18-3.07-2a1 1 0 0 0 -.85-.11 1 1 0 0 0 -.63.59l-.11.29a16.23 16.23 0 0 0 -.75 2.46 7.56 7.56 0 0 0 -1.64-1.15l.29-1.29a4 4 0 0 1 4.4-3.1l3.48.44a1 1 0 0 0 .78-.24 1 1 0 0 0 .34-.76v-5a1 1 0 0 0 -1-1h-4.08a9.84 9.84 0 0 0 -9.34 6.7 7 7 0 0 0 -10.58 1.75 9.9 9.9 0 0 0 -3-.45 10 10 0 0 0 -10 10v.08a7 7 0 0 0 -1.58 13.42 9.92 9.92 0 0 0 -1 11.64 5.94 5.94 0 0 0 1.61 9.07 6.84 6.84 0 0 0 -.03.79 7 7 0 0 0 13.79 1.68 7.67 7.67 0 0 0 2.21.32 8 8 0 0 0 7.06-4.28 7 7 0 0 0 8.94-6.72 6.63 6.63 0 0 0 -.08-1h.08a7 7 0 0 0 3.72-12.91 8 8 0 0 0 -.31-5.1 16.93 16.93 0 0 0 7.26 3l.33.01h.15a1 1 0 0 0 .68-.26 1 1 0 0 0 .32-.8l-.22-3.66 7.16-2.05a1 1 0 0 0 .27-1.8l-2.89-1.91 4.37-6.63a1 1 0 0 0 .03-1.05zm-18.87 18.16a6 6 0 0 1 -.39 2.13.11.11 0 0 1 0 0 6 6 0 0 1 -4.26 3.64 8.11 8.11 0 0 0 -4.93-4.45 10 10 0 0 0 .58-3.32v-.08a6.63 6.63 0 0 0 1 .08 8 8 0 0 0 5.86-2.58 6 6 0 0 1 2.14 4.58zm-18 9a5.55 5.55 0 0 1 .11-1.07 10 10 0 0 0 7.4-4.7 6 6 0 1 1 -7.51 5.77zm-6.73 5.68a5 5 0 0 1 -.7-9 9.94 9.94 0 0 0 5.51 2.32 7.42 7.42 0 0 0 -.08 1 7.88 7.88 0 0 0 .31 2.19 8 8 0 0 0 -5.04 3.49zm13.73-16.68a8 8 0 1 1 -8-8 8 8 0 0 1 8 8zm9-8a6 6 0 0 1 -6 6 5.76 5.76 0 0 1 -1.24-.15 10 10 0 0 0 -4.76-6.47 6 6 0 0 1 12 .62zm1.92-16h3.08v2.87l-2.36-.3a6 6 0 0 0 -6.64 4.65l-.22 1a6.76 6.76 0 0 0 -1.07-.22 7.42 7.42 0 0 0 -.58-1.42l.16-.67a7.85 7.85 0 0 1 7.63-5.91zm-13.92 5a5 5 0 0 1 4.62 3.13 8 8 0 0 0 -6.47 6.39l-.63-.19a5 5 0 0 1 2.48-9.33zm-9 3a7.77 7.77 0 0 1 2.21.32 7.16 7.16 0 0 0 -.21 1.68 7 7 0 0 0 1.3 4 10 10 0 0 0 -7.34 4 7 7 0 0 0 -4-2 8 8 0 0 1 8.04-8zm-14 15a5 5 0 0 1 8.9-3.12 10 10 0 0 0 -.9 4.12 9.86 9.86 0 0 0 .38 2.68 5 5 0 0 1 -8.38-3.68zm4.72 7h.28a7 7 0 0 0 4.15-1.37 9.24 9.24 0 0 0 1 1.54 7 7 0 0 0 -3.15 5.83 7.05 7.05 0 0 0 4.41 6.5 7.64 7.64 0 0 0 -.35 1.59 7.58 7.58 0 0 0 -1.06-.09 8 8 0 0 1 -5.28-14zm-2.72 15a3.9 3.9 0 0 1 .69-2.2 10 10 0 0 0 3.39 2.4 7.06 7.06 0 0 0 -2.48 3 4 4 0 0 1 -1.6-3.2zm8 11a5 5 0 0 1 0-10 5.09 5.09 0 0 1 1.09.14 8 8 0 0 0 3.81 5.71 5 5 0 0 1 -4.9 4.15zm9-5a6 6 0 0 1 -6-5.69c0-.1 0-.19 0-.29a6 6 0 0 1 5.13-5.93 8.05 8.05 0 0 0 2.87 2.84s0 0 0 .07a7 7 0 0 0 3.24 5.9 6 6 0 0 1 -5.24 3.1zm14-9a5 5 0 0 1 -9.92.76 7.94 7.94 0 0 0 8.21-2.83 7.5 7.5 0 0 0 1.49.7 5 5 0 0 1 .22 1.37zm7-8a5 5 0 0 1 -7.68 4.21 7.86 7.86 0 0 0 .68-3.21 8.28 8.28 0 0 0 -.1-1.23 8 8 0 0 0 5-3.79 5 5 0 0 1 2.1 4.02zm9.24-18.75a1 1 0 0 0 -.15.75 1.06 1.06 0 0 0 .43.64l1.92 1.26-5.84 1.68a1 1 0 0 0 -.72 1l.19 3.2a14.86 14.86 0 0 1 -7.79-4.48 19.83 19.83 0 0 1 1.88-1.9l5.91 1h.17a1 1 0 0 0 .17-2l-4.08-.69a19.09 19.09 0 0 1 5.67-2.45 1 1 0 1 0 -.5-1.94 21.12 21.12 0 0 0 -6.93 3.27l-.27-1.4a1 1 0 0 0 -2 .37l.46 2.44c-.28.24-.54.49-.8.75 0-.25 0-.49 0-.74a8 8 0 0 0 -1-3.8 15.11 15.11 0 0 1 .61-3l2.75 1.79a1 1 0 0 0 1.25-.12l4.37-4.22.13 2.3a1 1 0 0 0 .34.68 1 1 0 0 0 .72.25l6.93-.41z" fill="#3b8686"/></svg>