<svg xmlns="http://www.w3.org/2000/svg" viewBox="0 0 292.5 130.09"><title>logo-rojo</title><g id="Capa_2" data-name="Capa 2"><g id="Capa_1-2" data-name="Capa 1"><path d="M60.7,122.18a1,1,0,0,1,1.1-.9,1.45,1.45,0,0,1,.7.2l.5.3.3.1a5,5,0,0,0,2.3.5,3,3,0,0,0,2.1-.8,2.52,2.52,0,0,0,.9-2c0-1.1-.7-1.8-2.2-2.3l-2-.7a7.14,7.14,0,0,1-2.3-1.2,2.54,2.54,0,0,1-.9-1.3,4.71,4.71,0,0,1-.4-1.6,4.08,4.08,0,0,1,1.7-3.4,5.5,5.5,0,0,1,3.5-1.2,6.72,6.72,0,0,1,2.4.4c1.1.4,1.7,1,1.7,1.6,0,.8-.4,1.2-1.1,1.2-.2,0-.4-.1-.6-.1l-.5-.2-.4-.2-.3-.1-.3-.1a3.59,3.59,0,0,0-1.1-.2,2.72,2.72,0,0,0-1.7.6,1.9,1.9,0,0,0-.8,1.5q0,1.2,1.5,1.8c.2.1.6.2,1.1.4l.7.3.6.2c2.5.8,3.8,2.3,3.8,4.3v.6l-.2.8a5.21,5.21,0,0,1-2.1,3,5.38,5.38,0,0,1-3.1.9,8.55,8.55,0,0,1-3.8-.8c-.8-.4-1.2-.8-1.2-1.3l.1-.3" fill="#90004f"/><path d="M78.2,112.18a6.11,6.11,0,0,1,4.5,1.8,6.67,6.67,0,0,1,0,8.9,5.73,5.73,0,0,1-4.4,1.8,6.52,6.52,0,0,1-4.6-1.7,6.11,6.11,0,0,1-1.7-4.6,6.44,6.44,0,0,1,1.7-4.5,6.27,6.27,0,0,1,4.5-1.7m-.1,10.4a3.76,3.76,0,0,0,2.8-1.1,4.08,4.08,0,0,0,1.1-3,4.59,4.59,0,0,0-1.1-3.2,4.11,4.11,0,0,0-5.6,0,4.92,4.92,0,0,0,0,6.2A3.55,3.55,0,0,0,78.1,122.58Z" fill="#90004f"/><path d="M92.4,112.28c.2,0,.6.1,1.2.2a4.67,4.67,0,0,1,1,.5,1.38,1.38,0,0,1,.5.9,1.14,1.14,0,0,1-.3.8,1,1,0,0,1-.8.3c-.2,0-.3,0-.4-.1l-.4-.2-.2-.1-.3-.1a5.9,5.9,0,0,0-1.4-.2,2.48,2.48,0,0,0-2.1,1.1,4,4,0,0,0-.9,2.3v.9a4.78,4.78,0,0,0,.8,2.7,2.85,2.85,0,0,0,2.4,1.2,2,2,0,0,0,.8-.1l.8-.3.2-.1a1.48,1.48,0,0,1,.7-.1,1,1,0,0,1,1,1c0,.6-.5,1.1-1.4,1.4a7.8,7.8,0,0,1-2.2.4,6,6,0,0,1-3.4-1.1,4.16,4.16,0,0,1-1.9-3,9.48,9.48,0,0,1-.2-2.1,6.05,6.05,0,0,1,1.6-4.5,4.81,4.81,0,0,1,4.1-1.7h.8" fill="#90004f"/><path d="M98.5,108a1.4,1.4,0,1,1,0,2.8,1.16,1.16,0,0,1-1-.4,1.28,1.28,0,0,1-.4-1,1.37,1.37,0,0,1,1.4-1.4m-1.2,5.4a1,1,0,0,1,.3-.8,1.22,1.22,0,0,1,.9-.3,1,1,0,0,1,1.1,1.1v10.1a1.1,1.1,0,1,1-2.2,0v-10.1Z" fill="#90004f"/><path d="M104.8,119.28v.3a2.94,2.94,0,0,0,.3.9,4.27,4.27,0,0,0,1.3,1.4,2.79,2.79,0,0,0,1.8.6,4.53,4.53,0,0,0,1.6-.3,3.74,3.74,0,0,0,1-.6l.7-.5a.75.75,0,0,1,.5-.1h.2a.91.91,0,0,1,.8,1,1.71,1.71,0,0,1-.8,1.2,7.81,7.81,0,0,1-2,1.1c-.2.1-.6.2-1.1.4H108a5.88,5.88,0,0,1-3.2-1.1,5.66,5.66,0,0,1-2.1-2.6,7.63,7.63,0,0,1-.5-2.7,5.85,5.85,0,0,1,1.3-3.8,4.93,4.93,0,0,1,2.6-1.9,6.72,6.72,0,0,1,2.4-.4,4.79,4.79,0,0,1,3.3,1.2,5,5,0,0,1,1.9,2.4,6.82,6.82,0,0,1,.4,2,2.68,2.68,0,0,1-.2,1.1,1.33,1.33,0,0,1-1,.3h-8.1m7.1-1.6-.1-.5a4.53,4.53,0,0,0-1.1-1.9,3,3,0,0,0-2-1,4.5,4.5,0,0,0-1.4.2,3.44,3.44,0,0,0-1.8,1.5,10.6,10.6,0,0,0-.5,1.2l-.2.5Z" fill="#90004f"/><path d="M117.4,114a6,6,0,0,1,4.4-1.8,5.18,5.18,0,0,1,3.4,1.8v-5.8a.91.91,0,0,1,.4-.8,1.22,1.22,0,0,1,.9-.3,1,1,0,0,1,1.1,1.1v15.5a1.4,1.4,0,0,1-.3.9,1.22,1.22,0,0,1-.9.3,1.33,1.33,0,0,1-.8-.3.91.91,0,0,1-.3-.7v-.6c-.1.2-.3.3-.4.4a5.77,5.77,0,0,1-1,.8,4.88,4.88,0,0,1-1.9.4,5.52,5.52,0,0,1-2.8-.3,5.66,5.66,0,0,1-2.7-2.4,6.7,6.7,0,0,1,.9-8.2m1.7,7.5a3.42,3.42,0,0,0,5.2,0,4.43,4.43,0,0,0,1.1-3,4.36,4.36,0,0,0-1.1-2.9,3.42,3.42,0,0,0-5.2,0,4.36,4.36,0,0,0-1.1,2.9A4.43,4.43,0,0,0,119.1,121.48Z" fill="#90004f"/><path d="M132.7,114a6,6,0,0,1,4.4-1.8,5.18,5.18,0,0,1,3.4,1.8v-.7a.91.91,0,0,1,.4-.8,1.27,1.27,0,0,1,.9-.4.91.91,0,0,1,.8.4,1.14,1.14,0,0,1,.3.8v10.4a1.4,1.4,0,0,1-.3.9,1.22,1.22,0,0,1-.9.3,1.33,1.33,0,0,1-.8-.3.91.91,0,0,1-.3-.7v-.6l-.4.4a5.77,5.77,0,0,1-1,.8,4.88,4.88,0,0,1-1.9.4,5.52,5.52,0,0,1-2.8-.3,5.66,5.66,0,0,1-2.7-2.4,6.7,6.7,0,0,1,.9-8.2m1.7,7.5a3.42,3.42,0,0,0,5.2,0,4.43,4.43,0,0,0,1.1-3,4.36,4.36,0,0,0-1.1-2.9,3.42,3.42,0,0,0-5.2,0,4.36,4.36,0,0,0-1.1,2.9A4,4,0,0,0,134.4,121.48Z" fill="#90004f"/><path d="M147,114a6,6,0,0,1,4.4-1.8,5.18,5.18,0,0,1,3.4,1.8v-5.8a.91.91,0,0,1,.4-.8,1.22,1.22,0,0,1,.9-.3,1,1,0,0,1,1.1,1.1v15.5a1.4,1.4,0,0,1-.3.9,1.22,1.22,0,0,1-.9.3,1.33,1.33,0,0,1-.8-.3.91.91,0,0,1-.3-.7v-.6c-.1.2-.3.3-.4.4a5.77,5.77,0,0,1-1,.8,4.88,4.88,0,0,1-1.9.4,5.52,5.52,0,0,1-2.8-.3,5.66,5.66,0,0,1-2.7-2.4,6.7,6.7,0,0,1,.9-8.2m1.7,7.5a3.42,3.42,0,0,0,5.2,0,4.43,4.43,0,0,0,1.1-3,4.36,4.36,0,0,0-1.1-2.9,3.42,3.42,0,0,0-5.2,0,4.36,4.36,0,0,0-1.1,2.9A4.43,4.43,0,0,0,148.7,121.48Z" fill="#90004f"/><path d="M165.6,114.88a8.36,8.36,0,0,1,2.3-4.9,6.86,6.86,0,0,1,5-2,9.29,9.29,0,0,1,2.9.5c1.2.5,1.9,1.1,1.9,2,0,.7-.3,1-1,1a3.09,3.09,0,0,1-.8-.2l-.1-.1-.6-.4a5.82,5.82,0,0,0-1.1-.5l-.7-.1h-.7a4.41,4.41,0,0,0-3,1.2,4.35,4.35,0,0,0-1.5,2.9c-.1,1-.2,1.7-.2,2a6.19,6.19,0,0,0,1.8,4.8,4.45,4.45,0,0,0,3.2,1.3,3.22,3.22,0,0,0,.8-.1,4.73,4.73,0,0,0,1.9-.6l.2-.1.4-.3.5-.2h.2a.75.75,0,0,1,.7.4,1.14,1.14,0,0,1,.3.8,1.39,1.39,0,0,1-.5,1,10.59,10.59,0,0,1-1,.7,6.55,6.55,0,0,1-3.5.7,6.91,6.91,0,0,1-5.5-2.4,8.63,8.63,0,0,1-1.9-5.8,8.53,8.53,0,0,1,0-1.6" fill="#90004f"/><path d="M184.7,112.18a6.11,6.11,0,0,1,4.5,1.8,6.67,6.67,0,0,1,0,8.9,5.73,5.73,0,0,1-4.4,1.8,6.52,6.52,0,0,1-4.6-1.7,6.11,6.11,0,0,1-1.7-4.6,6.44,6.44,0,0,1,1.7-4.5,6.27,6.27,0,0,1,4.5-1.7m-.1,10.4a3.76,3.76,0,0,0,2.8-1.1,4.08,4.08,0,0,0,1.1-3,4.59,4.59,0,0,0-1.1-3.2,4.11,4.11,0,0,0-5.6,0,4.92,4.92,0,0,0,0,6.2A3.42,3.42,0,0,0,184.6,122.58Z" fill="#90004f"/><path d="M198,112.18a6.11,6.11,0,0,1,4.5,1.8,6.44,6.44,0,0,1,1.7,4.5,6,6,0,0,1-1.7,4.4,5.73,5.73,0,0,1-4.4,1.8,6.52,6.52,0,0,1-4.6-1.7,6.11,6.11,0,0,1-1.7-4.6,6.44,6.44,0,0,1,1.7-4.5,6.27,6.27,0,0,1,4.5-1.7m-.1,10.4a3.76,3.76,0,0,0,2.8-1.1,4.08,4.08,0,0,0,1.1-3,4.59,4.59,0,0,0-1.1-3.2,3.76,3.76,0,0,0-2.8-1.1,3.93,3.93,0,0,0-2.8,1.1,4.92,4.92,0,0,0,0,6.2A3.55,3.55,0,0,0,197.9,122.58Z" fill="#90004f"/><path d="M218.5,118.48a6.13,6.13,0,0,1-1.9,4.5,6.54,6.54,0,0,1-4.5,1.9,4.86,4.86,0,0,1-1.4-.2,4.56,4.56,0,0,1-2.7-1.5v5.1a1,1,0,0,1-1.1,1.1.91.91,0,0,1-.8-.4,1.14,1.14,0,0,1-.3-.8v-14.9a1.14,1.14,0,0,1,.3-.8,1.23,1.23,0,0,1,.8-.4h0a1.14,1.14,0,0,1,.8.3.91.91,0,0,1,.3.7v.6c.1-.1.2-.1.3-.2a4,4,0,0,1,3.2-1.4h.6a5.83,5.83,0,0,1,4.5,1.9,6.54,6.54,0,0,1,1.9,4.5m-2.4-.1a4.17,4.17,0,0,0-1.1-2.9,3.78,3.78,0,0,0-2.8-1.2,4.07,4.07,0,0,0-3,1.2,4,4,0,0,0-1.2,2.9,4.38,4.38,0,0,0,1.2,3.2,4.07,4.07,0,0,0,3,1.2,3.41,3.41,0,0,0,2.8-1.3A4.38,4.38,0,0,0,216.1,118.38Z" fill="#90004f"/><path d="M222.6,119.28v.3a2.94,2.94,0,0,0,.3.9,4.27,4.27,0,0,0,1.3,1.4,2.79,2.79,0,0,0,1.8.6,4.53,4.53,0,0,0,1.6-.3,3.74,3.74,0,0,0,1-.6l.7-.5a.75.75,0,0,1,.5-.1h.2a.91.91,0,0,1,.8,1,1.71,1.71,0,0,1-.8,1.2,7.81,7.81,0,0,1-2,1.1c-.2.1-.6.2-1.1.4h-1.2a5.88,5.88,0,0,1-3.2-1.1,5.66,5.66,0,0,1-2.1-2.6,7.63,7.63,0,0,1-.5-2.7,5.85,5.85,0,0,1,1.3-3.8,4.93,4.93,0,0,1,2.6-1.9,6.72,6.72,0,0,1,2.4-.4,4.79,4.79,0,0,1,3.3,1.2,5,5,0,0,1,1.9,2.4,6.82,6.82,0,0,1,.4,2,1.61,1.61,0,0,1-.3,1.1,1.33,1.33,0,0,1-1,.3h-7.9m7-1.6-.1-.5a4.53,4.53,0,0,0-1.1-1.9,3,3,0,0,0-2-1,4.19,4.19,0,0,0-1.4.2,3.44,3.44,0,0,0-1.8,1.5,3.63,3.63,0,0,0-.5,1.2l-.1.5Z" fill="#90004f"/><path d="M233.9,113.38a.91.91,0,0,1,.4-.8,1.22,1.22,0,0,1,1.6,0,.83.83,0,0,1,.3.8v.8l.3-.5a3.18,3.18,0,0,1,1-1,2.81,2.81,0,0,1,1.5-.3,1.37,1.37,0,0,1,1.3,1.3,1.05,1.05,0,0,1-.5.9l-.4.2-.2.1-.6.2a1.88,1.88,0,0,0-.9.4,4,4,0,0,0-1.1,1.4,3.51,3.51,0,0,0-.3,1.6v5.4a1.14,1.14,0,0,1-.3.8,1.23,1.23,0,0,1-.8.4.91.91,0,0,1-.8-.4,1.23,1.23,0,0,1-.4-.8v-10.5" fill="#90004f"/><path d="M243.9,114a6,6,0,0,1,4.4-1.8,5.18,5.18,0,0,1,3.4,1.8v-.7a.91.91,0,0,1,.4-.8,1.27,1.27,0,0,1,.9-.4.91.91,0,0,1,.8.4,1.14,1.14,0,0,1,.3.8v10.4a1.4,1.4,0,0,1-.3.9,1.22,1.22,0,0,1-.9.3,1.33,1.33,0,0,1-.8-.3.91.91,0,0,1-.3-.7v-.6c-.1.2-.3.3-.4.4a5.77,5.77,0,0,1-1,.8,4.88,4.88,0,0,1-1.9.4,5.52,5.52,0,0,1-2.8-.3,5.66,5.66,0,0,1-2.7-2.4,6.7,6.7,0,0,1,.9-8.2m1.7,7.5a3.42,3.42,0,0,0,5.2,0,4.43,4.43,0,0,0,1.1-3,4.36,4.36,0,0,0-1.1-2.9,3.42,3.42,0,0,0-5.2,0,4.36,4.36,0,0,0-1.1,2.9A4,4,0,0,0,245.6,121.48Z" fill="#90004f"/><path d="M257.6,112.38v-2.5a1.61,1.61,0,0,1,.3-.9,1.23,1.23,0,0,1,.8-.4.91.91,0,0,1,.8.4,1.22,1.22,0,0,1,.3.9v2.5h1.1a1,1,0,0,1,1.1,1.1.91.91,0,0,1-.3.7,1.14,1.14,0,0,1-.8.3h-1v9a.91.91,0,0,1-.4.8,1.23,1.23,0,0,1-.8.4,1,1,0,0,1-1.1-1.1v-9h-.8a1,1,0,0,1-1.1-1.1.91.91,0,0,1,.3-.7,1.14,1.14,0,0,1,.8-.3h.8" fill="#90004f"/><path d="M265.8,108a1.16,1.16,0,0,1,1,.4,1.4,1.4,0,0,1-1,2.4,1.16,1.16,0,0,1-1-.4,1.28,1.28,0,0,1-.4-1,1.53,1.53,0,0,1,.4-1,1.05,1.05,0,0,1,1-.4m-1.2,5.4a1,1,0,0,1,.3-.8,1.1,1.1,0,0,1,1.9.8v10.1a1.1,1.1,0,1,1-2.2,0Z" fill="#90004f"/><path d="M273.8,120.88l2.6-7.8.3-.5a1.21,1.21,0,0,1,1.8,0,1.22,1.22,0,0,1,.3.9.6.6,0,0,1-.1.4l-3.6,9.9a1.18,1.18,0,0,1-1.2.9,1.22,1.22,0,0,1-1.3-.9l-3.6-9.9a4.33,4.33,0,0,1-.1-.5,1.14,1.14,0,0,1,.3-.8,1.22,1.22,0,0,1,.9-.3.81.81,0,0,1,.8.4l.3.5,2.6,7.7" fill="#90004f"/><path d="M282.3,114a6,6,0,0,1,4.4-1.8,5.18,5.18,0,0,1,3.4,1.8v-.7a.91.91,0,0,1,.4-.8,1.27,1.27,0,0,1,.9-.4.91.91,0,0,1,.8.4,1.14,1.14,0,0,1,.3.8v10.4a1.4,1.4,0,0,1-.3.9,1.22,1.22,0,0,1-.9.3,1.14,1.14,0,0,1-.8-.3.91.91,0,0,1-.3-.7v-.6c-.1.2-.3.3-.4.4a5.77,5.77,0,0,1-1,.8,4.49,4.49,0,0,1-1.9.4,5.52,5.52,0,0,1-2.8-.3,5.66,5.66,0,0,1-2.7-2.4,6.7,6.7,0,0,1,.9-8.2m1.7,7.5a3.42,3.42,0,0,0,5.2,0,4.43,4.43,0,0,0,1.1-3,4.36,4.36,0,0,0-1.1-2.9,3.42,3.42,0,0,0-5.2,0,4.36,4.36,0,0,0-1.1,2.9A4.43,4.43,0,0,0,284,121.48Z" fill="#90004f"/><path d="M63.7,93.28a2.29,2.29,0,0,1,2.4-2,2.93,2.93,0,0,1,1.6.4l1.2.6.6.3a12.66,12.66,0,0,0,5.2,1.2,6.77,6.77,0,0,0,4.7-1.7,5.83,5.83,0,0,0,1.9-4.5c0-2.4-1.6-4.1-4.8-5.2L72,80.78a15.32,15.32,0,0,1-5.1-2.7,6.69,6.69,0,0,1-2.1-2.8,9.37,9.37,0,0,1-.8-3.6,9,9,0,0,1,3.7-7.6,12.42,12.42,0,0,1,7.8-2.6,13.37,13.37,0,0,1,5.2,1c2.5,1,3.8,2.2,3.8,3.6,0,1.7-.8,2.6-2.5,2.6a3.08,3.08,0,0,1-1.3-.3l-1.1-.5-.8-.4-.6-.2-.6-.2a6.05,6.05,0,0,0-2.4-.4A5.58,5.58,0,0,0,71.5,68a4.18,4.18,0,0,0-1.8,3.4c0,1.8,1.1,3.1,3.2,4,.4.2,1.3.5,2.5,1L77,77l1.4.5q8.4,2.85,8.4,9.6v1.3L86.5,90a10.62,10.62,0,0,1-4.7,6.7,11.83,11.83,0,0,1-7,2.1A18.12,18.12,0,0,1,66.3,97q-2.55-1.35-2.7-3l.1-.7" fill="#90004f"/><path d="M95.5,74.88a13.36,13.36,0,0,1,9.8-4q3.45,0,7.5,3.9v-1.7a2.7,2.7,0,0,1,5.4,0v23.1a2.73,2.73,0,0,1-2.7,2.7,2.72,2.72,0,0,1-1.7-.6,1.86,1.86,0,0,1-.7-1.6v-1.3a3.24,3.24,0,0,1-.9.8,11.92,11.92,0,0,1-2.2,1.7,10.77,10.77,0,0,1-4.2,1c-2.9.2-5,0-6.1-.8a12.08,12.08,0,0,1-6-5.2,15.52,15.52,0,0,1-2.2-8.2,13,13,0,0,1,4-9.8m3.7,16.8a7.58,7.58,0,0,0,11.6,0,10.14,10.14,0,0,0,0-13.1,7.58,7.58,0,0,0-11.6,0,9.51,9.51,0,0,0-2.4,6.5A9.76,9.76,0,0,0,99.2,91.68Z" fill="#90004f"/><path d="M124.6,73.68a2.7,2.7,0,0,1,4.4-2.1,1.8,1.8,0,0,1,.7,1.5v1.3c1.6-2.2,4.1-3.3,7.4-3.3a30.31,30.31,0,0,1,3.3.4,6.52,6.52,0,0,1,4.7,3.7,11.86,11.86,0,0,1,1.7,6v15.1a2.73,2.73,0,0,1-.8,1.9,2.56,2.56,0,0,1-1.9.8,2.36,2.36,0,0,1-1.9-.8,2.49,2.49,0,0,1-.7-1.9V81.48a6.07,6.07,0,0,0-1.7-4.2,5.37,5.37,0,0,0-4.2-1.7,5.8,5.8,0,0,0-5.8,5.8v14.9a2.17,2.17,0,0,1-.8,1.8,2.51,2.51,0,0,1-4.4-1.8V73.68" fill="#90004f"/><path d="M165.7,64.48a2.56,2.56,0,0,1,.8-1.9,2.79,2.79,0,0,1,2-.8,2.73,2.73,0,0,1,2.7,2.7v31.6a2.56,2.56,0,0,1-.8,1.9,2.79,2.79,0,0,1-2,.8,3,3,0,0,1-2-.8,2.73,2.73,0,0,1-.8-1.9V64.48" fill="#90004f"/><path d="M176.6,93a2.15,2.15,0,0,1,2.2-1.9,3,3,0,0,1,1.6.5l.9.5.7.5a9.41,9.41,0,0,0,5.1,1.7,6.11,6.11,0,0,0,3-.8,3.17,3.17,0,0,0,1.5-2.7q0-2.1-3.9-3.6l-3.2-1.3-1.8-.8c-3.4-1.5-5.2-3.6-5.2-6.2v-1c.6-2,.9-2.9.9-2.9a5.88,5.88,0,0,1,2.4-2.3,10.65,10.65,0,0,1,6.3-1.8h.8a31.13,31.13,0,0,1,3.9.9c2.9,1.1,4.3,2.3,4.3,3.5a3.29,3.29,0,0,1-.6,1.9,1.94,1.94,0,0,1-1.6.8,4.61,4.61,0,0,1-1.8-.6l-.4-.2-1-.6-.8-.4a7.25,7.25,0,0,0-3.3-.7,4.19,4.19,0,0,0-2.2.5,3,3,0,0,0-1.6,1.5,3,3,0,0,0-.3,1.1c0,1.1,1,2,3.1,2.8.3.1,1,.4,2,.8l1,.4,1.6.7a39.93,39.93,0,0,1,3.9,2.1c1.6,1,2.5,2.8,2.5,5.4,0,2.2-1.2,4.3-3.6,6.2-1.5,1.2-3.7,1.8-6.7,1.8-.3,0-1-.1-2.3-.2a10.86,10.86,0,0,1-3.3-1,13.12,13.12,0,0,1-3-1.8,3.87,3.87,0,0,1-1.4-2,4.12,4.12,0,0,0,.3-.8" fill="#90004f"/><path d="M204.3,61.58a2.57,2.57,0,0,1,2.2,1,3.2,3.2,0,1,1-4.6,0,3.25,3.25,0,0,1,2.4-1m-2.7,12.1a2.56,2.56,0,0,1,.8-1.9,2.49,2.49,0,0,1,1.9-.7,2.17,2.17,0,0,1,1.8.8,2.49,2.49,0,0,1,.7,1.9v22.5a2.56,2.56,0,0,1-.8,1.9,2.49,2.49,0,0,1-1.9.7,2.06,2.06,0,0,1-1.8-.8,2.49,2.49,0,0,1-.7-1.9Z" fill="#90004f"/><path d="M216.7,74.88a13.36,13.36,0,0,1,9.8-4q3.45,0,7.5,3.9v-13a2.73,2.73,0,0,1,2.7-2.7,2.34,2.34,0,0,1,1.8.8,2.56,2.56,0,0,1,.8,1.9v34.4a2.73,2.73,0,0,1-2.7,2.7,2.72,2.72,0,0,1-1.7-.6,1.86,1.86,0,0,1-.7-1.6v-1.3a3.24,3.24,0,0,1-.9.8,11.92,11.92,0,0,1-2.2,1.7,10.77,10.77,0,0,1-4.2,1c-2.9.2-4.9,0-6.1-.8a12.08,12.08,0,0,1-6-5.2,15.6,15.6,0,0,1-2.3-8.2,14.39,14.39,0,0,1,4.2-9.8m3.7,16.8a7.58,7.58,0,0,0,11.6,0,10.14,10.14,0,0,0,0-13.1,7.58,7.58,0,0,0-11.6,0,9.51,9.51,0,0,0-2.4,6.5A9.76,9.76,0,0,0,220.4,91.68Z" fill="#90004f"/><path d="M246.6,73.68a2.73,2.73,0,0,1,.8-1.9,2.5,2.5,0,0,1,1.8-.8,2.41,2.41,0,0,1,1.8.7,1.81,1.81,0,0,1,.7,1.7v1.8l.6-1.1a7.65,7.65,0,0,1,2.2-2.2,6.23,6.23,0,0,1,3.3-.7,3.23,3.23,0,0,1,2.1.8,2.73,2.73,0,0,1,.8,1.9,2,2,0,0,1-1.1,1.9l-.9.5-.5.3-1.4.3a4.89,4.89,0,0,0-1.9.8,11.65,11.65,0,0,0-2.5,3.1,7,7,0,0,0-.7,3.6v12a2.93,2.93,0,0,1-.8,1.9,2.6,2.6,0,0,1-4.4-1.8V73.68" fill="#90004f"/><path d="M275.8,70.88a12.82,12.82,0,0,1,9.9,4A13.88,13.88,0,0,1,289.6,85a13.74,13.74,0,0,1-3.8,9.9,12.88,12.88,0,0,1-9.7,4,14,14,0,1,1-.3-28m0,23.3a8.87,8.87,0,0,0,6.3-2.3,9,9,0,0,0,2.4-6.7c0-3.1-.8-5.4-2.4-7.1a9.34,9.34,0,0,0-12.5,0,9.25,9.25,0,0,0-2.4,6.8c0,3.1.8,5.4,2.4,7A8.46,8.46,0,0,0,275.8,94.18Z" fill="#90004f"/><path d="M26.5,12.28l28.8.2a86,86,0,0,1-4.2,18.6C47.9,39.78,42,50.18,31.2,51h-.1v.1c0,.2-3.3,12.8-3.3,24.9a46.68,46.68,0,0,0,.8,9.3,2.28,2.28,0,0,0-1.9.4,3.27,3.27,0,0,0-1,2.7,8.16,8.16,0,0,0,.4,2.7h0c.9,1,2.4,2.4,3.9,3.8a3.75,3.75,0,0,0-1.5,2.7V98c.5,3.3,1.8,20.3,1.9,21.8-1.4.4-13.8,3.5-13.8,6.5h0c0,1.2,1.9,2.2,5.8,3,12.1,2.4,23.7-1,24.5-4.4.2-.9-.2-2.2-3.6-3.2-8-2.3-10.2-2-10.8-1.6-.2.1-.2.2-.2.2l.3.1s.8-1.2,10.7,1.6c2.4.7,3.6,1.7,3.4,2.8-.8,3.2-12.4,6.5-24.2,4.2-4.6-.9-5.6-1.9-5.6-2.7h0c0-2.4,9.9-5.3,13.7-6.3h.1v-.1c0-.2-1.3-18.5-1.9-22v-.4A3.58,3.58,0,0,1,30.2,95c2.2,2,4.3,3.7,4.7,3.4.1,0,.1-.1.1-.2,0-.4-.5-1.4-2.7-4.5a24.32,24.32,0,0,1,2.9-1.3A1.79,1.79,0,0,0,36.5,91v-.1q0-1.8-4.8-4.5a11.41,11.41,0,0,0-2.8-1.1A39.69,39.69,0,0,1,28,76c0-11.7,3.1-23.8,3.3-24.8,8.6-.7,15.5-7.6,20-20a82.17,82.17,0,0,0,4.2-18.8v-.2l-29-.2v.3m-.6,76.2a3,3,0,0,1,.9-2.5,2.46,2.46,0,0,1,1.8-.3,21.33,21.33,0,0,0,3.2,8,9.91,9.91,0,0,0-1.7,1.1c-1.2-1.1-2.6-2.4-3.9-3.7A20.7,20.7,0,0,1,25.9,88.48Zm3-2.8a14.88,14.88,0,0,1,2.6,1c3.8,2.1,4.7,3.4,4.7,4.2V91c-.1.8-1.1,1.2-1.1,1.2a17.42,17.42,0,0,0-3,1.3A18.91,18.91,0,0,1,28.9,85.68Zm3.1,8.2c2.4,3.3,2.7,4.1,2.7,4.4v.1c-.3.1-2.1-1.3-4.3-3.3A4.81,4.81,0,0,1,32,93.88Z" fill="#90004f"/><path d="M24.3,11.08l38.1.2a65.81,65.81,0,0,1-5.6,18.5c-4.1,8.6-12,19-26.4,19.7h-.1v.1a94.7,94.7,0,0,0-3.9,16.6,68.45,68.45,0,0,0-.6,8.1,36.66,36.66,0,0,0,1.1,9.4,4,4,0,0,0-3,.7,3.33,3.33,0,0,0-.8,2.4,10.36,10.36,0,0,0,.5,2.7h0c1.3,1,3.2,2.4,5.1,3.7-1.1.8-2,1.7-2,2.7v.4c.7,3.3,2.3,20.1,2.5,21.7-2.4.4-18.2,3.5-18.2,6.5h0c0,1.2,2.5,2.2,7.7,3,16.4,2.4,31.8-1.1,32.4-4.5.2-.9-.5-2.1-4.8-3-13.4-2.9-14.5-1.7-14.6-1.4l.3.1c0-.1,1.1-1.3,14.3,1.6,3.1.7,4.7,1.6,4.5,2.6-.5,3-15.4,6.8-32.1,4.3-6.1-.9-7.4-1.9-7.4-2.7h0c0-2.4,13.1-5.3,18.1-6.2h.1v-.1c0-.2-1.7-18.5-2.5-21.9v-.4c0-1,.8-1.8,1.9-2.5,2.9,2,5.8,3.8,6.3,3.3,0-.1.1-.1.1-.2,0-.4-.5-1.3-3.6-4.5a37.71,37.71,0,0,1,3.9-1.3c.1,0,1.6-.4,1.7-1.5v-.1c0-1.2-2.1-2.7-6.4-4.5a17.3,17.3,0,0,0-3.8-1.1,35.38,35.38,0,0,1-1.1-9.3c0-11.6,4-23.6,4.4-24.7C45,49.08,53,38.58,57.1,30a66,66,0,0,0,5.6-18.8V11l-38.5-.3.1.4m-.8,75.8a3.41,3.41,0,0,1,.7-2.2,3.28,3.28,0,0,1,2.9-.6,18.33,18.33,0,0,0,4.3,8,11.29,11.29,0,0,0-2.2,1.1c-1.6-1.1-3.4-2.4-5.2-3.8A6.31,6.31,0,0,1,23.5,86.88Zm8.1,5a17.91,17.91,0,0,1-4.2-7.8,17.65,17.65,0,0,1,3.6,1.1c5.1,2.1,6.2,3.4,6.2,4.2v.1c-.1.8-1.4,1.2-1.5,1.2a20.54,20.54,0,0,0-4.1,1.2Zm0,.4c3.2,3.3,3.5,4.2,3.5,4.4h0c-.3.2-2.7-1.2-5.7-3.3A11.29,11.29,0,0,1,31.6,92.28Z" fill="#90004f"/><path d="M38.9,15c4.1,1.4,6.5,5.2,5.4,8.5s-5.4,4.8-9.5,3.4-6.5-5.2-5.4-8.5,5.4-4.9,9.5-3.4" fill="#90004f"/><path d="M29.3,18.28c-1.2,3.3,1.3,7.2,5.5,8.7a9.08,9.08,0,0,0,6.7-.2,5.86,5.86,0,0,0,3-3.2,5.66,5.66,0,0,0-.3-4.4,8.82,8.82,0,0,0-5.1-4.3c-4.3-1.5-8.6.1-9.8,3.4m5.6,8.5c-4.1-1.4-6.4-5.2-5.3-8.4s5.3-4.7,9.4-3.3a8.77,8.77,0,0,1,5,4.2,5.19,5.19,0,0,1,.3,4.2,5.82,5.82,0,0,1-2.9,3.1A8.57,8.57,0,0,1,34.9,26.78Z" fill="#90004f"/><path d="M36,16.38a1,1,0,0,1,1,1.2c-.1.5-.7.8-1.4.7a1,1,0,0,1-1-1.2c.1-.5.7-.8,1.4-.7" fill="#90004f"/><path d="M15.1,32.08A25.65,25.65,0,0,0,.1,38l-.1.1.1.1c.6.6,2.3.8,4.4.5,3.6-.5,8.5-2.5,10.7-6.4l.1-.3-.2.1m-.3.3c-2.2,3.6-6.9,5.4-10.3,5.9-1.8.3-3.3.2-4-.3A26.9,26.9,0,0,1,14.8,32.38Z" fill="#90004f"/><path d="M26,22.38c-.2,0-4.1.2-5.1,1.8a4.3,4.3,0,0,0-.7,1.4c-.1.4-.1.4-.6.6l-1.4.4c-4.6,1.4-6.1,2-6.1,2.4,0,.1,0,.2.1.2.6.5,7.9-1.2,8.3-1.4a11.74,11.74,0,0,0,1.7-1.4,18.45,18.45,0,0,1,2.5-2.1,2.35,2.35,0,0,0,1.4-1.5l.2-.4H26M18.3,27l1.4-.4c.6-.2.7-.4.8-.8a3.32,3.32,0,0,1,.7-1.3c.8-1.3,3.8-1.6,4.6-1.6a2.28,2.28,0,0,1-1.3,1.3,18.33,18.33,0,0,0-2.6,2.1c-.7.6-1.3,1.2-1.6,1.4a39.48,39.48,0,0,1-7.9,1.5C13.1,28.58,16.7,27.48,18.3,27Z" fill="#90004f"/><path d="M22.4,27.58c-10.7,3-15.6,13.9-15.6,14l-.1.2h.2c.5.1,4.2-1.8,7.8-4.4,3.3-2.4,7.4-6,7.9-9.6v-.2h-.2m-.2.4c-.7,3.4-4.6,6.9-7.7,9.2a37.48,37.48,0,0,1-7.3,4.3C8,39.68,12.8,30.68,22.2,28Z" fill="#90004f"/><path d="M24.3,24.58l.1.7a4.87,4.87,0,0,1,5.6,4.1l.7-.1c-1-5.5-6.3-4.7-6.4-4.7" fill="#90004f"/><path d="M40.3,30.58c2.2,3.4,1.6,7.6-1.2,9.4s-6.9.6-9.1-2.8-1.7-7.6,1.2-9.4,6.9-.6,9.1,2.8" fill="#90004f"/><path d="M31.1,27.68a5.7,5.7,0,0,0-2.4,3.6,7.9,7.9,0,0,0,1.2,5.9,8.1,8.1,0,0,0,4.9,3.5,5.79,5.79,0,0,0,4.3-.7,5.7,5.7,0,0,0,2.4-3.6,7.9,7.9,0,0,0-1.2-5.9A8.1,8.1,0,0,0,35.4,27a5.43,5.43,0,0,0-4.3.7m3.8,12.9a8.14,8.14,0,0,1-4.8-3.4,7.66,7.66,0,0,1-1.2-5.8,5.23,5.23,0,0,1,6.4-4.2,8.14,8.14,0,0,1,4.8,3.4,7.66,7.66,0,0,1,1.2,5.8,5.36,5.36,0,0,1-2.3,3.5A5.29,5.29,0,0,1,34.9,40.58Z" fill="#90004f"/><path d="M34.8,31.28a1.36,1.36,0,0,1-.3,1.9,1.39,1.39,0,0,1-1.8-.8,1.36,1.36,0,0,1,.3-1.9,1.48,1.48,0,0,1,1.8.8" fill="#90004f"/><path d="M30.1,14.18s-1.7,7.4-5.4,10-1.5,2.8-2.2,3.6.3-1.4,1.6-2.4,4.3-3.8,5.2-7.1a22,22,0,0,0,.8-4.1" fill="#90004f"/><path d="M24.6,24.18c-1.9,1.3-2.3,2.1-2.3,2.6a4.33,4.33,0,0,0,.1.5v.1a1.74,1.74,0,0,0-.3.7h0a.1.1,0,0,0,.1.1c.1,0,.2,0,.3-.2a.76.76,0,0,0,.2-.4v-.2a6,6,0,0,1,1.5-1.8c.4-.3,4.1-3.3,5.2-7.2a16.28,16.28,0,0,0,.8-4.1H30s-1.7,7.3-5.4,9.9m-2.1,2.5c0-.5.4-1.1,2.2-2.4,2.7-1.9,4.3-6.3,5-8.6-.1.6-.3,1.5-.6,2.6-.8,3.1-3.6,5.9-5.1,7A4.57,4.57,0,0,0,22.6,27,.44.44,0,0,1,22.5,26.68Z" fill="#90004f"/><path d="M9.5,40.48s10.9-5.9,13-12.6c-3.8,4.8-13,12.1-13,12.6" fill="#90004f"/><path d="M28.5,20.48s4.7-11.1.6-14.8c-1.2,1-1.1.9-2.1.7s-5.7-3.6-5.7-3.6l-4.2.4s12.3,6.5,12.9,7.6-1.5,9.7-1.5,9.7" fill="#90004f"/><path d="M30.8,16.78s8.7-9.9,6.3-16.6c-3.8-1.1-8.1,13.9-6.3,16.6" fill="#90004f"/><path d="M34.3,1.68c-2.8,3.8-5,13.1-3.6,15.2l.1.2.1-.1c.4-.4,8.7-10,6.3-16.8V.08h-.1c-.9-.3-1.8.2-2.8,1.6m-3.7,13.9c-.4-3.2,1.6-10.6,4-13.7C35.2,1,36.1.08,37,.28a3.53,3.53,0,0,1,.3,1.4c.7,6-5.4,13.5-6.4,14.8A1.22,1.22,0,0,1,30.6,15.58Z" fill="#90004f"/><path d="M33.3,4.38c-.8,1.6-1,3.2-.3,3.5s1.9-.6,2.7-2.2,1-3.2.3-3.5-1.9.6-2.7,2.2" fill="#90004f"/><path d="M32.1,7.58l.1.3s3.7-.9,4.6-6.1l-.3-.1c-.9,5-4.4,5.9-4.4,5.9" fill="#90004f"/><path d="M24.1,9.28l33.8.2a56.14,56.14,0,0,1-3.6,17.1c-4.8,11.8-13.4,18.1-25.3,18.9h-.4l-.1.4c-.6,1.8-4.5,14.6-4.5,21.9a7.64,7.64,0,0,0,.8,4.1l1-.7a6.91,6.91,0,0,1-.6-3.3c0-5.8,2.9-16.4,4.4-21.3,15.1-1.1,22.4-11.2,25.8-19.5A53.48,53.48,0,0,0,59.1,9v-.6l-35-.2v1.1" fill="#90004f"/></g></g></svg>